SplineFontDB: 3.2
FontName: MiTica
FullName: MiTica
FamilyName: MiTica
Weight: Regular
Copyright: Copyright (c) 2020, Rafael Ferran i Peralta. Based in Eglantine (https://www.dafont.com/eglantine.font) by The Scriptorium (http://www.fontcraft.com/fontcraft/)
UComments: "Fet a Catalunya. Gaudiu-la! / Made in Catalonia. Enjoy it!+AAoA-Created with FontForge (http://fontforge.org)"
Version: 001.000
ItalicAngle: 0
UnderlinePosition: -100
UnderlineWidth: 50
Ascent: 800
Descent: 200
InvalidEm: 0
LayerCount: 2
Layer: 0 0 "Fons" 1
Layer: 1 0 "1r pla" 0
XUID: [1021 8 -186519760 13979866]
FSType: 0
OS2Version: 0
OS2_WeightWidthSlopeOnly: 0
OS2_UseTypoMetrics: 1
CreationTime: 1528471666
ModificationTime: 1596656605
PfmFamily: 17
TTFWeight: 400
TTFWidth: 5
LineGap: 90
VLineGap: 0
OS2TypoAscent: 0
OS2TypoAOffset: 1
OS2TypoDescent: 0
OS2TypoDOffset: 1
OS2TypoLinegap: 90
OS2WinAscent: 0
OS2WinAOffset: 1
OS2WinDescent: 0
OS2WinDOffset: 1
HheadAscent: 0
HheadAOffset: 1
HheadDescent: 0
HheadDOffset: 1
OS2Vendor: 'PfEd'
Lookup: 4 0 1 "'liga' Lligadures est+AOAA-ndard in Llat+AO0A lookup 0" { "'liga' Lligadures est+AOAA-ndard in Llat+AO0A lookup 0-1"  } ['liga' ('DFLT' <'dflt' > 'latn' <'dflt' > ) ]
Lookup: 258 0 0 "'kern' Interlletratge horitzontal in Llat+AO0A lookup 0" { "'kern' Interlletratge horitzontal in Llat+AO0A lookup 0-3" [150,0,2] "'kern' Interlletratge horitzontal in Llat+AO0A lookup 0-1" [150,15,0] "'kern' Interlletratge horitzontal in Llat+AO0A lookup 0-2" [150,15,0] } ['kern' ('DFLT' <'dflt' > 'latn' <'dflt' > ) ]
MarkAttachClasses: 1
DEI: 91125
KernClass2: 3 3 "'kern' Interlletratge horitzontal in Llat+AO0A lookup 0-3"
 95 A C H K M P R V W X Y c d h k m n u x Agrave Aacute Acircumflex Atilde Adieresis Aring Ccedilla
 120 D O b o Ograve Oacute Ocircumflex Otilde Odieresis egrave eacute edieresis ograve oacute ocircumflex otilde odieresis oe

StartChar: a
Encoding: 97 97 0
Width: 473
VWidth: 0
Flags: W
HStem: -24.4648 128.227<114.497 250.045> -8.64 59.1156<379.024 455.916> 297.959 124.748<177.723 320.461>
VStem: 27 68<218.353 253> 27 55<395 414>
LayerCount: 2
Fore
SplineSet
15 68 m 0xa8
 11.8558351473 75.8987556056 10.3818424685 83.5505139179 10.3818424685 90.9552749369 c 0
 10.3818424685 180.108810317 224.055199182 233.457052005 309 251 c 1
 304 277 298 294 293 297 c 0
 291.503810943 297.654582713 289.080709153 297.959387035 285.866434541 297.959387035 c 0
 254.707784462 297.959387035 149.202267403 269.316787311 93 253 c 1
 95 220 l 1xb0
 27 204 l 1
 27 414 l 1
 82 425 l 1
 84 395 l 1
 138.204591568 405.576505672 236.542424131 422.707453075 303.335790938 422.707453075 c 0
 337.586559319 422.707453075 363.542695299 418.202862239 371 406 c 0
 400 359 392 82 409 61 c 0
 415.933333333 52.4666666667 428.271111111 50.4755555556 438.276444444 50.4755555556 c 0
 447.031111111 50.4755555556 454 52 454 52 c 1
 463 0 l 1
 463 0 423.76 -8.64 390.208 -8.64 c 0x68
 367.84 -8.64 348 -4.8 344 8 c 0
 341 16 338 40 334 70 c 1
 295 35 230 -19 182 -23 c 0
 170.77707131 -23.9654132206 160.26772249 -24.464815098 150.410444661 -24.464815098 c 0
 78.5843345359 -24.464815098 41.3797004227 2.05074894328 15 68 c 0xa8
216 159 m 0
 212.452062468 154.087471109 210.840718895 148.132160856 210.840718895 141.967523353 c 0
 210.840718895 125.544308953 222.277120249 107.635408641 239 104 c 0
 239.802511358 103.839497728 240.682305653 103.762003056 241.633257411 103.762003056 c 0
 258.4568533 103.762003056 297.551521958 128.016514387 325 146 c 1
 323 162 320 178 318 194 c 1
 284 187 226 173 216 159 c 0
EndSplineSet
Validated: 1
EndChar

StartChar: u
Encoding: 117 117 1
Width: 576
VWidth: 0
Flags: W
HStem: -17.844 209.407<143.149 246.711> 351.608 57.0354<16.0513 103.048> 372.844 53.5323<299.912 398.676>
VStem: 93.4068 66.1967<193.487 332.892>
LayerCount: 2
Fore
SplineSet
10 391 m 1xd0
 10 391 52.172928 408.643776 92.479919104 408.643776 c 0xd0
 113.616512 408.643776 134.24 403.792 148 389 c 0
 158.299739603 377.876281229 159.603502082 345.196164446 159.603502082 309.630752468 c 0
 159.603502082 297.574705708 159.453688 285.187112474 159.453688 273.19525204 c 0
 159.453688 234.696775617 160.997756606 200.276945087 174 194 c 0
 177.382551764 192.308724118 183.200001487 191.563039677 190.830820135 191.563039677 c 0
 232.830582773 191.563039677 329.763884115 214.15253294 378 226 c 1
 378 246.666666667 378.333333333 267 378.333333333 285.333333333 c 0
 378.333333333 322 377 350.666666667 369 358 c 0
 355.25 370.5 333.296875 372.84375 318.765625 372.84375 c 0
 310.046875 372.84375 304 372 304 372 c 1
 288 415 l 1
 320.917846344 421.583569269 359.925259079 426.376089599 388.942927181 426.376089599 c 0xb0
 408.408739102 426.376089599 423.37908816 424.219418137 429 419 c 0
 457 393 440 182 476 115 c 0
 494 81 566 20 566 20 c 1
 538 -28 l 2
 538 -28 444 18 404 77 c 1
 345.167609669 44.6836165786 223.166202478 -17.8440357758 150.647965021 -17.8440357758 c 0
 135.649872945 -17.8440357758 122.768362692 -15.1694922264 113 -9 c 0
 83.2163094067 9.61480662078 74.3618847555 57.8909570269 74.3618847555 112.607602582 c 0
 74.3618847555 192.854523197 93.4067616029 286.954228356 93.4067616029 321.657191722 c 0
 93.4067616029 326.849730042 92.9803741018 330.712460429 92 333 c 0
 87.2013514131 344.653860854 73.0039157808 351.608328185 51.6627669119 351.608328185 c 0
 41.8726421784 351.608328185 30.5791509317 350.144787733 18 347 c 1
 10 391 l 1xd0
EndSplineSet
Validated: 1
EndChar

StartChar: l
Encoding: 108 108 2
Width: 354
VWidth: 0
Flags: W
HStem: -7.15915 727.355<111.558 257.507> -7.15915 79.1591<24 98> -5 70<268 332> 674 40<20 62.0582>
VStem: 110.817 151.123<152.33 628.384>
LayerCount: 2
Fore
SplineSet
13 -3 m 1x88
 24 75 l 1
 98 72 l 1
 109 249 l 2
 110.193063938 269.28208694 110.816767252 299.527984794 110.816767252 334.276253197 c 0
 110.816767252 445.154163355 104.466357037 601.874221988 90 627 c 0
 72 659 17 674 17 674 c 1
 20 714 l 1x58
 53.2085917358 717.362895366 97.5495445674 720.195678298 139.058276112 720.195678298 c 0x88
 196.294767433 720.195678298 248.146152652 714.8095043 258 698 c 0
 261.085145784 692.600994877 261.939481137 655.375760919 261.939481137 606.340539918 c 0
 261.939481137 545.471260991 260.623018863 466.403739009 260.623018863 407.425085082 c 0
 260.623018863 390.713515824 260.728713554 375.614819745 261 363 c 2
 268 65 l 1
 332 63 l 1
 341 -5 l 1x28
 341 -5 206 -6 165 -7 c 0
 160.505916331 -7.1096117968 155.759522997 -7.15914986361 150.805596565 -7.15914986361 c 0
 110.564328895 -7.15914986361 56.6290219569 -3.8903882032 13 -3 c 1x88
EndSplineSet
Validated: 1
EndChar

StartChar: b
Encoding: 98 98 3
Width: 581
VWidth: 0
Flags: W
HStem: 315.028 100.972<278.471 340.564> 596 40<20 62.0582>
VStem: 115.299 99.6559<344 540.46> 367.025 205.098<139.43 226.752>
LayerCount: 2
Fore
SplineSet
11 -9 m 0
 10.404636588 -8.851159147 10.1415771688 -7.83832791268 10.1415771688 -6.20880834575 c 0
 10.1415771688 3.10973865709 18.744204265 32.595363412 23 36 c 0
 30 41 81 62 98 78 c 0
 115 94 113 203 115 288 c 0
 115.199009877 296.457919761 115.299007426 305.490111022 115.299007426 314.931056561 c 0
 115.299007426 400.369276768 107.109406171 519.283662966 90 549 c 0
 72 581 17 596 17 596 c 1
 20 636 l 1
 53.2085917358 639.362895366 89.421153926 642.195678298 121.506835992 642.195678298 c 0
 165.74986137 642.195678298 202.146152652 636.8095043 212 620 c 0
 214.188262309 615.897008172 214.954941075 600.271707634 214.954941075 577.851692236 c 0
 214.954941075 525.358718003 210.752090175 435.617844497 210.752090175 369.307731592 c 0
 210.752090175 360.39995943 210.827934423 351.915016548 211 344 c 1
 248 377 300 416 339 416 c 0
 403.864131524 416 572.122634048 265.76886265 572.122634048 145.5777609 c 0
 572.122634048 137.91413268 571.438562948 130.372635109 570 123 c 0
 546 0 427 -6 365 -8 c 0
 364.495901364 -8.01626124632 363.985720881 -8.02432522056 363.469591849 -8.02432522056 c 0
 332.245900822 -8.02432522056 279.251982669 21.4878373897 234 51 c 1
 234.224744871 44.4823987296 234.348469228 38.4699000315 234.348469228 33.0079115905 c 0
 234.348469228 14.1668384882 232.876275643 1.87627564304 229 -2 c 0
 215.479149223 -15.5208507772 178.801933719 -19.9010312674 138.559599959 -19.9010312674 c 0
 89.5124331766 -19.9010312674 35.1694188601 -13.3944397927 11 -9 c 0
216 265 m 1
 219 232 223 195 226 160 c 1
 253.291484015 140.506082846 283.433064075 121.962197708 301.608863865 121.962197708 c 0
 302.080726981 121.962197708 302.544525438 121.974695858 303 122 c 0
 338.396116889 123.966450938 367.025107515 152.034674601 367.025107515 184.342806624 c 0
 367.025107515 217.858802167 348.790117647 314.005996639 314 315 c 0
 313.663402951 315.018699836 313.318063804 315.027958208 312.964185271 315.027958208 c 0
 294.3939122 315.027958208 252.308106065 289.532504098 216 265 c 1
EndSplineSet
Validated: 1
EndChar

StartChar: h
Encoding: 104 104 4
Width: 618
VWidth: 0
Flags: W
HStem: -13 73.75<556 607.671> -3.20127 78.2013<21 95> -3 63<324 373.156> 298.961 114.605<311.59 414.017> 599 40<17 59.0582>
VStem: 108.235 104.444<158.382 263.124 330 551.993> 376.814 179.297<63.6549 294.16>
LayerCount: 2
Fore
SplineSet
10 0 m 1x5e
 21 78 l 1
 95 75 l 1x5e
 106 252 l 2
 107.484692283 273.033140683 108.234614175 300.00567537 108.234614175 329.190335294 c 0
 108.234614175 417.947932829 101.298474436 527.165807559 87 552 c 0
 69 584 14 599 14 599 c 1
 17 639 l 1
 50.2085917358 642.362895366 86.421153926 645.195678298 118.506835992 645.195678298 c 0
 162.74986137 645.195678298 199.146152652 639.8095043 209 623 c 0
 211.866798424 617.983102759 212.678963547 595.501822464 212.678963547 564.437505716 c 0
 212.678963547 523.825834363 211.290858127 468.544536007 211.290858127 418.438377026 c 0
 211.290858127 399.917820041 211.480506147 382.104309452 212 366 c 2
 213 330 l 1
 261.025085529 368.87745019 331.71329647 413.565958178 402.915700462 413.565958178 c 0
 425.117637182 413.565958178 447.369567986 409.220973369 469 399 c 0
 547.4 361.666666667 556.111111111 170.146666667 556.111111111 78.9205925926 c 0
 556.111111111 72.4044444444 556.066666667 66.4 556 61 c 1
 566 61 575.5 60.75 584.25 60.75 c 0
 593 60.75 601 61 608 62 c 1
 609 -13 l 1x9e
 324 -3 l 1
 322 60 l 1
 338 62 356 64 374 65 c 1
 375.474809634 91.5465734054 376.813677801 127.20122503 376.813677801 162.541029045 c 0
 376.813677801 223.050352156 372.888547015 282.636643351 359 294 c 0
 354.945846873 297.446030158 348.878264443 298.960811801 341.330330306 298.960811801 c 0
 311.642699332 298.960811801 259.053786557 275.526893278 216 254 c 1
 225 1 l 1
 225 1 166 -2 125 -3 c 0x3e
 119.275564011 -3.13962038997 113.863029675 -3.20126536676 108.653527416 -3.20126536676 c 0
 76.5511280223 -3.20126536676 52.1586008914 -0.860379610028 10 0 c 1x5e
EndSplineSet
Validated: 1
EndChar

StartChar: d
Encoding: 100 100 5
Width: 565
VWidth: 0
Flags: W
HStem: -13.1401 21G<113.759 170.195> 317.059 97.2996<220.936 307.109> 596 40<503.942 546>
VStem: 9.99234 179.993<68.7273 266.735> 350.686 100.015<134.536 300.96 366 540.46>
LayerCount: 2
Fore
SplineSet
9.99233895143 123.028461823 m 0
 9.99233895143 307.188041224 95.2791860513 414.358100384 216.911465785 414.358100384 c 0
 224.792815832 414.358100384 232.826765475 413.908137169 241 413 c 0
 280 409 321 387 355 366 c 1
 355 431.076923077 350.686390533 521.556213018 350.686390533 575.388256714 c 0
 350.686390533 599.313609467 351.538461538 616 354 620 c 0
 363.853847348 636.8095043 400.25013863 642.195678298 444.493164008 642.195678298 c 0
 476.578846074 642.195678298 512.791408264 639.362895366 546 636 c 1
 549 596 l 1
 549 596 494 581 476 549 c 0
 458.890593829 519.283662966 450.700992574 400.369276768 450.700992574 314.931056561 c 0
 450.700992574 305.490111022 450.800990123 296.457919761 451 288 c 0
 453 203 451 94 468 78 c 0
 485 62 536 41 543 36 c 0
 547.255795735 32.595363412 555.858422831 3.10973865709 555.858422831 -6.20880834575 c 0
 555.858422831 -7.83832791268 555.595363412 -8.851159147 555 -9 c 0
 530.83058114 -13.3944397927 476.487566823 -19.9010312674 427.440400041 -19.9010312674 c 0
 387.198066281 -19.9010312674 350.520850777 -15.5208507772 337 -2 c 0
 333 2 331 13 331 31 c 1
 296 10 256 -8 215 -11 c 0
 196.182814419 -12.3335013404 178.463299099 -13.1401209549 161.926025962 -13.1401209549 c 0
 65.5912103857 -13.1401209549 9.99233895143 14.4261446286 9.99233895143 123.028461823 c 0
189.985790583 183.061063126 m 0
 189.985790583 150.432965956 241.341734271 120.981014763 277 119 c 0
 278.687051929 118.926649916 280.357963153 118.890961476 282.012733673 118.890961476 c 0
 302.91786265 118.890961476 321.246951426 124.586800671 337 132 c 1
 342 186 348 246 352 295 c 1
 312.61100832 305.567778256 268.607225845 317.05851467 249.249504069 317.05851467 c 0
 248.457773955 317.05851467 247.707271945 317.039292886 247 317 c 0
 212.423649086 316.01210426 189.985790583 216.362867967 189.985790583 183.061063126 c 0
EndSplineSet
Validated: 1
EndChar

StartChar: p
Encoding: 112 112 7
Width: 578
VWidth: 0
Flags: W
HStem: -192.201 75.2013<36 102 219 294> -2.44929 92.7292<278.464 382.658> 273.15 158.843<312.472 478.811>
VStem: 117.705 94.2955<8.26483 49 96.9768 236.749> 396.901 172.946<114.018 258.884>
LayerCount: 2
Fore
SplineSet
11 417 m 0
 35.1694188601 421.394439793 89.5124331766 427.901031267 138.559599959 427.901031267 c 0
 178.801933719 427.901031267 215.479149223 423.520850777 229 410 c 0
 232.876275643 406.123724357 234.348469228 393.232140997 234.348469228 374.586859575 c 0
 234.348469228 369.18163074 234.224744871 363.292856399 234 357 c 1
 263 380 296 401 332 411 c 0
 377.49908204 423.207070791 417.251122532 431.993283518 450.496873173 431.993283518 c 0
 507.126063861 431.993283518 544.877869666 406.50091796 560 329 c 0
 566.657772294 295.010320394 569.846825539 263.077314915 569.846825539 233.469892989 c 0
 569.846825539 94.0895539155 499.172183369 6.24795465951 387 -2 c 0
 383.227164245 -2.30426094801 379.395080666 -2.4492933699 375.517044027 -2.4492933699 c 0
 315.666286948 -2.4492933699 244.870173364 32.0953394128 212 49 c 1
 212 48 212 46 212 45 c 2
 219 -118 l 1
 294 -118 l 1
 306 -188 l 1
 306 -188 190 -191 149 -192 c 0
 143.275564011 -192.13962039 137.668091142 -192.201265367 132.123146605 -192.201265367 c 0
 97.9536587558 -192.201265367 66.1586008914 -189.86037961 24 -189 c 1
 36 -117 l 1
 102 -117 l 1
 116 109 l 2
 117.136363636 128.318181818 117.704545455 149.444214876 117.704545455 170.74633734 c 0
 117.704545455 243.173553719 111.136363636 317.636363636 98 330 c 0
 81 346 30 367 23 372 c 0
 18.744204265 375.404636588 10.1415771688 404.890261343 10.1415771688 414.208808346 c 0
 10.1415771688 415.838327913 10.404636588 416.851159147 11 417 c 0
213 99 m 1
 247.078902644 95.2134552618 301.804411607 90.2798768392 336.78388932 90.2798768392 c 0
 347.993589514 90.2798768392 357.175414744 90.7865447382 363 92 c 0
 389.048304459 97.3628862121 396.901159851 157.899069592 396.901159851 200.760716441 c 0
 396.901159851 213.844975598 396.169366991 225.282177857 395 233 c 0
 390.759612104 260.986560111 349.838209618 273.149937457 315.543489989 273.149937457 c 0
 309.400022743 273.149937457 303.469207152 272.759612104 298 272 c 0
 266 267 241 253 224 239 c 1
 219 191 215 141 213 99 c 1
EndSplineSet
Validated: 1
EndChar

StartChar: q
Encoding: 113 113 8
Width: 614
VWidth: 0
Flags: W
HStem: -192 74<320 395 512 578> -4.96959 117.269<199.491 288.855> 305.198 103.543<260.909 315.032> 407.901 20G<455.319 499.964>
VStem: 9.96577 209.818<131.64 236.211>
LayerCount: 2
Fore
SplineSet
9.96576645011 161.860642915 m 0xd8
 9.96576645011 280.87539897 186.763853687 408.740685814 260.90945753 408.740685814 c 0xe8
 264.142539788 408.740685814 267.180443464 408.4975688 270 408 c 0
 304 402 348 365 382 329 c 1
 380.757359313 346.811183182 380.029437252 362.735064736 380.029437252 375.705627485 c 0
 380.029437252 394.048773235 381.485281374 406.485281374 385 410 c 0
 398.520850777 423.520850777 435.198066281 427.901031267 475.440400041 427.901031267 c 0
 524.487566823 427.901031267 578.83058114 421.394439793 603 417 c 0
 603.595363412 416.851159147 603.858422831 415.838327913 603.858422831 414.208808346 c 0
 603.858422831 404.890261343 595.255795735 375.404636588 591 372 c 0
 584 367 533 346 516 330 c 0
 502.863636364 317.636363636 496.295454545 243.173553719 496.295454545 170.74633734 c 0
 496.295454545 149.444214876 496.863636364 128.318181818 498 109 c 2
 512 -117 l 1
 578 -117 l 1
 590 -189 l 1
 547.841399109 -189.86037961 516.046341244 -192.201265367 481.876853395 -192.201265367 c 0
 476.331908858 -192.201265367 470.724435989 -192.13962039 465 -192 c 0
 424 -191 308 -188 308 -188 c 1
 320 -118 l 1
 395 -118 l 1
 402 45 l 2
 402 52 402 59 402 67 c 1
 357.515154159 44.7575770793 254.625229043 -4.96958902939 201.586097481 -4.96958902939 c 0
 197.394991041 -4.96958902939 193.515154159 -4.65909140474 190 -4 c 0
 129.288619946 7.94322230566 9.96576645011 34.8294983469 9.96576645011 161.860642915 c 0xd8
221 187 m 0
 220.178584147 183.244956102 219.784034501 179.462372449 219.784034501 175.697492224 c 0
 219.784034501 147.378548535 242.107079263 120.061239026 273 113 c 0
 275.064781796 112.523511893 277.381831277 112.299291471 279.914085989 112.299291471 c 0
 309.268310819 112.299291471 367.541269903 142.429464321 397 159 c 1
 395 182 393 207 391 231 c 1
 357 264 315 302 295 305 c 0
 294.068529186 305.133067259 293.139183199 305.19814004 292.212376733 305.19814004 c 0
 258.314445978 305.19814004 227.813705837 218.148369541 221 187 c 0
EndSplineSet
Validated: 1
EndChar

StartChar: n
Encoding: 110 110 9
Width: 601
VWidth: 0
Flags: W
HStem: -16.9211 56.5381<499.417 580.975> -11 74<36 108 206 256> 210.184 200.093<310.729 433.212> 359 47<25 78.7295>
VStem: 108 98<64 186.235> 115.804 409.615<207.258 337.127> 437.396 75.9503<59.1293 206.17>
LayerCount: 2
Fore
SplineSet
15 359 m 1x54
 25 406 l 1x54
 43.2175583411 407.844816035 61.7010031042 408.785618234 79.567413527 408.785618234 c 0
 139.178258671 408.785618234 191.920234073 398.312541875 205 376 c 0
 207 373 209 365 210 355 c 1
 269.151101357 377.750423599 365.108017749 410.277391816 431.144589753 410.277391816 c 0
 452.187590203 410.277391816 470.192415025 406.974534041 483 399 c 0
 516.441158372 377.681261538 525.419262016 319.667940985 525.419262016 257.317742726 c 0x24
 525.419262016 185.017024535 513.346846919 106.884719858 513.346846919 73.3744125429 c 0
 513.346846919 66.6506012235 513.832882848 61.7232733547 515 59 c 0
 519.897712198 47.1055560896 529.690849862 39.6169950977 548.832170207 39.6169950977 c 0
 557.04836639 39.6169950977 566.986926848 40.996731712 579 44 c 1
 587 0 l 1
 587 0 545.120166568 -16.9211448212 505.107849728 -16.9211448212 c 0xa2
 483.601229427 -16.9211448212 462.634146341 -12.0325203252 449 3 c 0
 438.700260397 14.5357083551 437.396497918 48.6462272264 437.396497918 85.8213031097 c 0
 437.396497918 98.4229975152 437.546312 111.376837195 437.546312 123.922856169 c 0
 437.546312 164.200394281 436.002243394 200.274701693 423 207 c 0
 418.721834483 209.232086357 410.56861713 210.18402166 399.782419307 210.18402166 c 0
 352.580549822 210.18402166 254.955611395 191.95392084 211 183 c 1
 206 64 l 1
 256 65 l 1
 264 -12 l 1
 23 -11 l 1
 36 62 l 1
 108 63 l 1x6a
 115 201 l 2
 115.542372881 212.86440678 115.804366561 223.827923011 115.804366561 233.959416493 c 0
 115.804366561 373.267451882 66.2711864407 355.271186441 15 359 c 1x54
EndSplineSet
Validated: 1
EndChar

StartChar: m
Encoding: 109 109 10
Width: 866
VWidth: 0
Flags: W
HStem: -9 74<36 108 206 256 360 401.152 787.963 850> -1 64.6863<644 699.612> 0 73<494.101 541> 229.172 188.069<294.896 393.773> 238.72 177.066<561.981 696> 359 61<23 94.4842>
VStem: 108 98<64 201> 115.804 95.1956<77.2231 213.487> 402.371 95.4336<71 200.494> 704.042 72.6974<73.3013 231.248>
LayerCount: 2
Fore
SplineSet
15 359 m 1x85c0
 23 420 l 1x85c0
 51.3862027946 422.874552182 79.2559649488 424.845333243 104.104132689 424.845333243 c 0
 148.409464122 424.845333243 183.108423386 418.579748341 194 400 c 0
 197 394 202 370 206 337 c 1
 235.910843268 361.783270136 308.911363395 417.240547528 373.822101389 417.240547528 c 0x12c0
 384.866287482 417.240547528 395.676282057 415.635111952 406 412 c 0
 435 402 455 378 469 346 c 1
 500.732155868 371.090541849 567.317476597 415.785988933 637.811417634 415.785988933 c 0
 662.843273116 415.785988933 688.367968642 410.150315886 713 396 c 0
 766.56543566 365.723884192 776.739477786 235.406499957 776.739477786 141.660053089 c 0
 776.739477786 114.647567371 775.894757353 90.6714577222 775 73 c 1x2ac0
 778.957809879 73.1583123952 782.940682573 73.241436347 786.960521344 73.241436347 c 0
 808.332495807 73.241436347 830.749371855 70.8918132338 856 65 c 1
 850 -9 l 1x82c0
 644 -1 l 1x42c0
 643 67 l 1
 654.129942315 64.6568542495 664.916738879 63.686291501 675.963420074 63.686291501 c 0
 683.774603256 63.686291501 691.715728753 64.1715728753 700 65 c 1
 701.73789207 85.8547048444 704.04208455 117.469117461 704.04208455 147.787167717 c 0
 704.04208455 187.250321423 700.13817456 224.517095264 686 233 c 0
 679.4 237 670.16 238.72 659.144 238.72 c 0x8ac0
 615.08 238.72 542.6 211.2 497 192 c 1
 497.55848156 179.713405682 497.805061467 167.504786778 497.805061467 155.548334609 c 0
 497.805061467 124.687071643 496.16227766 95.5058134819 494 71 c 1
 541 73 l 1
 547 0 l 1
 515.128624969 -7.77350610524 492.472428005 -9.95747797242 471.750551627 -9.95747797242 c 0
 445.17285895 -9.95747797242 421.777200503 -6.36475746159 386.201598932 -6.36475746159 c 0
 378.150833642 -6.36475746159 369.476311849 -6.54874705481 360 -7 c 1
 352 66 l 1
 400 68 l 1
 401.35881515 87.0234120996 402.37143431 108.93179078 402.37143431 130.157812011 c 0
 402.37143431 171.4157018 398.545628038 210.095556812 386 220 c 0
 378.109331974 226.628161142 362.846767149 229.171892975 344.079770612 229.171892975 c 0
 303.387300361 229.171892975 246.218663949 217.212479348 212 209 c 1
 212 201 211 193 211 185 c 2x31c0
 206 64 l 1
 256 65 l 1
 264 -12 l 1
 23 -11 l 1
 36 62 l 1
 108 63 l 1x92c0
 115 201 l 2
 115.542372881 212.86440678 115.804366561 223.827923011 115.804366561 233.959416493 c 0
 115.804366561 373.267451882 66.2711864407 355.271186441 15 359 c 1x85c0
EndSplineSet
Validated: 1
EndChar

StartChar: r
Encoding: 114 114 11
Width: 478
VWidth: 0
Flags: W
HStem: -6 74<24 85 171 235> 223.126 192.792<268.629 362.966> 334.424 69.7612<14 79.673>
VStem: 90 83<68 194.618> 376 76<155 210.414> 376 63<415 452>
LayerCount: 2
Fore
SplineSet
11 333 m 1xb8
 14 400 l 1
 22.7999155405 402.678235164 37.1625220331 404.185377497 53.2232502235 404.185377497 c 0xb8
 79.1398281426 404.185377497 109.478150705 400.260924648 128 391 c 0
 146 382 157 368 163 345 c 1
 218.32633763 374.507380069 303.412432828 415.918663166 361.806912052 415.918663166 c 0
 366.739754019 415.918663166 371.482126376 415.623154983 376 415 c 1
 376 452 l 1
 439 460 l 1xd4
 452 150 l 1
 376 155 l 1
 375.082075126 206.862755388 347.201395867 223.126249127 310.436905218 223.126249127 c 0xd8
 267.097910964 223.126249127 211.413666969 200.525939073 173 187 c 1
 171 67 l 1
 235 66 l 1
 239 -12 l 1
 16 -6 l 1
 24 69 l 1
 85 68 l 1
 90 220 l 2
 90.2832078272 228.213026988 90.4260539759 235.854581428 90.4260539759 242.962640225 c 0
 90.4260539759 320.141905543 73.585057183 334.424141444 36.7226565446 334.424141444 c 0
 29.0299992994 334.424141444 20.4654151858 333.802153829 11 333 c 1xb8
EndSplineSet
Validated: 1
EndChar

StartChar: s
Encoding: 115 115 12
Width: 456
VWidth: 0
Flags: W
HStem: -13.3929 133.355<85.4002 318.872> 286.16 128.348<145.942 342.547> 421 20G<348.889 413>
VStem: 319.134 122.574<61.4376 164.728>
LayerCount: 2
Fore
SplineSet
15 -40 m 1
 50 138 l 1
 50 138 245.571334648 119.961867193 297.227094186 119.961867193 c 0
 298.586456279 119.961867193 299.846153846 119.974358974 301 120 c 0
 310.721029769 120 319.134122933 131.771429453 319.134122933 143.534686697 c 0
 319.134122933 152.342848109 314.417066864 161.146427525 302 165 c 0
 265 176 142 181 80 209 c 0
 54.8642194054 220.267763715 42.4998144632 246.936303952 42.4998144632 277.447652538 c 0
 42.4998144632 317.340253069 63.636413507 363.80202532 105 391 c 0
 132.110257597 408.9030003 177.535796323 414.508597557 223.877921132 414.508597557 c 0
 268.133703999 414.508597557 313.22540054 409.396371351 344 405 c 1
 355 441 l 1
 413 424 l 1
 359 283 l 1
 359 283 216.777777778 286.160493827 178.14951989 286.160493827 c 0
 173.320987654 286.160493827 170.111111111 286.111111111 169 286 c 0
 152.446957517 284.965434845 144.724096782 277.776500593 144.724096782 270.385047684 c 0
 144.724096782 263.487496422 151.449347017 256.413587112 164 254 c 0
 283 233 403 240 430 161 c 0
 438.006504495 137.890316571 441.708497187 117.860014663 441.708497187 100.487330897 c 0
 441.708497187 22.3878787077 366.891942695 -2.00162612375 272 -11 c 0
 253.844197456 -12.6945415707 235.746996365 -13.392858462 218.19072362 -13.392858462 c 0
 163.223600458 -13.392858462 113.558982677 -6.54753579652 84 -2 c 1
 80 -48 l 1
 15 -40 l 1
EndSplineSet
Validated: 1
EndChar

StartChar: e
Encoding: 101 101 13
Width: 449
VWidth: 0
Flags: W
HStem: -24.0526 78.9611<150.063 339.163> 130.421 52.1562<175 354.008> 246.967 183.913<182.88 346.859>
VStem: 356.255 79.1188<187.303 263.468>
LayerCount: 2
Fore
SplineSet
49 18 m 0
 25.1267663572 47.743700932 15.4979856745 106.435806267 15.4979856745 168.839977968 c 0
 15.4979856745 265.888628233 38.7854953255 371.915028036 68 392 c 0
 96.8 411.8 188.6 430.88 268.016 430.88 c 0
 320.96 430.88 368.4 422.4 388 400 c 0
 423.407889155 359.144743282 435.373465757 290.989578274 435.373465757 235.945547062 c 0
 435.373465757 189.942548525 427.015791363 153.097369194 417 149 c 0
 382.755708352 134.829948284 330.03591431 130.420539342 277.569936287 130.420539342 c 0
 241.173608246 130.420539342 204.89942603 132.542512929 175 135 c 1
 179 109 188 84 204 71 c 0
 218.554455446 58.8712871287 248.239780414 54.908440349 280.821443442 54.908440349 c 0
 342.261150868 54.908440349 414 69 414 69 c 1
 434 24 l 1
 434 24 292.614379085 -24.0526293306 177.24216623 -24.0526293306 c 0
 122.884104404 -24.0526293306 74.3006535948 -13.385620915 49 18 c 0
173 188 m 1
 210.420503974 185.288369277 259.311596183 182.576738555 296.863677018 182.576738555 c 0
 328.554211928 182.576738555 352.169304578 184.507913735 354 190 c 0
 355.575571099 194.726713297 356.254711205 199.591339055 356.254711205 204.249833369 c 0
 356.254711205 217.331551413 350.899238535 228.78778555 345 231 c 0
 317.545642325 242.513117735 287.738292698 246.967259613 260.874446875 246.967259613 c 0
 227.071841828 246.967259613 197.929694486 239.915004471 184 231 c 0
 179 228 174 211 173 188 c 1
EndSplineSet
Validated: 1
EndChar

StartChar: A
Encoding: 65 65 14
Width: 881
VWidth: 0
Flags: W
HStem: -12 46<237.667 275> -11 53<472 523> -3 81<33.5309 74.6667> 0 94<810.545 862> 101.085 208.452<258.075 427.515> 540 61<323.94 370.086> 542 70<349.818 369.388 553 612> 547 54<200 259.225>
VStem: 103 92<66 106.97>
LayerCount: 2
Fore
SplineSet
18 -3 m 1x2880
 35 78 l 1
 103 66 l 1
 120 122 148 215 168 282 c 0
 190 355 237 480 261 543 c 1
 223 545 194 547 194 547 c 1
 200 601 l 1x2980
 612 612 l 1
 618 544 l 1
 618 544 590 543 553 542 c 1
 634 410 722 198 780 83 c 1
 864 94 l 1
 862 0 l 1x1a80
 472 -11 l 1
 470 42 l 1x4880
 523 49 l 1
 517 67 511 90 502 115 c 1
 464 109 417 104 374 102 c 0
 359.301179399 101.360920843 345.056161207 101.084883614 331.3712845 101.084883614 c 0
 280.815871568 101.084883614 237.90499735 104.852105542 208 108 c 1
 203 86 199 66 195 49 c 1
 275 34 l 1
 276 -12 l 1x8880
 18 -3 l 1x2880
257 310 m 1
 264.751208926 309.677032961 272.971802538 309.536604412 281.548083999 309.536604412 c 0
 326.081132203 309.536604412 380.204560599 313.322967039 428 315 c 1
 402 396 377 491 365 539 c 1
 355 539 343 540 331 540 c 1x0c80
 311 482 276 376 257 310 c 1
EndSplineSet
Validated: 1
EndChar

StartChar: G
Encoding: 71 71 15
Width: 786
VWidth: 0
Flags: W
HStem: -9.41715 189.939<207.437 531.582> 240 49<428 551> 388.348 220.51<343.366 547.137>
VStem: 14.9504 95.937<226.63 315.489> 573 183<-110 5.09109>
LayerCount: 2
Fore
SplineSet
15 285 m 0
 19.0895457714 507.471289963 310.169531556 608.858035304 513.98177105 608.858035304 c 0
 559.356422825 608.858035304 600.405738615 603.832905669 633 594 c 1
 673 692 l 1
 771 634 l 1
 600 334 l 1
 531 346 l 1
 548 388 l 1
 537.469891463 388.198681293 524.778567397 388.348019766 510.453455851 388.348019766 c 0
 380.07534049 388.348019766 110.887309872 377.313497107 110.887309872 272.606860743 c 0
 110.887309872 200.760528501 203.405441227 180.521928884 307.558547263 180.521928884 c 0
 395.721191023 180.521928884 492.220458523 195.023171443 548 205 c 1
 549 222 551 233 551 233 c 2
 428 240 l 1
 428 289 l 1
 478 288 510 287 556 287 c 0
 602 287 745 299 745 299 c 1
 756 -110 l 1
 573 -120 l 1
 573 -120 564 -54 556 8 c 1
 507.00618 -0.83028151169 441.622430698 -9.41714823178 373.276856169 -9.41714823178 c 0
 203.276037707 -9.41714823178 14.950359672 43.7099321037 14.950359672 278.364857106 c 0
 14.950359672 280.560641237 14.9668500069 282.772320466 15 285 c 0
EndSplineSet
Validated: 1
EndChar

StartChar: C
Encoding: 67 67 16
Width: 716
VWidth: 0
Flags: W
HStem: -9.66558 201.163<206.467 486.91> 396.35 223.546<307.072 553.426>
VStem: 14.7681 72.9949<239.875 329.355> 549 67<342.433 363.373>
LayerCount: 2
Fore
SplineSet
15 285 m 0
 23.2110324008 531.330972025 274.812066449 619.896679826 469.200229031 619.896679826 c 0
 511.552287523 619.896679826 551.188512376 615.692560676 585 608 c 1
 595 682 l 1
 683 658 l 1
 616 329 l 1
 549 344 l 1
 555 389 l 1
 521.837740508 391.897673159 460.47979399 396.35025553 392.886879673 396.35025553 c 0
 253.568839687 396.35025553 87.762957334 377.434472203 87.762957334 286.999758969 c 0
 87.762957334 285.033817512 87.8413130646 283.03407799 88 281 c 0
 93.4666055947 211.921983849 178.211660195 191.497719891 276.325445616 191.497719891 c 0
 375.637946202 191.497719891 488.647840817 212.424103624 547 225 c 1
 537 264 l 1
 590 269 l 1
 701 -45 l 1
 622 -71 l 1
 600 16 l 1
 551.373392172 5.58001260822 464.503856003 -9.66558088333 372.326595833 -9.66558088333 c 0
 202.550275818 -9.66558088333 14.7680500421 42.053521247 14.7680500421 270.902049943 c 0
 14.7680500421 275.528625345 14.8447998898 280.227596612 15 285 c 0
EndSplineSet
Validated: 1
EndChar

StartChar: c
Encoding: 99 99 17
Width: 484
VWidth: 0
Flags: W
HStem: -4.74259 156.256<123.236 355.773> 269.382 140.165<169.727 346.765> 405 20G<399.194 477>
VStem: 14.9944 59.9162<112.393 246.909> 385 74<-9.7027 23.15>
LayerCount: 2
Fore
SplineSet
16 198 m 0xd8
 29.7262513026 352.039042396 174.292762898 409.547048309 294.937743095 409.547048309 c 0xd8
 332.501263942 409.547048309 367.745772501 403.972080294 396 394 c 1
 405 425 l 1xb8
 477 411 l 1
 407 214 l 1
 347 232 l 1
 351 246 l 1
 317.809842485 259.903984905 259.6750661 269.382311624 205.287610008 269.382311624 c 0
 137.609208022 269.382311624 74.9105790652 255.416185956 74.9105790652 214.168789116 c 0
 74.9105790652 163.819885734 161.593567125 151.513393983 245.290180296 151.513393983 c 0
 289.397280871 151.513393983 332.675016689 154.931106398 362 158 c 1
 360 174 l 1
 419 170 l 1
 459 -8 l 1
 385 -26 l 1
 378 27 l 1
 339.588597233 6.57488900504 289.188581071 -4.74259320905 238.217527586 -4.74259320905 c 0
 127.942376352 -4.74259320905 14.9943873486 48.2308161725 14.9943873486 176.555859472 c 0
 14.9943873486 183.48315087 15.3235287981 190.630024274 16 198 c 0xd8
EndSplineSet
Validated: 1
EndChar

StartChar: agrave
Encoding: 224 224 18
Width: 468
VWidth: 0
Flags: W
HStem: -23.2846 62.0362<90.9851 304.956 392.26 457> 106 105<172.15 330> 253.633 155.91<153 350.633>
VStem: 57.1074 396.507<256.972 398.26> 58 55<213 247>
LayerCount: 2
Fore
SplineSet
31 132 m 0xf0
 126 202 280 211 352 211 c 1
 353.392304845 219.353829072 354.138438763 226.846096908 354.138438763 232.777062575 c 0
 354.138438763 239.625551823 353.143593539 244.392304845 351 246 c 0
 343.898979486 251.917517095 289.524997396 253.632993162 231.600154321 253.632993162 c 0
 191.637923913 253.632993162 149.985628623 252.816496581 121 252 c 1
 113 212 l 1
 58 213 l 1xe8
 58 213 57.1074380165 229.661157025 57.1074380165 255.842975207 c 0
 57.1074380165 277.661157025 57.7272727273 306.090909091 60 337 c 0
 64 390 81 457 81 457 c 1
 162 450 l 1
 153 405 l 1
 190.72513013 407.095840563 247.250364265 409.543084939 301.07030053 409.543084939 c 0
 375.647383629 409.543084939 445.030017351 404.844124736 452 388 c 0
 453.106589772 385.196639243 453.614515093 381.021792651 453.614515093 375.687854032 c 0
 453.614515093 315.972879026 389.953971085 110.983734648 389.953971085 58.741905681 c 0
 389.953971085 52.3961843785 390.893252195 48.3041772128 393 47 c 0
 403.92 40.24 422.1408 38.6176 437.1168 38.6176 c 0
 450.9408 38.6176 462 40 462 40 c 1
 457 -17 l 1
 457 -17 426.951455138 -23.6774544137 395.031755468 -23.6774544137 c 0
 366.437024514 -23.6774544137 336.340659341 -18.3186813187 325 2 c 1
 278.157098177 -6.07636238331 167.391119594 -23.2845928751 99.116062597 -23.2845928751 c 0
 82.8542281611 -23.2845928751 69.0029156068 -22.30836514 59 -20 c 0
 32.2760265666 -13.4819576992 14.8987257289 39.3445988264 14.8987257289 81.7114354536 c 0
 14.8987257289 104.343926342 19.8577353627 123.991497292 31 132 c 0xf0
75 588 m 1
 183 716 l 1
 183 716 260 665 320 601 c 0
 361 557 389 505 389 505 c 1
 315 463 l 1
 75 588 l 1
153 62 m 0
 153 44.6766959032 172.223892135 38.7516287359 198.742973077 38.7516287359 c 0
 236.518866889 38.7516287359 289.097738796 50.7744346989 322 59 c 1
 324 74 327 90 330 106 c 1
 276 106 153 103 153 62 c 0
EndSplineSet
Validated: 1
EndChar

StartChar: i
Encoding: 105 105 19
Width: 357
VWidth: 0
Flags: W
HStem: -10 75<29 92 294 334> 342 69<18 67> 527.83 185.218<114.489 246.888>
VStem: 72 204<570.345 678.414> 92 203.414<65 249.9> 102 193<143.1 330>
LayerCount: 2
Fore
SplineSet
15 411 m 1xe4
 284 405 l 1
 284 405 293 310 295 214 c 0xe4
 295.292893219 197.597979746 295.414213562 181.110173055 295.414213562 165.089357775 c 0
 295.414213562 126.411688245 294.707106781 90.4558441227 294 65 c 1
 334 66 l 1
 342 -10 l 1
 23 -4 l 1
 29 62 l 1
 92 63 l 1xe8
 102 330 l 1
 18 342 l 1
 15 411 l 1xe4
72 627 m 0xf0
 72 673 114 711 179 713 c 0
 180.315831402 713.032093449 181.61441048 713.047964564 182.895952099 713.047964564 c 0
 261.477539272 713.047964564 276 653.374177748 276 615 c 0
 276 564.010377072 243.604856667 527.829962524 174.362235382 527.829962524 c 0
 171.632194048 527.829962524 168.844873214 527.886205071 166 528 c 0
 118 530 72 581 72 627 c 0xf0
EndSplineSet
Validated: 1
EndChar

StartChar: eacute
Encoding: 233 233 20
Width: 484
VWidth: 0
Flags: W
HStem: -17.102 78.7372<224.518 333.694> 353.239 64.7901<240.082 328.557>
VStem: 14.549 192.064<174.082 272.922> 343.126 81.874<283.624 337.875>
LayerCount: 2
Fore
SplineSet
37 95 m 0
 20.7129604922 122.768067358 14.5490080959 151.605474903 14.5490080959 179.285209359 c 0
 14.5490080959 255.274640868 61.005009715 322.53901101 72 335 c 0
 96 363 185 416 273 418 c 0
 273.870297333 418.019779485 274.738247298 418.029582655 275.603811203 418.029582655 c 0
 362.259627382 418.029582655 425 319.772535924 425 297 c 0
 425 268 287 138 224 81 c 1
 235 72 249 62 261 62 c 0
 266.054794521 61.7534246575 271.008256709 61.6352036029 275.860178347 61.6352036029 c 0
 389.071683243 61.6352036029 447 126 447 126 c 1
 470 94 l 1
 470 94 363.728541164 -17.1019796917 231.900736945 -17.1019796917 c 0
 229.60807948 -17.1019796917 227.307692308 -17.0683760684 225 -17 c 0
 171 -15 92 2 37 95 c 0
132 506 m 1
 132 506 177 562 217 600 c 0
 283 661 351 709 351 709 c 1
 440 578 l 1
 200 462 l 1
 132 506 l 1
207 173 m 1
 259.246809873 222.232570842 343.126031655 300.850410577 343.126031655 307.147139886 c 0
 343.126031655 316.817020007 321.650056735 348.210928635 291 353 c 0
 289.748272027 353.156465997 288.349654405 353.239487169 286.82713037 353.239487169 c 0
 268.888249784 353.239487169 233.748272027 341.714214071 219 303 c 0
 208.822680548 275.599524553 206.612886575 231.038224999 206.612886575 197.624947906 c 0
 206.612886575 188.357772226 206.782870727 179.948136735 207 173 c 1
EndSplineSet
Validated: 1
EndChar

StartChar: edieresis
Encoding: 235 235 21
Width: 484
VWidth: 0
Flags: W
HStem: -8.23791 129.259<215.228 350.833> 304.345 118.001<149.257 295.875> 487.896 137.167<75.148 185.328> 488.944 143.16<272.184 378.616>
VStem: 14.7796 64.0887<163.844 263.918> 51 151<512.125 605.375> 252 151<510.499 607.875>
LayerCount: 2
Fore
SplineSet
23 254 m 0xca
 53.4036744363 363.670397074 152.192856928 422.346428227 245.431519606 422.346428227 c 0
 323.927530674 422.346428227 398.489519952 380.758830504 425 293 c 1
 214 125 l 1
 240.176470588 122.058823529 267.39100346 121.020761246 292.768573173 121.020761246 c 0
 353.674740484 121.020761246 404 127 404 127 c 1
 444 63 l 1
 371.984900243 12.94072334 301.340988164 -8.23791286429 238.816925468 -8.23791286429 c 0
 109.405496209 -8.23791286429 14.7796158815 82.4916624316 14.7796158815 195.657200614 c 0
 14.7796158815 214.583730966 17.4264307017 234.137825773 23 254 c 0xca
51 561 m 0xe6
 51 595 82 624 130 625 c 0
 131.268148085 625.042271603 132.51485351 625.063100545 133.740456179 625.063100545 c 0
 190.501898569 625.063100545 202 580.387061759 202 552 c 0
 202 514.358701677 176.848508768 487.895843902 125.646442937 487.895843902 c 0
 123.798251301 487.895843902 121.91611775 487.930322991 120 488 c 0
 85 489 51 527 51 561 c 0xe6
84 239 m 0
 80.502285087 228.506855261 78.8683450759 218.921703423 78.8683450759 210.171415202 c 0xca
 78.8683450759 178.894252641 99.7442872826 158.283677905 131 145 c 1
 297 286 l 1
 272.118967968 298.751528916 243.852420088 304.345110041 216.171440979 304.345110041 c 0
 154.849748257 304.345110041 96.4017677928 276.894290478 84 239 c 0
252 568 m 0
 252 605.641298323 277.151491232 632.104156098 328.353557063 632.104156098 c 0
 330.201748699 632.104156098 332.08388225 632.069677009 334 632 c 0
 369 631 403 593 403 559 c 0
 403 525 374 490 326 489 c 0
 324.873818213 488.962460607 323.763842296 488.943945495 322.669860645 488.943945495 c 0xd2
 265.479380721 488.943945495 252 539.544321197 252 568 c 0
EndSplineSet
Validated: 1
EndChar

StartChar: t
Encoding: 116 116 22
Width: 426
VWidth: 0
Flags: W
HStem: -14.0121 234.146<195.19 303.787> 406 96<27.625 109> 634 21G<64.9524 95.968>
VStem: 92.6428 101.529<99.1627 363.389> 121.41 102.778<512.163 694.554>
LayerCount: 2
Fore
SplineSet
15 494 m 1xf0
 116 502 l 1
 119.397247359 550.920361967 121.409539964 591.069343826 121.409539964 613.036877814 c 0
 121.409539964 623.400716358 120.961651585 629.717797887 120 631 c 0
 116 635.8 106.24 637.24 95.968 637.24 c 0
 80.56 637.24 64 634 64 634 c 1
 66 676 l 1
 116.229800653 692.43884385 183.974870843 723.890775874 212.106087374 723.890775874 c 0
 214.777639102 723.890775874 217.091920261 723.60711628 219 723 c 0
 222.673098338 721.898070499 224.187532452 707.709239137 224.187532452 684.744892039 c 0xe8
 224.187532452 645.188868096 219.694211496 579.59591828 214 510 c 1
 411 526 l 1
 386 382 l 1
 386 382 298 404 205 407 c 1
 199.0286241 336.836333179 194.171539767 273.915561542 194.171539767 244.021368589 c 0
 194.171539767 233.865571784 194.732109937 227.521468075 196 226 c 0
 199.311258278 221.860927152 206.816411561 220.134029209 217.035987733 220.134029209 c 0
 268.542651638 220.134029209 389 264 389 264 c 1
 388.849901182 259.046739016 388.778656157 254.138537342 388.778656157 249.263559117 c 0
 388.778656157 189.181620298 399.600395271 134.14614611 407 62 c 1
 407 62 300.020001877 -14.0121039293 206.265193241 -14.0121039293 c 0
 163.149555936 -14.0121039293 122.830866808 2.06342494715 97 49 c 0
 93.9194594399 54.3209336948 92.6427518821 72.4255534493 92.6427518821 99.1627463883 c 0
 92.6427518821 167.898772058 101.08054056 293.687666125 109 406 c 1
 57 404 21 401 21 401 c 1
 15 494 l 1xf0
EndSplineSet
Validated: 1
EndChar

StartChar: egrave
Encoding: 232 232 23
Width: 524
VWidth: 0
Flags: W
HStem: -23.1882 72.9839<245.78 401.793> 365.441 50.6061<223.209 363.46>
VStem: 389.18 120.59<204.835 309.909>
LayerCount: 2
Fore
SplineSet
66 587 m 1
 174 715 l 1
 174 715 251 664 311 600 c 0
 352 556 380 504 380 504 c 1
 306 462 l 1
 66 587 l 1
71 333 m 0
 102.60111661 367.290573342 203.821566822 416.047501719 300.495575867 416.047501719 c 0
 347.603778105 416.047501719 393.632424333 404.470130964 430 374 c 0
 494.211260377 320.062541283 509.770106436 257.054293456 509.770106436 216.215584956 c 0
 509.770106436 193.453753209 504.936761358 177.578873962 501 174 c 0
 487 161 317 141 206 129 c 1
 222 75 261 53 326 50 c 0
 329.23739744 49.8622384068 332.536474214 49.7956452757 335.883504329 49.7956452757 c 0
 381.128103232 49.7956452757 435.135304695 61.9643311524 464 75 c 1
 492 34 l 1
 492 34 384.893239704 -23.1882249545 265.149943225 -23.1882249545 c 0
 212.889097728 -23.1882249545 158.221238938 -12.2949852507 109 19 c 0
 37.9443826032 64.2583550298 15.0242546565 123.85494096 15.0242546565 179.619864941 c 0
 15.0242546565 247.069591481 48.5559255622 308.913676213 71 333 c 0
202 285 m 1
 282 286 382 289 387 295 c 0
 388.487507803 296.859384753 389.179833923 299.548524306 389.179833923 302.797422808 c 0
 389.179833923 317.021500224 375.909353542 341.975015605 358 355 c 0
 350.6875 360.0625 326.2890625 365.44140625 298.509033203 365.44140625 c 0
 276.90234375 365.44140625 253.25 362.1875 234 353 c 0
 217 345 207 321 202 285 c 1
EndSplineSet
Validated: 1
EndChar

StartChar: aacute
Encoding: 225 225 24
Width: 567
VWidth: 0
Flags: W
HStem: -25.5167 80.7701<73.1456 233.929> -22.5245 64.1421<402.267 547.529> 140.124 147.876<192.152 327> 339 65<130 239.654> 341.032 70.3452<126.547 457.18>
VStem: 14.9481 153.938<57.921 117.846> 60.4852 56.5148<311.002 339> 355.638 188.961<288.976 381.474>
LayerCount: 2
Fore
SplineSet
35 209 m 0xa5
 128 278 279 288 353 288 c 1
 354.605551275 301.379593962 355.63825924 312.754236337 355.63825924 320.89762138 c 0
 355.63825924 327.970290475 354.859264966 332.605551275 353 334 c 0
 345.929081607 339.439167995 296.256413407 341.032344688 241.797097767 341.032344688 c 0xad
 196.132064074 341.032344688 147.101491234 339.912166401 117 339 c 1
 110 301 l 1
 62 311 l 1
 62 311 60.4852071006 313.650887574 60.4852071006 331.53709604 c 0
 60.4852071006 342.715976331 61.0769230769 359.846153846 63 386 c 0
 67 439 73 457 73 457 c 1
 140 453 l 1
 130 404 l 1x33
 178.135571183 406.533451115 280.185488601 411.377517068 370.847029387 411.377517068 c 0
 459.114421256 411.377517068 536.586972899 406.785912865 543 391 c 0
 544.095716371 388.224185194 544.599139522 384.103704698 544.599139522 378.844752665 c 0
 544.599139522 319.263878979 479.981885409 113.553641797 479.981885409 61.5607729217 c 0
 479.981885409 55.3183049745 480.913365502 51.291726118 483 50 c 0
 493.92 43.24 512.1408 41.6176 527.1168 41.6176 c 0
 540.9408 41.6176 552 43 552 43 c 1
 547 -14 l 1
 547 -14 488.394380853 -22.5244536941 429.754388909 -22.5244536941 c 0x6b
 374.779396462 -22.5244536941 319.774193548 -15.0322580645 313 14 c 1
 260.867209851 1.18046143885 142.998192134 -25.5167251645 78.6205378843 -25.5167251645 c 0
 67.6706123511 -25.5167251645 58.2682047962 -24.7443691511 51 -23 c 0
 27.2877853706 -17.2165330172 14.9480574571 51.78458071 14.9480574571 113.39473376 c 0
 14.9480574571 158.312642915 21.5070943449 199.30197406 35 209 c 0xa5
168.885708138 84.8229078213 m 0
 168.885708138 62.7759174449 186.263698776 55.2533925623 210.066149195 55.2533925623 c 0
 243.096087475 55.2533925623 288.497139517 69.7389702261 317 80 c 1
 320 98 323 119 327 140 c 1
 323.325290702 140.076556444 319.304788949 140.123808442 315.011631019 140.123808442 c 0
 262.259332148 140.123808442 168.885708138 133.762659356 168.885708138 84.8229078213 c 0
226 504 m 1
 226 504 254 556 295 600 c 0
 355 664 432 715 432 715 c 1
 540 587 l 1
 300 462 l 1
 226 504 l 1
EndSplineSet
Validated: 1
EndChar

StartChar: j
Encoding: 106 106 25
Width: 353
VWidth: 0
Flags: W
HStem: -192.974 264.209<46.2574 200.873> 408 20G<68.4706 279> 527.953 185.222<101.734 233.511>
VStem: 72 204<388.333 414 563.082 671.381> 210.043 120.566<16.9235 223.714>
LayerCount: 2
Fore
SplineSet
-40 -170 m 1xe8
 50 78 l 1
 50 78 89.3002191381 71.2352081812 128.408899769 71.2352081812 c 0
 158.205989774 71.2352081812 187.891891892 75.1621621622 200 89 c 0
 207.326131189 97.097302893 210.04329245 120.656956513 210.04329245 151.251813159 c 0xe8
 210.04329245 200.003375692 203.14414148 266.618039868 197 317 c 1
 57 343 l 1
 72 428 l 1xf0
 279 414 l 1
 279 414 318 168 328 98 c 0
 328.995222334 91.282249243 330.609486853 74.0407813535 330.609486853 51.2812837691 c 0
 330.609486853 -17.4342460791 315.894524385 -136.449834511 225 -168 c 0
 170.341614907 -186.788819876 122.101770765 -192.973959338 82.2738032737 -192.973959338 c 0
 5.51444774507 -192.973959338 -40 -170 -40 -170 c 1xe8
72 627 m 0xf0
 72 677.938931773 104.330764314 713.174349451 173.431361937 713.174349451 c 0
 176.227279348 713.174349451 179.083394019 713.116664239 182 713 c 0
 230 711 276 661 276 615 c 0
 276 569 234 530 169 528 c 0
 167.704846049 527.968410879 166.426406464 527.952787719 165.164476351 527.952787719 c 0
 86.5299052108 527.952787719 72 588.615987855 72 627 c 0xf0
EndSplineSet
Validated: 1
EndChar

StartChar: o
Encoding: 111 111 26
Width: 486
VWidth: 0
Flags: W
HStem: -18.9067 138.742<206.018 369.097> 278.182 135.996<112.524 287.669>
VStem: 14.9921 78.9115<188.345 269.771> 401.259 70.1549<137.485 220>
LayerCount: 2
Fore
SplineSet
222.104850428 414.178275416 m 0
 226.002212152 414.178275416 229.96693583 414.119321425 234 414 c 0
 365.287626258 410.138599228 471.413925644 354.09074272 471.413925644 213.470441473 c 0
 471.413925644 208.423085267 471.277198455 203.266770653 471 198 c 0
 462.6 41.2 387.995555556 -18.9066666667 262.63437037 -18.9066666667 c 0
 253.68 -18.9066666667 244.466666667 -18.6 235 -18 c 0
 108.669572994 -10.0421778264 14.9920962006 89.9375949486 14.9920962006 213.040659283 c 0
 14.9920962006 314.999583727 62.3204236046 414.178275416 222.104850428 414.178275416 c 0
96 246 m 0
 94.5797737298 240.413776671 93.9036120848 235.114421631 93.9036120848 230.07732005 c 0
 93.9036120848 181.91407933 155.722404345 157.727637968 220 136 c 0
 253.008876173 124.642107123 284.25405681 119.835083379 311.142130823 119.835083379 c 0
 360.009161896 119.835083379 394.484539067 135.712827029 399 157 c 0
 400.518229047 163.890424135 401.259025502 170.248920707 401.259025502 176.13761186 c 0
 401.259025502 220.67147399 358.89062572 238.335736995 290 256 c 0
 247.881598393 266.799590156 198.473750064 278.182336049 159.882753536 278.182336049 c 0
 127.00622959 278.182336049 101.980266399 269.921065595 96 246 c 0
EndSplineSet
Validated: 1
EndChar

StartChar: f
Encoding: 102 102 27
Width: 442
VWidth: 0
Flags: W
HStem: -11 78<37.6 104 209 297> -4 66<21 104 209 286> 298 118<236.192 345> 326 92<23 89 191 318.282> 535.217 202.922<208.425 307.947>
VStem: 82.0663 100.852<418 512.569> 93 108<159.273 322.504> 104 105<67 230.625>
LayerCount: 2
Fore
SplineSet
15 -4 m 1x49
 21 62 l 1
 104 64 l 1x49
 93 326 l 1x5a
 54 326 21 326 21 326 c 2
 23 418 l 1
 89 418 l 1
 87 451 l 2
 86.3698240502 466.754398746 82.0662721187 500.478555672 82.0662721187 539.471950258 c 0
 82.0662721187 624.232547225 102.40074751 733.890527849 225 738 c 0
 227.84510858 738.093282249 230.664112426 738.138705819 233.456402761 738.138705819 c 0
 290.531673077 738.138705819 336.445874852 719.160459763 366 702 c 1
 376 736 l 1
 438 706 l 1
 340 469 l 1
 301 486 l 1
 310 517 l 1
 297.328382568 526.654565662 280.287516474 535.216819159 259.756218345 535.216819159 c 0
 246.262084201 535.216819159 231.26017549 531.518151506 215 522 c 0
 191.356191038 507.813714623 182.917989976 468.582898585 182.917989976 424.609772406 c 0x5c
 182.917989976 422.087507075 182.945752358 419.549639151 183 417 c 1
 353 416 l 1
 345 298 l 2
 344 298 249 322 191 324 c 1
 195 292 200 266 201 254 c 2x2a
 209 67 l 1
 297 70 l 1
 312 -11 l 1xa9
 15 -4 l 1x49
EndSplineSet
Validated: 1
EndChar

StartChar: O
Encoding: 79 79 28
Width: 758
VWidth: 0
Flags: W
HStem: -40.0131 203.7<335.272 495.98> 447.719 207.037<211.373 392.168>
VStem: 14.7037 90.9354<289.344 417.99> 656.345 84.9641<210.351 320.99>
LayerCount: 2
Fore
SplineSet
15 376 m 0
 18.7333333333 480.533333333 113.062222222 654.755555556 332.134222222 654.755555556 c 0
 347.782222222 654.755555556 364.066666667 653.866666667 381 652 c 0
 595.319485244 628.619692519 741.309123249 516.030973364 741.309123249 321.630013084 c 0
 741.309123249 316.477436676 741.206564173 311.26738641 741 306 c 0
 735 154 617 -38 371 -40 c 0
 369.927711674 -40.0087177913 368.857874344 -40.0130655892 367.790487596 -40.0130655892 c 0
 130.89025406 -40.0130655892 14.7037413733 174.155986016 14.7037413733 359.835731709 c 0
 14.7037413733 365.250050286 14.802531664 370.640145166 15 376 c 0
113 397 m 0
 108.046525433 380.938733979 105.639121446 366.02657946 105.639121446 352.135016183 c 0
 105.639121446 273.481118304 182.816004067 227.545472534 312 191 c 0
 373.144071911 173.702663867 436.553568226 163.687049031 492.008934525 163.687049031 c 0
 574.411833369 163.687049031 639.252063513 185.801463159 653 239 c 0
 655.256270524 247.922524343 656.345032801 256.445361179 656.345032801 264.594399593 c 0
 656.345032801 335.903406313 572.975165614 378.589521288 459 410 c 0
 390.032629772 429.006755575 301.306726686 447.718607674 230.617072265 447.718607674 c 0
 171.135225558 447.718607674 124.423746018 434.469886939 113 397 c 0
EndSplineSet
Validated: 1
EndChar

StartChar: M
Encoding: 77 77 29
Width: 1050
VWidth: 0
Flags: W
HStem: -28 78<255.364 319> -16 98<26.1429 91.5556> -12 76<695 781.1> 0 90<929 1018.4> 531 87<51 168> 536 80<292 423 645 718.321 841 981> 538 86<844.424 981>
LayerCount: 2
Fore
SplineSet
15 -16 m 1x40
 27 82 l 1
 110 73 l 1
 130 220 149 381 168 531 c 1
 109 529 51 528 51 528 c 1
 51 618 l 1x48
 423 612 l 1
 425 542 l 1
 425 542 351 542 292 538 c 1x02
 499 338 l 1
 719 536 l 1
 645 536 l 1
 643 616 l 1x04
 698 614 761 612 785 610 c 0
 786.411764706 609.882352941 788.342560554 609.826989619 790.726440057 609.826989619 c 0
 828.868512111 609.826989619 983 624 983 624 c 1
 981 538 l 1
 841 537 l 1
 846 489 855 404 869 328 c 0
 882 255 911 148 929 83 c 1
 1017 90 l 1
 1035 0 l 1x12
 677 -12 l 1
 695 64 l 1x20
 818 74 l 1
 783 264 l 1
 509 -16 l 1x40
 246 256 l 1
 219 61 l 1
 319 50 l 1
 319 -28 l 1x80
 15 -16 l 1x40
EndSplineSet
Validated: 1
EndChar

StartChar: N
Encoding: 78 78 30
Width: 760
VWidth: 0
Flags: W
HStem: -12 86<238 341> 0 66<23 108> 529 82<36 115> 543 74<665 745> 553 52<473 557>
VStem: 108 130<74 240.444>
LayerCount: 2
Fore
SplineSet
15 0 m 1x44
 23 66 l 1
 108 69 l 1
 111 158 120 387 127 521 c 1
 31 529 l 1
 36 611 l 1x64
 164 612 l 2
 178 612 308 520 389 452 c 0
 444 406 509 354 561 313 c 1
 557 549 l 1
 473 553 l 1
 473 605 l 1x0c
 745 617 l 1
 745 539 l 1
 665 543 l 1
 669 500 675 429 679 384 c 0
 688.356287772 279.521453214 700.144245568 74.7365179315 700.144245568 -14.216462981 c 0
 700.144245568 -39.3510130399 699.203093523 -55.2375251812 697 -57 c 0
 696.771945591 -57.1824435274 696.441953907 -57.2717912785 696.014199964 -57.2717912785 c 0
 677.685292088 -57.2717912785 479.859727954 106.775384991 431 140 c 0
 381 174 229 288 229 288 c 1
 238 74 l 1
 341 78 l 1
 345 -12 l 1x94
 15 0 l 1x44
EndSplineSet
Validated: 1
EndChar

StartChar: P
Encoding: 80 80 31
Width: 704
VWidth: 0
Flags: W
HStem: -10 98<268 361.571> -10 74<37 137> 160 89.8619<301.741 496.109> 372 240.099<245 498.722> 532 77.4852<23 130.407>
VStem: 140 105<262.947 367.528> 558.089 131.38<304.09 388.545>
LayerCount: 2
Fore
SplineSet
15 612 m 1x6e
 42.6923076923 610.076923077 74.0828402367 609.485207101 104.506144743 609.485207101 c 0x6e
 153.183431953 609.485207101 199.384615385 611 224 611 c 0
 254.751677852 611 290.541552182 612.098554119 328.361501643 612.098554119 c 0
 484.857844241 612.098554119 676.11409396 593.288590604 689 400 c 0
 689.314896212 395.355280873 689.468658034 390.789063115 689.468658034 386.300425155 c 0
 689.468658034 219.736972109 477.740415152 160 431 160 c 0
 394 160 316 178 259 192 c 1
 262 153 265 113 268 81 c 1
 361 88 l 1xb6
 369 -10 l 1
 37 -10 l 1
 37 64 l 1
 137 71 l 1
 138 128 140 221 140 274 c 0
 140 345 133 476 129 532 c 1
 23 538 l 1
 15 612 l 1x6e
245 368 m 1
 247 315 247 324 253 260 c 1
 284 256 327 252 385 250 c 0
 388.335958046 249.907334499 391.611271145 249.861896921 394.826933933 249.861896921 c 0
 526.356418426 249.861896921 558.08879732 325.88059201 558.08879732 355.401474118 c 0
 558.08879732 373.076317537 535.27969558 376.2627417 500.196646379 376.2627417 c 0
 468.885616101 376.2627417 428.593102423 372.965685425 389 372 c 0x36
 339 371 282 369 245 368 c 1
EndSplineSet
Validated: 1
EndChar

StartChar: S
Encoding: 83 83 32
Width: 634
VWidth: 0
Flags: W
HStem: -36.7792 250.015<98.1515 480.032> -23 242<98 289.436> 421 197.409<181.605 438>
VStem: 17 82<-63 -23> 30 64<219 254> 45.8739 125.855<362.442 434.819> 490 61<393.738 416.375> 508.213 116.728<158.538 258.024>
LayerCount: 2
Fore
SplineSet
17 -64 m 1x71
 30 258 l 1
 93 254 l 1
 94 219 l 1
 144.315710328 216.925125347 248.983369066 213.235836385 340.450545076 213.235836385 c 0
 425.31628805 213.235836385 498.818217274 216.41181059 507 227 c 0
 507.823649953 227.988379943 508.213124389 229.275255554 508.213124389 230.780164888 c 0x69
 508.213124389 238.41086789 498.19959016 251.647299906 484 260 c 0
 458 275 162 285 129 295 c 0
 98.5242230306 304.23508393 45.8738845101 347.584877939 45.8738845101 431.350426243 c 0
 45.8738845101 438.288491396 46.2350839301 445.503822515 47 453 c 0
 60.777894126 590.77894126 217.514459355 618.409398227 340.065017461 618.409398227 c 0
 377.619481628 618.409398227 411.963680443 615.814737249 438 613 c 1
 428 657 l 1
 520 663 l 1
 551 395 l 1
 490 384 l 1x66
 482 421 l 1
 389 419 191 414 181 409 c 0
 174.130730605 405.829567972 171.728856431 395.120406508 171.728856431 384.691988143 c 0
 171.728856431 375.384764921 173.64202669 366.301162634 176 363 c 0
 182 355 348 360 477 344 c 0
 569.900421463 332.477467105 624.940999979 262.868599826 624.940999979 175.510777323 c 0
 624.940999979 141.564961744 616.630026727 104.939103619 599 68 c 0
 558.6926274 -16.279051799 419.173588124 -36.7791750202 293.195559285 -36.7791750202 c 0xa5
 212.894950566 -36.7791750202 138.096070034 -28.4499512668 98 -23 c 1
 99 -63 l 1
 17 -64 l 1x71
EndSplineSet
Validated: 1
EndChar

StartChar: T
Encoding: 84 84 33
Width: 882
VWidth: 0
Flags: W
HStem: -12 92<231 351.688 507.648 584.25> 370 242.097<211 364 491 667.626> 373 229<491.13 671>
VStem: 359 150<86.0171 333.995>
LayerCount: 2
Fore
SplineSet
15 308 m 1xd0
 160 668 l 1
 227 657 l 1
 211 612 l 1
 259 612 335.444444444 611.555555556 385.518518519 611.555555556 c 0
 410.555555556 611.555555556 429 611.666666667 434 612 c 0
 434.981668333 612.065444556 436.524408336 612.096625192 438.571880037 612.096625192 c 0xd0
 467.810000923 612.096625192 599.97378622 605.738221778 671 602 c 1
 667 612 662 624 654 638 c 1
 729 670 l 1
 867 320 l 1
 773 283 l 1
 773 283 761 324 745 373 c 1xb0
 686 372 572 371 491 370 c 1
 490.633140649 358.87193301 490.460682985 348.102761442 490.460682985 337.540705801 c 0
 490.460682985 261.731331059 499.345150955 196.591907244 509 86 c 1
 595 88 l 1
 616 -14 l 1
 225 -12 l 1
 231 80 l 1
 350 83 l 1
 353 115 356 153 359 180 c 0
 363 220 364 315 364 369 c 1
 305 369 190 368 126 367 c 1
 96 280 l 1
 15 308 l 1xd0
EndSplineSet
Validated: 1
EndChar

StartChar: R
Encoding: 82 82 34
Width: 722
VWidth: 0
Flags: W
HStem: -20 68<626 703> -19 75<53.75 114 264.163 314> -11 74<36 114 263.591 286.25> 175 75<256 334.734> 390 232.086<244.181 498.729> 538 73<29 117.91>
VStem: 112 128<253.452 377.059> 556.818 121.481<304.966 393.302>
LayerCount: 2
Fore
SplineSet
15 -11 m 1x33
 36 63 l 1
 114 61 l 1
 113 116 112 212 112 268 c 0
 112 339 118 475 121 532 c 1
 19 538 l 1
 29 611 l 1x37
 99.6512187571 614.768065 293.650289061 622.085708463 357.707346069 622.085708463 c 0
 361.650238108 622.085708463 365.100812505 622.05798375 368 622 c 0
 458 620 652 625 677 412 c 0
 677.877583379 404.371775247 678.299455168 396.930392246 678.299455168 389.674005189 c 0
 678.299455168 289.438575477 597.802006142 224.502262692 526 190 c 1
 626 46 l 1
 703 48 l 1
 713 -20 l 1x9b
 453 -34 l 1
 336 166 l 1
 309 169 281 172 256 175 c 1
 260 131 263 88 266 57 c 1
 314 56 l 1
 325 -19 l 1x53
 15 -11 l 1x33
240 374 m 1
 243 312 243 325 249 250 c 1
 265.743157806 249.422649731 286.819648946 248.845299462 313.384173958 248.845299462 c 0
 332.830755945 248.845299462 355.218366421 249.154700538 381 250 c 0
 491.737112889 253.460534778 556.818390913 278.626302524 556.818390913 315.78458166 c 0
 556.818390913 321.577212163 555.236791333 327.661283639 552 334 c 0
 539.389207347 359.221585307 463.730189129 390.089280366 384.357878165 390.089280366 c 0
 381.908207681 390.089280366 379.455000186 390.059878053 377 390 c 0x1b
 328 389 275 381 240 374 c 1
EndSplineSet
Validated: 1
EndChar

StartChar: dotlessi
Encoding: 305 305 35
Width: 357
VWidth: 0
Flags: W
HStem: -10 75<29 92 294 334> 342 69<18 67>
VStem: 92 203.414<65 249.9> 102 193<143.1 330>
LayerCount: 2
Fore
SplineSet
15 411 m 1xd0
 284 405 l 1
 284 405 293 310 295 214 c 0xd0
 295.292893219 197.597979746 295.414213562 181.110173055 295.414213562 165.089357775 c 0
 295.414213562 126.411688245 294.707106781 90.4558441227 294 65 c 1
 334 66 l 1
 342 -10 l 1
 23 -4 l 1
 29 62 l 1
 92 63 l 1xe0
 102 330 l 1
 18 342 l 1
 15 411 l 1xd0
EndSplineSet
Validated: 1
EndChar

StartChar: uni0237
Encoding: 567 567 36
Width: 353
VWidth: 0
Flags: W
HStem: -192.974 264.209<46.2574 200.873> 408 20G<68.4706 279>
VStem: 210.043 120.566<16.9235 223.714>
LayerCount: 2
Fore
SplineSet
-40 -170 m 1
 50 78 l 1
 50 78 89.3002191381 71.2352081812 128.408899769 71.2352081812 c 0
 158.205989774 71.2352081812 187.891891892 75.1621621622 200 89 c 0
 207.326131189 97.097302893 210.04329245 120.656956513 210.04329245 151.251813159 c 0
 210.04329245 200.003375692 203.14414148 266.618039868 197 317 c 1
 57 343 l 1
 72 428 l 1
 279 414 l 1
 279 414 318 168 328 98 c 0
 328.995222334 91.282249243 330.609486853 74.0407813535 330.609486853 51.2812837691 c 0
 330.609486853 -17.4342460791 315.894524385 -136.449834511 225 -168 c 0
 170.341614907 -186.788819876 122.101770765 -192.973959338 82.2738032737 -192.973959338 c 0
 5.51444774507 -192.973959338 -40 -170 -40 -170 c 1
EndSplineSet
Validated: 1
EndChar

StartChar: grave
Encoding: 96 96 37
Width: 403
VWidth: 0
Flags: W
HStem: 462 253
VStem: 45 314
LayerCount: 2
Fore
SplineSet
45 587 m 1
 153 715 l 1
 153 715 230 664 290 600 c 0
 331 556 359 504 359 504 c 1
 285 462 l 1
 45 587 l 1
EndSplineSet
Validated: 1
EndChar

StartChar: acute
Encoding: 180 180 38
Width: 398
VWidth: 0
Flags: W
HStem: 462 247
VStem: 45 308
LayerCount: 2
Fore
SplineSet
45 506 m 1
 45 506 90 562 130 600 c 0
 196 661 265 709 265 709 c 1
 353 578 l 1
 113 462 l 1
 45 506 l 1
EndSplineSet
Validated: 1
EndChar

StartChar: igrave
Encoding: 236 236 39
Width: 357
VWidth: 0
HStem: -10 76<285 334> -4 90<33.1444 93> 342 58<36 67>
VStem: 102 169.804<137.111 330>
LayerCount: 2
Fore
SplineSet
0 678 m 1x30
 121 765 l 1
 121 765 174 698 220 624 c 0
 252 573 268 518 268 518 c 1
 196 466 l 1
 0 678 l 1x30
18 342 m 1
 36 400 l 1
 284 405 l 1
 284 405 271.804444444 320.502222222 271.804444444 231.184296296 c 0
 271.804444444 224.804444444 271.866666667 218.4 272 212 c 0
 273 158 280 105 285 69 c 1
 334 66 l 1
 342 -10 l 1xb0
 23 -4 l 1
 34 86 l 1x70
 93 82 l 1
 102 330 l 1
 18 342 l 1
EndSplineSet
Validated: 1
EndChar

StartChar: iacute
Encoding: 237 237 40
Width: 395
VWidth: 0
Flags: W
HStem: -15 76<293.125 371> -4 90<30.1444 90> 342 58<33 64>
VStem: 99 169.804<137.111 330>
LayerCount: 2
Fore
SplineSet
15 342 m 1x70
 33 400 l 1
 281 405 l 1
 281 405 268.804444444 320.502222222 268.804444444 231.184296296 c 0
 268.804444444 224.804444444 268.866666667 218.4 269 212 c 0
 270 158 277 105 282 69 c 1
 371 61 l 1
 379 -15 l 1xb0
 20 -4 l 1
 31 86 l 1
 90 82 l 1
 99 330 l 1
 15 342 l 1x70
118 493 m 1
 118 493 142 561 168 610 c 0
 210 690 258 757 258 757 c 1
 385 663 l 1
 197 474 l 1
 118 493 l 1
EndSplineSet
Validated: 1
EndChar

StartChar: dieresis
Encoding: 168 168 41
Width: 442
VWidth: 0
Flags: W
HStem: 502.896 137.167<69.148 179.328> 503.944 143.16<266.184 372.616>
VStem: 45 151<527.125 620.375> 246 151<525.499 622.875>
LayerCount: 2
Fore
SplineSet
45 576 m 0xb0
 45 610 76 639 124 640 c 0
 125.268148085 640.042271603 126.51485351 640.063100545 127.740456179 640.063100545 c 0
 184.501898569 640.063100545 196 595.387061759 196 567 c 0
 196 529.358701677 170.848508768 502.895843902 119.646442937 502.895843902 c 0
 117.798251301 502.895843902 115.91611775 502.930322991 114 503 c 0
 79 504 45 542 45 576 c 0xb0
246 583 m 0
 246 620.641298323 271.151491232 647.104156098 322.353557063 647.104156098 c 0
 324.201748699 647.104156098 326.08388225 647.069677009 328 647 c 0
 363 646 397 608 397 574 c 0
 397 540 368 505 320 504 c 0
 318.873818213 503.962460607 317.763842296 503.943945495 316.669860645 503.943945495 c 0x70
 259.479380721 503.943945495 246 554.544321197 246 583 c 0
EndSplineSet
Validated: 1
EndChar

StartChar: ae
Encoding: 230 230 42
Width: 809
VWidth: 0
Flags: W
HStem: -24.9674 80.5084<116.998 225.803 523.03 683.497> 140 147<192.732 314.722> 341.032 78.1541<126.151 351.812> 364.441 54.4188<507.203 648.333>
VStem: 14.9481 153.956<58.0641 118.198> 62 48<311 330.71> 674.18 120.59<203.835 308.909>
LayerCount: 2
Fore
SplineSet
35 209 m 0xda
 119 271 248 284 327 287 c 1
 337 312 348 330 353 334 c 1
 345.929081607 339.439167995 296.552258891 341.032344688 242.362803562 341.032344688 c 0
 196.924052188 341.032344688 148.101491234 339.912166401 118 339 c 1
 110 301 l 1
 62 311 l 1
 62 311 60.4852071006 313.650887574 60.4852071006 331.53709604 c 0
 60.4852071006 342.715976331 61.0769230769 359.846153846 63 386 c 0
 67 439 73 457 73 457 c 1
 140 453 l 1
 131 406 l 1
 170.50164719 410.937705899 244.31720929 419.186403587 315.620818393 419.186403587 c 0xe6
 374.28292517 419.186403587 431.244817133 413.603274439 466 396 c 1
 503.087849656 409.736240613 543.320437748 418.860198186 582.954034344 418.860198186 c 0
 629.880358426 418.860198186 675.966977472 406.069644087 715 373 c 0
 779.211260377 319.062541283 794.770106436 256.054293456 794.770106436 215.215584956 c 0
 794.770106436 192.453753209 789.936761358 176.578873962 786 173 c 0
 772 160 601 140 491 128 c 1
 507 73 546 52 611 49 c 0
 614.23739744 48.8622384068 617.536474214 48.7956452757 620.883504329 48.7956452757 c 0
 666.128103232 48.7956452757 720.135304695 60.9643311524 749 74 c 1
 777 33 l 1
 777 33 669.893239704 -24.1882249545 550.149943225 -24.1882249545 c 0
 497.889097728 -24.1882249545 443.221238938 -13.2949852507 394 18 c 0
 387 22 382 27 376 31 c 1
 305.010814859 13.2527037148 144.256169969 -24.9674167239 73.3085267591 -24.9674167239 c 0
 64.3029849097 -24.9674167239 56.7443944726 -24.3516222289 51 -23 c 0
 27.2877853706 -17.2165330172 14.9480574571 51.78458071 14.9480574571 113.39473376 c 0
 14.9480574571 158.312642915 21.5070943449 199.30197406 35 209 c 0xda
168.903921596 85.0892273707 m 0
 168.903921596 63.05938655 186.209612688 55.5409513791 209.907722761 55.5409513791 c 0
 248.293026901 55.5409513791 303.449671673 75.2665415897 329 85 c 1
 319 103 313 121 309 140 c 1
 255.518155263 140 168.903921596 132.430282805 168.903921596 85.0892273707 c 0
486 284 m 1
 566 285 667 288 672 294 c 0
 673.487507803 295.859384753 674.179833923 298.548524306 674.179833923 301.797422808 c 0
 674.179833923 316.021500224 660.909353542 340.975015605 643 354 c 0
 635.6875 359.0625 611.2890625 364.44140625 583.509033203 364.44140625 c 0xd2
 561.90234375 364.44140625 538.25 361.1875 519 352 c 0
 502 344 491 319 486 284 c 1
EndSplineSet
Validated: 1
EndChar

StartChar: H
Encoding: 72 72 43
Width: 812
VWidth: 0
Flags: W
HStem: -17 78<471 534.636> -7 76<248 331> 1 90<32 98.7143 705.857 763.625> 168.222 260.778<249.649 564> 177 248<248 437.649> 520 90<678 797> 528 82.482<21 142 229 333> 532.111 69.8889<452 570>
VStem: 124.14 124.61<84 176.095> 142 87<426.594 528> 564 119<84.75 174> 571 112<84 172.406 429 523>
LayerCount: 2
Fore
SplineSet
15 1 m 1x20a0
 33 91 l 1
 125 84 l 1
 124.510068941 106.536828722 124.140154103 134.654411738 124.140154103 166.721058081 c 0x20a0
 124.140154103 265.557099955 127.654345062 401.909243441 142 528 c 1x2240
 21 527 l 1
 19 613 l 1
 19 613 104.416666667 609.527777778 146.777777778 609.527777778 c 0
 155.25 609.527777778 162 609.666666667 166 610 c 0x0440
 170.144155952 610.345346329 176.256169341 610.481980506 183.816049058 610.481980506 c 0
 212.477729157 610.481980506 261.950842272 608.518019494 303.898236656 608.518019494 c 0
 314.962391126 608.518019494 325.502975944 608.654653671 335 609 c 1
 333 529 l 1
 229 528 l 1
 231 494 234 459 236 425 c 1x0a40
 566 429 l 1
 567 463 569 496 570 529 c 1
 532.666666667 531.666666667 491.777777778 532.111111111 468.666666667 532.111111111 c 0
 457.111111111 532.111111111 450 532 450 532 c 2
 452 602 l 1x1140
 797 610 l 1
 797 520 l 1
 797 520 737 521 678 523 c 1
 681 417 679 185 683 84 c 1
 763 93 l 1
 775 -5 l 1
 471 -17 l 1
 471 61 l 1
 571 72 l 1x8450
 568 106 565 140 564 174 c 1
 534 171.333333333 485.333333333 168.222222222 438.740740741 168.222222222 c 0x9420
 415.444444444 168.222222222 392.666666667 169 373 171 c 0
 330 175 283 177 248 177 c 1
 248.5 160 248.75 143 248.75 126 c 0
 248.75 109 248.5 92 248 75 c 1
 331 69 l 1
 349 -7 l 1x48a0
 15 1 l 1x20a0
EndSplineSet
Validated: 1
EndChar

StartChar: E
Encoding: 69 69 44
Width: 641
VWidth: 0
Flags: W
HStem: -12 82<22 89.269> -7.59184 191.592<197 470> 281 72<198.656 361.841> 439.21 199.79<190.031 463.885> 538 76<27 80.6968>
VStem: 105.051 92.9492<184.757 276.82> 366 67<240 279.971> 367 59<354.123 399>
LayerCount: 2
Fore
SplineSet
15 -12 m 1xa6
 22 70 l 1
 87 72 l 1
 95 131 104 211 105 257 c 0
 105.034190598 259.017245269 105.050846241 261.138531269 105.050846241 263.357183227 c 0
 105.050846241 326.02923518 91.7606658155 466.393341845 85 534 c 1
 27 538 l 1
 18 614 l 1xae
 103 625 347 637 464 639 c 1
 463 649 461 660 459 672 c 1
 511 680 l 1
 511 680 539 602 552 556 c 0
 565 510 579 388 579 388 c 1
 489 388 l 1
 489 388 489 405 487 429 c 1
 449.383744358 434.996794378 392.152101729 439.210371757 332.479618799 439.210371757 c 0
 282.694069508 439.210371757 231.209503101 436.277389996 188 429 c 1
 191 400 193 371 195 347 c 1
 361 353 l 1
 364 377 367 399 367 399 c 1
 426 400 l 1x35
 433 239 l 1
 366 240 l 2
 366 240 361 259 359 281 c 1
 322 280 259 278 238 278 c 0
 226 278 212 276 198 274 c 1
 198 248 197 216 197 184 c 1
 295 188 443 190 521 190 c 1
 536 252 l 1
 627 254 l 1
 519 -52 l 1
 463 -43 l 1
 470 -14 l 1
 444 -13 377 -10 322 -8 c 0
 312.142857143 -7.71428571429 298.836734694 -7.59183673469 283.268221574 -7.59183673469 c 0x76
 189.857142857 -7.59183673469 15 -12 15 -12 c 1xa6
EndSplineSet
Validated: 1
EndChar

StartChar: I
Encoding: 73 73 45
Width: 524
VWidth: 0
Flags: W
HStem: -14 76<35 135> -12 87<409.936 483> 536 80<17 131 378 507>
VStem: 135 256<78.0298 529.719>
LayerCount: 2
Fore
SplineSet
15 616 m 1xb0
 70 614 243 612 267 612 c 0
 371 612 509 616 509 616 c 1
 507 530 l 1
 378 532 l 1
 382 484 388 394 391 318 c 0
 394 244 405 139 412 75 c 1
 483 78 l 1
 501 -12 l 1x70
 17 -14 l 1
 35 62 l 1
 135 66 l 1
 135 284 l 1
 131 535 l 1
 17 536 l 1
 15 616 l 1xb0
EndSplineSet
Validated: 1
EndChar

StartChar: U
Encoding: 85 85 46
Width: 732
VWidth: 0
Flags: W
HStem: -42 283.956<223.763 502.419> 517 90<639.011 717> 527 79.6366<17 98 201 283 453 533.382> 528 86<17 98>
VStem: 88.6903 552.508<59.8571 236.856> 98 101.032<268.976 527> 538.138 98.8621<265.219 521>
LayerCount: 2
Fore
SplineSet
15 614 m 1x94
 15 614 79.6530612245 609.591836735 113.239067055 609.591836735 c 0
 118.836734694 609.591836735 123.571428571 609.714285714 127 610 c 0
 130.05572809 610.254644008 134.003055275 610.363389981 138.678925292 610.363389981 c 0
 166.051945152 610.363389981 218.392499292 606.636610019 262.987741375 606.636610019 c 0xa4
 270.605518164 606.636610019 277.997289794 606.745355992 285 607 c 1xc4
 283 527 l 1
 201 527 l 1xa4
 199.955404246 501.58150333 199.032050747 466.948595336 199.032050747 431.206821232 c 0
 199.032050747 364.300923308 202.267574521 293.509446711 214 272 c 0
 225.529949789 250.861758719 289.912679009 241.955820101 357.03096938 241.955820101 c 0
 429.621784279 241.955820101 505.412437237 252.373266386 521 269 c 0
 534.370890054 283.586425513 538.137858162 347.669987208 538.137858162 413.208065038 c 0
 538.137858162 455.504073529 536.568929081 498.405882918 535 529 c 1
 500.333333333 531.666666667 474.555555556 532.111111111 461.222222222 532.111111111 c 0
 454.555555556 532.111111111 451 532 451 532 c 2
 453 602 l 1
 717 607 l 1
 717 517 l 1
 717 517 680 518 637 521 c 1xc6
 638.726649916 426.89757957 641.198629816 220.250331673 641.198629816 144.930345409 c 0
 641.198629816 133.006257979 641.136675042 124.373601342 641 120 c 0
 640 52 554 -42 352 -42 c 0
 150 -42 128 0 101 50 c 0
 91.7544222525 66.8101413591 88.6903006537 131.835640679 88.6903006537 210.86004016 c 0xc8
 88.6903006537 319.8754621 94.5215212039 455.531691747 98 528 c 1
 17 528 l 1
 15 614 l 1x94
EndSplineSet
Validated: 1
EndChar

StartChar: F
Encoding: 70 70 47
Width: 597
VWidth: 0
Flags: W
HStem: -5 92<21 99.3223 220.311 271> 427.158 189.842<191 450.58> 553 64<35 93.2506>
VStem: 113.042 79.9577<312 418.346> 360 58<316.501 380>
LayerCount: 2
Fore
SplineSet
15 -5 m 1xd8
 21 87 l 1
 97 89 l 1
 104 146 112 215 113 257 c 0
 113.028428826 258.847873709 113.042310086 260.783841019 113.042310086 262.802709324 c 0
 113.042310086 331.798672367 96.8294270422 497.620443099 91 553 c 1xb8
 35 556 l 1
 35 613 l 1
 122 617 232 617 300 617 c 0
 352 617 432 634 472 644 c 1
 470 656 469 668 467 683 c 1
 519 691 l 1
 519 691 521 621 534 575 c 0
 547 529 587 399 587 399 c 1
 497 366 l 1
 497 366 497 390 495 421 c 1
 452 423 375 426 338 427 c 0
 334.213203436 427.108194188 330.016697493 427.157858464 325.490272885 427.157858464 c 0
 288.180581245 427.157858464 228.455844123 423.783611625 191 422 c 1
 191 379 191 343 193 312 c 1
 350 315 l 1
 354 347 360 380 360 380 c 1
 418 380 l 1
 432 177 l 1
 346 174 l 1
 346 174 346 204 346 234 c 1
 304 238 241 244 199 247 c 1
 205 198 215 140 223 92 c 1
 271 93 l 1
 292 -9 l 1
 15 -5 l 1xd8
EndSplineSet
Validated: 1
EndChar

StartChar: J
Encoding: 74 74 48
Width: 606
VWidth: 0
Flags: W
HStem: -47.9782 283.531<171.1 321.86> 504.343 101.508<514.535 589.696> 515.031 98.3357<172 395.54>
VStem: 401.444 120.235<317.591 504.549>
LayerCount: 2
Fore
SplineSet
0 -47 m 1xd0
 48 91 47 202 79 352 c 1
 167 322 l 1
 150 245 l 1
 170.766010539 239.808497365 196.585464753 235.552817634 224.300450051 235.552817634 c 0
 260.647807966 235.552817634 300.255388832 242.872383563 336 265 c 0
 388.08255331 296.828227023 401.443687911 372.610496905 401.443687911 440.112194617 c 0
 401.443687911 465.92624136 399.489680836 490.529290902 397 511 c 1
 344.049382473 513.161249695 288.763264824 515.030561875 241.07910744 515.030561875 c 0
 200.510329505 515.030561875 165.444066389 513.67750061 142 510 c 1
 172 610 l 1
 199.904239293 612.455573058 232.293482832 613.36631132 266.631344481 613.36631132 c 0xb0
 365.268705694 613.36631132 479.985218591 605.851294097 550.660745393 605.851294097 c 0
 565.596487979 605.851294097 578.565374561 606.186912303 589 607 c 1
 601 505 l 1
 594.786796564 504.585786438 585.485281374 504.343145751 573.735064736 504.343145751 c 0
 557.117749006 504.343145751 535.60303038 504.828427125 511 506 c 1
 516.404431724 462.76454621 521.679050638 403.951555215 521.679050638 340.037723083 c 0
 521.679050638 226.558717082 505.051341519 96.9998190376 443 10 c 0
 412.30340891 -33.3116285236 361.09554709 -47.9782065439 305.882908641 -47.9782065439 c 0
 229.793586068 -47.9782065439 146.098396432 -20.1234588225 98 -1 c 1
 80 -83 l 1
 0 -47 l 1xd0
EndSplineSet
Validated: 1
EndChar

StartChar: L
Encoding: 76 76 49
Width: 696
VWidth: 0
Flags: W
HStem: -48 93<40 100.2> 537 73<21 111.226> 600 20G<301.5 329>
VStem: 129.24 93.7598<169.485 517.572> 590 78<-51.1667 -23.6555>
LayerCount: 2
Fore
SplineSet
15 530 m 1xd8
 21 610 l 1xd8
 76 610 274 614 329 620 c 1xb8
 329 530 l 1
 319 532 277 534 226 535 c 1
 225 479 223 374 223 310 c 0
 223 274 228 220 233 167 c 1
 327 178 457 210 543 235 c 1
 535 268 529 296 524 319 c 1
 646 330 l 1
 668 -50 l 1
 590 -63 l 1
 590 -50 590 -37 589 -23 c 1
 560.819106593 -21.783558558 525.732807538 -21.1836711917 486.72444384 -21.1836711917 c 0
 333.327177393 -21.1836711917 119.279391881 -30.4602852874 26 -48 c 1
 40 45 l 1
 126 55 l 1
 127 109 128 185 129 240 c 0
 129.163629143 245.890649145 129.240241172 252.350256339 129.240241172 259.28353292 c 0
 129.240241172 337.094042893 119.590927143 474.563390859 115 537 c 1
 67 537 27 535 15 530 c 1xd8
EndSplineSet
Validated: 1
EndChar

StartChar: D
Encoding: 68 68 50
Width: 675
VWidth: 0
Flags: W
HStem: 421.325 203.747<29.0124 75.5693 181 362.081>
VStem: 84.5721 112.492<209.306 414.337> 572.03 88.2214<255.43 342.408>
LayerCount: 2
Fore
SplineSet
15 618 m 1
 15 618 70.5655185374 625.071975087 149.084857026 625.071975087 c 0
 338.136233806 625.071975087 660.251862139 584.075440571 660.251862139 304.667277568 c 0
 660.251862139 300.173462947 660.168539326 295.617977528 660 291 c 0
 650.51525679 28.5887711804 430.498296779 -29.5374876284 200.423568442 -29.5374876284 c 0
 139.410106111 -29.5374876284 77.6893250919 -25.4497230442 19 -20 c 1
 16.3333333333 7 14.8888888889 33.4444444444 14.8888888889 59.8518518519 c 0
 14.8888888889 112.666666667 20.6666666667 165.333333333 34 222 c 1
 34 222 53 219 83 215 c 1
 84.1015467617 231.743510778 84.5721227839 247.516297342 84.5721227839 262.68192105 c 0
 84.5721227839 316.354154413 78.6781438859 362.421654664 74 417 c 1
 46 415 29 413 29 413 c 1
 19.0287172971 460.136972777 17.069072344 498.851454587 17.069072344 530.633166733 c 0
 17.069072344 551.215105244 17.890927656 568.88951014 17.890927656 584.060987114 c 0
 17.890927656 597.150486667 17.2791611057 608.376875331 15 618 c 1
181 421 m 1
 186.742150942 348.266088065 197.06378764 291.102427701 197.06378764 214.447554309 c 0
 197.06378764 211.005396992 197.042974843 207.523937123 197 204 c 1
 234.816478286 201.145926167 276.02701384 199.140366651 316.837574732 199.140366651 c 0
 446.451281503 199.140366651 572.030492959 219.370199254 572.030492959 296.896692785 c 0
 572.030492959 400.853167092 370.646391575 421.32533385 215.082714698 421.32533385 c 0
 203.449715366 421.32533385 192.055641577 421.208597011 181 421 c 1
EndSplineSet
Validated: 1
EndChar

StartChar: g
Encoding: 103 103 51
Width: 459
VWidth: 0
Flags: W
HStem: -197 162.085<12.7761 285.451> -34 20G<12.4 181.303> 33.998 136.039<125.311 284.457> 301.44 120.516<167.978 307.394>
VStem: 15.9939 65.9944<182.045 245.573> 297.941 132.505<-82.8932 22.8882> 346.913 73.5572<219.078 289.569>
LayerCount: 2
Fore
SplineSet
0 -189 m 1xfc
 14 -14 l 1
 14 -14 108.759466667 -34.9153777778 188.960692148 -34.9153777778 c 0
 231.516444444 -34.9153777778 269.973333333 -29.0266666667 288 -11 c 0
 295.029437252 -3.97056274848 297.941125497 6.83347775863 297.941125497 19.8040405071 c 0xfc
 297.941125497 28.9756133824 296.485281374 39.2304473783 294 50 c 1
 278 43 261 39 244 36 c 0
 234.97395521 34.6503110594 225.841172515 33.997976428 216.684488123 33.997976428 c 0
 117.734760109 33.997976428 15.9938931373 110.174851644 15.9938931373 205.717729288 c 0
 15.9938931373 303.446087033 47.1570217907 382.041477454 153 410 c 0
 181.462220667 417.560277365 206.759996001 421.956109396 230.036756507 421.956109396 c 0
 259.0999975 421.956109396 285.012498906 415.10305626 310 399 c 1
 310 435 316 480 345 490 c 0
 395 508 427 513 427 513 c 1
 444 425 l 1
 444 425 399 420 372 405 c 0
 359 398 351 381 347 367 c 1
 367 345 387 315 408 275 c 0
 416.525015343 258.24393536 420.469980758 240.191630174 420.469980758 221.783009523 c 0xfa
 420.469980758 177.570042131 397.713765591 131.301697684 361 96 c 1
 394 54 427 3 430 -34 c 0
 430.296340919 -37.852431949 430.446318604 -41.7219396086 430.446318604 -45.5974386616 c 0
 430.446318604 -120.188978128 374.88781794 -197 238 -197 c 0
 140 -197 0 -189 0 -189 c 1xfc
161.784867465 170.036523834 m 0
 187.082158143 170.036523834 214.550038521 173.533340671 238 178 c 0
 312.894271703 191.700171653 346.912808016 232.928899793 346.912808016 260.542989959 c 0xfa
 346.912808016 263.162926269 346.606586562 265.660308975 346 268 c 0
 341.005129892 287.265927559 308.515743879 301.440278099 265.97076712 301.440278099 c 0
 248.891603335 301.440278099 230.191957538 299.156048294 211 294 c 0
 144.525368555 276.141143791 81.9882524814 242.532226095 81.9882524814 212.706447148 c 0
 81.9882524814 179.986355306 119.027436063 170.036523834 161.784867465 170.036523834 c 0
EndSplineSet
Validated: 1
EndChar

StartChar: V
Encoding: 86 86 52
Width: 846
VWidth: 0
Flags: W
HStem: -35 76<520.783 644> -33 64<214 334.171>
LayerCount: 2
Fore
SplineSet
10 566 m 1x40
 380 677 l 1
 402 600 l 1
 388 600 365 595 337 587 c 1
 432 149 l 1
 553 595 l 1
 526 602 501 608 483 608 c 1
 501 676 l 1
 597 650 713 607 836 592 c 1
 822 500 l 1
 812 502 791 510 763 521 c 1
 709 417 602 202 519 54 c 1
 557 51 598 47 644 41 c 1
 648 -35 l 1x80
 214 -33 l 1
 212 31 l 1
 257 41 297 48 336 52 c 1
 246 196 158 381 102 503 c 1
 71 491 46 480 31 474 c 1
 10 566 l 1x40
EndSplineSet
Validated: 1
EndChar

StartChar: W
Encoding: 87 87 53
Width: 1125
VWidth: 0
Flags: W
HStem: -16 90<627.067 680.249> -10 64<231 331.591> -6 73.25<453.632 519.554> 590 77<728 766.027>
LayerCount: 2
Fore
SplineSet
10 609 m 1x50
 133 624 256 636 352 662 c 1
 370 594 l 1
 357 594 340 592 321 589 c 1
 377 216 l 1
 562 552 l 1
 751 204 l 1
 777 581 l 1
 747 586 722 590 708 590 c 1
 730 667 l 1
 1116 592 l 1
 1095 500 l 1
 1080 506 1054 515 1022 524 c 1
 966 397 896 214 810 77 c 1
 840 81 865 86 903 88 c 1
 909 0 l 1
 616 -16 l 1
 628 74 l 1x90
 647 72 665 71 681 70 c 1
 633 163 594 261 560 337 c 1
 525 252 493 153 453 69 c 1
 466.5 68 478.5 67.25 489.5 67.25 c 0
 500.5 67.25 510.5 68 520 70 c 1
 524 -6 l 1x30
 231 -10 l 1
 229 54 l 1
 269 62 303 67 333 69 c 1
 254 200 151 405 97 536 c 1
 63 527 35 520 24 517 c 1
 10 609 l 1x50
EndSplineSet
Validated: 1
EndChar

StartChar: K
Encoding: 75 75 54
Width: 801
VWidth: 0
Flags: W
HStem: -14 21G<36 301> 0 80<226 289> 526 86<221 341> 535.25 69.75<17 113> 606 20G<449.571 659>
VStem: 106.15 117.85<88.9324 210.975 331 526>
LayerCount: 2
Fore
SplineSet
15 535 m 2x94
 17 605 l 1x94
 341 612 l 1
 341 522 l 1
 341 522 279 523 221 526 c 1x24
 222 478 223 406 223 331 c 1
 524 533 l 1
 445 542 l 1
 451 626 l 1
 763 596 l 1
 759 508 l 1
 680 517 l 1
 617 484 544 436 474 386 c 1
 559 308 648 217 706 122 c 1
 767 138 l 1
 787 34 l 1
 692 16 535 -25 419 -56 c 1
 397 40 l 1
 438 51 l 1
 409 99 358 181 285 243 c 1
 259 222 238 205 224 194 c 1
 224 149 225 109 226 82 c 1
 289 80 l 1
 301 0 l 1x4c
 36 -14 l 1
 36 88 l 1
 114 86 l 1
 108.162468666 148.544978583 106.149881136 211.959262577 106.149881136 275.010449713 c 0
 106.149881136 363.173289421 110.084832619 450.626212916 113 534 c 1
 88 535 63.5 535.25 45.25 535.25 c 0
 27 535.25 15 535 15 535 c 2x94
EndSplineSet
Validated: 1
EndChar

StartChar: Q
Encoding: 81 81 55
Width: 756
VWidth: 0
Flags: W
HStem: -43 221<279.966 376> 426 226<260.02 508.584>
VStem: 15 84<237.581 347.188> 661 80<234.733 357.272>
LayerCount: 2
Fore
SplineSet
15 306 m 0
 21 458 139 650 385 652 c 0
 386 652 387 652 388 652 c 0
 625 652 741 438 741 252 c 0
 741 247 741 241 741 236 c 0
 738 166 695 64 600 5 c 1
 616 -25 630 -52 641 -73 c 1
 707 -46 l 1
 731 -142 l 1
 511 -188 l 1
 492 -150 470 -99 449 -42 c 1
 441 -42 432 -43 423 -43 c 0
 408 -43 391 -42 375 -40 c 0
 161 -17 15 96 15 290 c 0
 15 296 15 301 15 306 c 0
99 296 m 0
 99 198 219 178 355 178 c 0
 362 178 369 178 376 178 c 1
 366 211 359 242 353 268 c 1
 437 298 l 1
 437 298.152929111 437.039466091 298.228387748 437.117448238 298.228387748 c 0
 439.079160076 298.228387748 465.414594281 250.47666966 501 187 c 1
 586 199 659 224 661 276 c 0
 661 279 661 282 661 285 c 0
 661 390 571 422 417 426 c 0
 410 426 403 426 396 426 c 0
 245 426 99 384 99 296 c 0
EndSplineSet
Validated: 1
EndChar

StartChar: Y
Encoding: 89 89 56
Width: 840
VWidth: 0
Flags: W
HStem: -21 74<204.946 318 529.191 627> -19 87.3124<506 625.302> 600 77<467 501.364> 608 68<300.217 350.75>
LayerCount: 2
Fore
SplineSet
15 613 m 1x80
 137 647 243 667 349 676 c 1
 366 608 l 1x90
 348 608 325 604 299 598 c 1
 391 356 l 1
 411 317 l 1
 433 357 l 1
 510 592 l 1
 483 597 461 600 447 600 c 1
 469 677 l 1
 825 600 l 1
 804 508 l 1
 788 515 759 524 725 535 c 1
 649 417 570 300 493 194 c 1
 506 68 l 1
 513.167378904 68.1937129434 520.409807218 68.3123764779 527.756361023 68.3123764779 c 0
 558.334757809 68.3123764779 590.717082451 66.2565835097 627 59 c 1
 635 -19 l 1x60
 201 -21 l 1
 205 55 l 1
 226.5 53.5 246.5 53 265.25 53 c 0
 284 53 301.5 53.5 318 54 c 1
 330 200 l 1
 243 311 169 446 107 544 c 1
 70 533 41 524 29 521 c 1
 15 613 l 1x80
EndSplineSet
Validated: 1
EndChar

StartChar: X
Encoding: 88 88 57
Width: 816
VWidth: 0
Flags: W
HStem: -42 66<388.167 407.848> 635 20G<178.302 314.758>
LayerCount: 2
Fore
SplineSet
21 3 m 1
 37 125 l 1
 106 107 l 1
 178 187 247 270 310 353 c 1
 245 417 183 478 132 526 c 1
 57 502 l 1
 28 612 l 1
 309 655 l 1
 328 589 l 1
 252 565 l 1
 284 526 325 481 370 434 c 1
 404 481 436 527 465 572 c 1
 448 576 431 579 415 582 c 1
 433 658 l 1
 577 635 673 616 801 600 c 1
 771 480 l 1
 747 486 723 493 697 501 c 1
 646 434 586 356 528 276 c 1
 589 217 652 158 708 105 c 1
 788 130 l 1
 801 42 l 1
 543 -50 l 1
 524 49 l 1
 587 68 l 1
 552 106 512 149 469 193 c 1
 432 140 398 86 369 36 c 1
 415 24 l 1
 407 -42 l 1
 21 3 l 1
EndSplineSet
Validated: 1
EndChar

StartChar: Z
Encoding: 90 90 58
Width: 717
VWidth: 0
Flags: W
HStem: -28.9841 200.325<169.882 579.963> 393.791 222.23<152.052 383.973>
VStem: 39 89<298 371.466> 50 91<616.89 673.077> 584 117<-85 -22.9397> 629 74<199.408 294>
LayerCount: 2
Fore
SplineSet
14.523143985 -19.5957429775 m 0xc8
 14.523143985 10.2174175904 384.092657344 379.382587937 384.092657344 392.724400926 c 0
 384.092657344 392.846000111 384.061958095 392.938041905 384 393 c 0
 383.457642099 393.542357901 380.950348214 393.79056371 376.807400057 393.79056371 c 0
 342.756490001 393.79056371 198.213801997 377.023755777 126 369 c 1
 126 347 127 323 128 298 c 1
 39 278 l 1xe8
 50 686 l 1
 141 672 l 1
 139 653 138 635 136 616 c 1
 156.571428571 616 182.428571429 616.020408163 211.664723032 616.020408163 c 0
 387.081632653 616.020408163 684.142857143 615.285714286 691 605 c 0
 691.18511607 604.753178573 691.276233224 604.412834172 691.276233224 603.981885273 c 0
 691.276233224 576.729932384 326.905194014 187.157008262 326.905194014 173.288529904 c 0
 326.905194014 173.159771895 326.936601613 173.063398387 327 173 c 0
 328.149468117 171.850531883 333.262767087 171.34105729 341.411432705 171.34105729 c 0
 389.975366596 171.34105729 546.350997652 189.436835146 614 198 c 1
 618 228 622 261 629 300 c 1
 703 294 l 1xd4
 701 -85 l 1
 584 -89 l 1
 587 -65 590 -42 592 -22 c 1
 501.160783653 -24.4063368569 316.226639941 -28.9840951145 180.018919052 -28.9840951145 c 0
 92.6512569374 -28.9840951145 14.523143985 -27.9397214847 14.523143985 -19.5957429775 c 0xc8
EndSplineSet
Validated: 1
EndChar

StartChar: B
Encoding: 66 66 59
Width: 704
VWidth: 0
Flags: W
HStem: -10.0986 209.947<273 528.087> -10 74<23 129.988> 443.508 168.492<269.856 519.823> 538 74<37 137>
VStem: 140 128<207.086 299.906 352 434.707> 524.515 118.587<396.611 455.171> 558.1 131.399<213.893 282.104>
LayerCount: 2
Fore
SplineSet
15 -10 m 1x4a
 23 64 l 1
 129 70 l 1
 133 126 140 257 140 328 c 0
 140 382 138 476 137 533 c 1
 37 538 l 1
 37 612 l 1x5a
 37 612 279 612 369 612 c 0
 380.647058824 612 393.432941176 612.184221453 406.919850193 612.184221453 c 0
 497.649965398 612.184221453 620.105882353 603.847058824 641 475 c 0
 642.428571429 466.714285714 643.102040816 458.87755102 643.102040816 451.463556851 c 0x2c
 643.102040816 406.979591837 618.857142857 377.714285714 588 358 c 1
 642.76070872 336.284546542 689.498641882 294.066444437 689.498641882 216.196284188 c 0
 689.498641882 211.589986407 689.335099098 206.85893692 689 202 c 0
 676.11409396 8.71140939597 484.857844241 -10.0985541192 328.361501643 -10.0985541192 c 0xaa
 290.541552182 -10.0985541192 254.751677852 -9 224 -9 c 0
 199.384615385 -9 153.183431953 -7.48520710059 104.506144743 -7.48520710059 c 0
 74.0828402367 -7.48520710059 42.6923076923 -8.07692307692 15 -10 c 1x4a
268 432 m 1
 268 406 268 379 268 352 c 1
 322 359 389 369 424 375 c 0
 436.105343618 376.862360557 524.515197776 393.465365195 524.515197776 414.312510282 c 0
 524.515197776 415.853237418 524.032295826 417.417146401 523 419 c 0
 511.246930104 437.609027335 468.317636674 443.507748151 418.522434195 443.507748151 c 0x2c
 366.634853358 443.507748151 307.292234085 437.102887544 268 432 c 1
270 297 m 1
 271 266 272 234 273 205 c 1
 310 203 355 201 392 200 c 0
 396.152572745 199.898717738 400.30514549 199.848725959 404.447328603 199.848725959 c 0
 483.339628434 199.848725959 558.100096817 216.582276706 558.100096817 246.792742493 c 0x8a
 558.100096817 273.140970303 531.155042796 307.284756206 408.919337132 307.284756206 c 0
 402.542158122 307.284756206 395.905614127 307.191822615 389 307 c 0
 338 306 299 302 270 297 c 1
EndSplineSet
Validated: 1
EndChar

StartChar: Ntilde
Encoding: 209 209 60
Width: 760
VWidth: 0
Flags: W
HStem: -12 86<238 341> 0 66<23 108> 529 82<36 115> 543 74<665 745> 553 52<473 557> 653.33 134.163<216.743 340.051> 696.05 157.968<382.08 544.366>
VStem: 108 130<74 240.444>
LayerCount: 2
Fore
SplineSet
15 0 m 1x41
 23 66 l 1
 108 69 l 1
 111 158 120 387 127 521 c 1
 31 529 l 1
 36 611 l 1x61
 164 612 l 2
 178 612 308 520 389 452 c 0
 444 406 509 354 561 313 c 1
 557 549 l 1
 473 553 l 1
 473 605 l 1x09
 745 617 l 1
 745 539 l 1
 665 543 l 1
 669 500 675 429 679 384 c 0
 688.356287772 279.521453214 700.144245568 74.7365179315 700.144245568 -14.216462981 c 0
 700.144245568 -39.3510130399 699.203093523 -55.2375251812 697 -57 c 0
 696.771945591 -57.1824435274 696.441953907 -57.2717912785 696.014199964 -57.2717912785 c 0
 677.685292088 -57.2717912785 479.859727954 106.775384991 431 140 c 0
 381 174 229 288 229 288 c 1
 238 74 l 1
 341 78 l 1
 345 -12 l 1x91
 15 0 l 1x41
122 742 m 1
 174 836 l 1
 216.998148129 806.724665104 246.604964488 787.492829035 280.431428788 787.492829035 c 0x05
 283.579669011 787.492829035 286.764460189 787.659416862 290 788 c 0
 328 792 393 853 452 854 c 0
 452.67816092 854.011494253 453.358435725 854.01717532 454.040686223 854.01717532 c 0
 512.714229092 854.01717532 586 812 586 812 c 1
 546 684 l 1
 546 684 498.47107438 696.049586777 458.184072126 696.049586777 c 0x03
 449.231404959 696.049586777 440.636363636 695.454545455 433 694 c 0
 387.729832961 684.7611904 319.413653159 653.329924066 258.806242943 653.329924066 c 0x05
 253.812766421 653.329924066 248.871618561 653.54328576 244 654 c 0
 180 660 122 742 122 742 c 1
EndSplineSet
Validated: 1
EndChar

StartChar: ntilde
Encoding: 241 241 61
Width: 601
VWidth: 0
Flags: W
HStem: -16.9211 56.5381<499.417 580.975> -11 74<36 108 206 256> 210.184 200.093<310.729 433.212> 359 47<25 78.7295> 474 146.425<178.851 255.275> 529.382 157.601<310.443 425.642>
VStem: 108 98<64 186.235> 115.804 409.615<207.258 337.127> 437.396 75.9503<59.1293 206.17>
LayerCount: 2
Fore
SplineSet
15 359 m 1x51
 25 406 l 1x51
 43.2175583411 407.844816035 61.7010031042 408.785618234 79.567413527 408.785618234 c 0
 139.178258671 408.785618234 191.920234073 398.312541875 205 376 c 0
 207 373 209 365 210 355 c 1
 269.151101357 377.750423599 365.108017749 410.277391816 431.144589753 410.277391816 c 0
 452.187590203 410.277391816 470.192415025 406.974534041 483 399 c 0
 516.441158372 377.681261538 525.419262016 319.667940985 525.419262016 257.317742726 c 0x21
 525.419262016 185.017024535 513.346846919 106.884719858 513.346846919 73.3744125429 c 0
 513.346846919 66.6506012235 513.832882848 61.7232733547 515 59 c 0
 519.897712198 47.1055560896 529.690849862 39.6169950977 548.832170207 39.6169950977 c 0
 557.04836639 39.6169950977 566.986926848 40.996731712 579 44 c 1
 587 0 l 1
 587 0 545.120166568 -16.9211448212 505.107849728 -16.9211448212 c 0xa080
 483.601229427 -16.9211448212 462.634146341 -12.0325203252 449 3 c 0
 438.700260397 14.5357083551 437.396497918 48.6462272264 437.396497918 85.8213031097 c 0
 437.396497918 98.4229975152 437.546312 111.376837195 437.546312 123.922856169 c 0
 437.546312 164.200394281 436.002243394 200.274701693 423 207 c 0
 418.721834483 209.232086357 410.56861713 210.18402166 399.782419307 210.18402166 c 0
 352.580549822 210.18402166 254.955611395 191.95392084 211 183 c 1
 206 64 l 1
 256 65 l 1
 264 -12 l 1
 23 -11 l 1
 36 62 l 1
 108 63 l 1x6280
 115 201 l 2
 115.542372881 212.86440678 115.804366561 223.827923011 115.804366561 233.959416493 c 0
 115.804366561 373.267451882 66.2711864407 355.271186441 15 359 c 1x51
70 551 m 1
 130 676 l 1
 130 676 187 628 230 621 c 0
 232.514509833 620.60981744 234.953838219 620.424504323 237.327600351 620.424504323 c 0x08
 282.314501478 620.424504323 303.752095744 686.983065122 367.089634602 686.983065122 c 0
 377.498082604 686.983065122 389.03805269 685.185628819 402 681 c 0
 463 661 494 609 494 609 c 1
 450 495 l 1
 415.251687259 515.117444218 378.831012692 529.381622046 343.796489549 529.381622046 c 0x04
 340.518019213 529.381622046 337.251687259 529.256712152 334 529 c 0
 296 526 240 474 181 474 c 0x08
 122 474 70 551 70 551 c 1
EndSplineSet
Validated: 1
EndChar

StartChar: ccedilla
Encoding: 231 231 62
Width: 480
VWidth: 0
Flags: W
HStem: -9 130<293 373.01> -2 122<128.269 194> 254.792 163.195<163.001 360.698> 405 20G<382.241 442>
VStem: 14.9102 60.0004<146.916 224.491> 372 41<136 151.366>
LayerCount: 2
Fore
SplineSet
16 201 m 0x4c
 30.1947979586 351.913115139 157.135973743 417.987371715 272.560163093 417.987371715 c 0x6c
 311.633389208 417.987371715 349.386828675 410.415606124 381 396 c 1
 385 425 l 1x1c
 442 410 l 1
 425 226 l 1
 360 225 l 1
 362 243 l 1
 327.723715338 248.181298844 274.385283188 254.79225875 222.940967646 254.79225875 c 0
 146.854099698 254.79225875 74.9105790652 240.330898312 74.9105790652 185.394213656 c 0
 74.9105790652 141.767175695 128.793984262 125.09421998 194 120 c 1x6c
 192 156 l 1
 293 155 l 1
 293 121 l 1
 324 124 353 130 374 136 c 1
 372 150 l 1
 413 158 l 1
 466 -13 l 1
 394 -27 l 1
 391 -3 l 1
 356 -7 322 -9 291 -9 c 1x8c
 289 -137 l 1
 179 -145 l 1
 174 -95 l 1
 206 -76 l 1
 202 -2 l 1
 86.2262455266 17.6068455157 14.9101961435 77.3127975833 14.9101961435 178.745634645 c 0
 14.9101961435 185.952893543 15.270252413 193.370820681 16 201 c 0x4c
EndSplineSet
Validated: 1
EndChar

StartChar: k
Encoding: 107 107 63
Width: 655
VWidth: 0
Flags: W
HStem: -6.80506 71.8051<28 98 385 396.664> -6 80<197 256.312> 488 75<519 585> 514 51<270 331> 662.134 51.8662<22 82.77> 699.859 20G<130.203 156.453>
VStem: 98 99<71 114> 103.164 86.9735<73.7567 128.299 349 559.281>
LayerCount: 2
Fore
SplineSet
15 -3 m 1x82
 28 61 l 1
 98 65 l 1x82
 102 251 l 1
 102.799159748 264.585715715 103.16403321 283.791606893 103.16403321 306.531205715 c 0
 103.16403321 426.063529882 93.082016605 643.237647294 83 655 c 0
 78.2857142857 660.761904762 61.2244897959 662.133786848 46.0447035957 662.133786848 c 0
 32.2448979592 662.133786848 20 661 20 661 c 1
 22 714 l 1x89
 65.75 714 113.796875 719.859375 146.609375 719.859375 c 0
 166.296875 719.859375 180.5 717.75 185 711 c 0
 189.20940147 704.919753432 190.137495396 648.526124522 190.137495396 580.698294782 c 0
 190.137495396 527.196482338 189.560047137 466.58045528 189.560047137 417.931112632 c 0
 189.560047137 396.38874384 189.673273103 377.1928007 190 362 c 2
 190 349 l 1
 245 397 298 463 331 509 c 1
 264 514 l 1
 270 565 l 1x15
 585 563 l 1
 591 488 l 1
 519 494 l 1
 469 415 418 349 366 289 c 1
 418 213 487 126 542 67 c 1
 640 69 l 1
 636 -11 l 1
 385 0 l 1
 377 63 l 1
 432 64 l 1
 314 232 l 1
 275 191 236 152 196 114 c 1
 197 71 l 1
 255 74 l 1
 270 -6 l 1x62
 244.589089025 -6.55848155989 220.659710901 -6.80506146704 197.362682934 -6.80506146704 c 0
 137.229819424 -6.80506146704 81.3098482452 -5.16227766017 15 -3 c 1x82
EndSplineSet
Validated: 1
EndChar

StartChar: Ccedilla
Encoding: 199 199 64
Width: 704
VWidth: 0
Flags: W
HStem: -166 74<256 291> 404.234 214.857<293.262 541>
VStem: 15.4198 72.457<235.49 327.897> 532 53<360 382.067>
LayerCount: 2
Fore
SplineSet
16 267 m 0
 15.6109605786 274.576030838 15.4198103231 281.992744126 15.4198103231 289.253384845 c 0
 15.4198103231 575.257963748 312.019683754 619.091249271 493.327006885 619.091249271 c 0
 532.207094856 619.091249271 565.785362181 617.075540384 590 615 c 1
 611 707 l 1
 690 691 l 1
 585 360 l 1
 532 358 l 1
 541 399 l 1
 509.625394147 401.434236661 462.668896566 404.234245428 410.696300923 404.234245428 c 0
 270.835236677 404.234245428 87.8768274977 384.491421801 87.8768274977 276.562993375 c 0
 87.8768274977 213.861413709 163.66456389 195.43264996 256.567053373 195.43264996 c 0
 266.215348961 195.43264996 276.048238359 195.631416236 286 196 c 1
 284 259 l 1
 419 257 l 1
 416 208 l 1
 474 217 524 228 553 234 c 1
 546 279 l 1
 612 303 l 1
 684 -19 l 1
 597 -55 l 1
 586 19 l 1
 534 0 468 -12 400 -14 c 1
 389 -161 l 1
 247 -166 l 1
 256 -92 l 1
 296 -84 l 1
 293 -7 l 1
 151 15 25 93 16 267 c 0
EndSplineSet
Validated: 1
EndChar

StartChar: v
Encoding: 118 118 65
Width: 621
VWidth: 0
Flags: W
HStem: 367 47<246 283> 403 20G<406.898 609>
LayerCount: 2
Fore
SplineSet
10 409 m 1x40
 25.1515049157 411.886000936 148.58002809 416.333689636 224.792953542 416.333689636 c 0
 254.211214127 416.333689636 276.594505384 415.670998596 283 414 c 1
 286 367 l 1x80
 246 361 l 1
 272.820153822 299.412980113 335.086371995 162.993940289 360.316232748 162.993940289 c 0
 386.347585926 162.993940289 429.133438736 285.303269854 462 360 c 1
 395 364 l 1
 413 423 l 1
 609 406 l 1
 610 350 l 1
 532 355 l 1
 498 237 401 -58 315 -63 c 0
 314.524941837 -63.0260305843 314.04780855 -63.0389751862 313.568636519 -63.0389751862 c 0
 240.415649364 -63.0389751862 119.746201803 238.657272253 81 339 c 1
 19 330 l 1
 10 409 l 1x40
EndSplineSet
Validated: 1
EndChar

StartChar: w
Encoding: 119 119 66
Width: 846
VWidth: 0
Flags: W
HStem: -34.0341 214.028<563.759 643.828> 335 77<17 65.2222> 370 55<236.5 281 765.303 836> 385 47<639 709.22>
LayerCount: 2
Fore
SplineSet
10 335 m 1xc0
 17 412 l 1xc0
 281 425 l 1
 289 370 l 1xa0
 229 362 l 1
 244 301 282 166 331 166 c 0
 360 166 399 303 446 400 c 0
 453.561479541 415.627057717 460.614728212 423.376536954 468.184539966 423.376536954 c 0
 475.631257146 423.376536954 483.577874085 415.877040919 493 401 c 0
 550.76615761 308.374954177 602.107945682 179.993577673 631.322187834 179.993577673 c 0
 656.333853712 179.993577673 695.068569464 295.338561728 711 374 c 1
 673 379 637 385 637 385 c 1
 639 432 l 1x90
 837 423 l 1
 836 370 l 2xa0
 836 370 821.375 368.3125 795.921875 368.3125 c 0
 787.4375 368.3125 777.75 368.5 767 369 c 1
 751 193 667 -29 585 -34 c 0
 584.696202532 -34.0227848101 584.38877103 -34.0340906906 584.077773839 -34.0340906906 c 0
 543.440807563 -34.0340906906 441.924050633 159 432 159 c 0
 423.02425876 159 341.441518152 -25.004039494 294.380814647 -25.004039494 c 0
 182.345856417 -25.004039494 103.51643859 256.871172413 81 344 c 1
 10 335 l 1xc0
EndSplineSet
Validated: 1
EndChar

StartChar: x
Encoding: 120 120 67
Width: 558
VWidth: 0
Flags: W
HStem: -13.12 21G<66.456 99.576> 348 68<471 529.515> 365 49<194 227 279 302.945>
LayerCount: 2
Fore
SplineSet
15 -8 m 1xc0
 29 55 l 1
 77 51 l 1
 216 241 l 1
 178 285 143 324 119 352 c 1
 47 344 l 1
 44 410 l 1
 44 410 60 408.693877551 80.9912536443 408.693877551 c 0
 96.7346938776 408.693877551 115.285714286 409.428571429 132 412 c 0
 148.714285714 414.571428571 168.551020408 415.306122449 185.763848397 415.306122449 c 0
 208.714285714 415.306122449 227 414 227 414 c 1
 230 365 l 1xa0
 194 361 l 1
 209 342 230 318 253 292 c 1
 303 361 l 1
 269 363 l 1
 279 412 l 1
 330 413 382 417 426 417 c 0
 470 417 534 416 534 416 c 1
 529 348 l 1
 471 351 l 1
 452 307 409 239 361 171 c 1
 409 119 454 69 482 40 c 1
 538 43 l 1
 544 -20 l 1
 544 -20 514.681440443 -23.8005540166 480.4478787 -23.8005540166 c 0
 468.221606648 -23.8005540166 455.368421053 -23.3157894737 443 -22 c 0
 429.176470588 -20.5294117647 415.266435986 -20.0103806228 402.516588642 -20.0103806228 c 0
 371.916955017 -20.0103806228 348 -23 348 -23 c 1
 354 34 l 1
 393 36 l 1
 375 57 350 85 323 117 c 1
 301 87 280 59 260 34 c 1
 289 31 l 1
 284 -24 l 1
 284 -24 232.641975309 -11.3580246914 164.340192044 -11.3580246914 c 0
 155.802469136 -11.3580246914 147 -11.5555555556 138 -12 c 0
 121.2 -12.8 106.2 -13.12 92.952 -13.12 c 0
 39.96 -13.12 15 -8 15 -8 c 1xc0
EndSplineSet
Validated: 1
EndChar

StartChar: y
Encoding: 121 121 68
Width: 519
VWidth: 0
Flags: W
HStem: -172.687 120.943<98.3431 342.03> 17.8151 197.432<161.796 304.55> 356 62.4092<15 67.6654> 357 49<312 356.408 448.058 511>
VStem: 59.3619 400.275<57.9458 211.637> 364 95.6368<-28.321 57>
LayerCount: 2
Fore
SplineSet
15 361 m 1xe8
 15 413 l 1
 15 413 39.7622267842 419.677454414 69.0341812517 419.677454414 c 0
 95.2569737954 419.677454414 125.098901099 414.318681319 144 394 c 0
 169 367 143 233 172 219 c 0
 177.591371817 216.325865653 188.974458193 215.247407766 203.692470906 215.247407766 c 0
 249.516719284 215.247407766 327.668949879 225.701721857 364 231 c 1
 362 282 358 328 356 356 c 1xe4
 312 357 l 1
 307 406 l 1xd4
 357.933794696 415.019526144 393.103908754 418.409166346 425.503767466 418.409166346 c 0
 454.171152123 418.409166346 480.66978566 415.755517109 514 412 c 1
 511 352 l 1
 447 354 l 1
 451.369848481 298.440497885 459.636753237 169.616337802 459.636753237 56.3244352765 c 0
 459.636753237 -11.8643980016 456.64192642 -74.4264068712 448 -112 c 0
 437.161290323 -158.451612903 372.378772112 -172.686784599 297.039508576 -172.686784599 c 0
 177.752341311 -172.686784599 32 -137 32 -137 c 1
 41 -31 l 1
 41 -31 118.564494645 -51.743992754 207.676105537 -51.743992754 c 0
 251.263306516 -51.743992754 297.613138686 -46.7810218978 339 -32 c 0
 353 -27 361 9 364 57 c 1xe4
 323.445841217 43.4819470725 235.815197087 17.8151237327 167.375393804 17.8151237327 c 0
 139.621146852 17.8151237327 115.022888278 22.0361058551 98 33 c 0
 68.2163094067 51.6148066208 59.3618847555 92.6835276959 59.3618847555 138.351910718 c 0
 59.3618847555 205.328734129 78.4067616029 282.198915808 78.4067616029 312.641708839 c 0
 78.4067616029 317.196805984 77.9803741018 320.712460429 77 323 c 0
 70 340 57 358 15 361 c 1xe8
EndSplineSet
Validated: 1
EndChar

StartChar: z
Encoding: 122 122 69
Width: 488
VWidth: 0
Flags: W
HStem: -14.7163 152.904<80.7318 384.507> -7 145.188<222.933 385.499> 270.309 146.113<113 257.493> 435 20G<34.7638 116>
VStem: 32 84<214 267.295> 406 51<150.47 180>
LayerCount: 2
Fore
SplineSet
11 -8 m 0xbc
 10.5987929012 -7.59879290124 10.4036237367 -7.02660293347 10.4036237367 -6.29272978339 c 0
 10.4036237367 20.0634106544 262.132381024 254.958162446 262.132381024 267.616257839 c 0
 262.132381024 269.947571389 242.776213262 270.309401077 220.595135712 270.309401077 c 0
 189.151264021 270.309401077 145.908965344 269.154700538 113 268 c 1
 114 253 115 235 116 214 c 1
 32 201 l 1
 35 455 l 1
 116 451 l 1
 115 437 114 426 113 416 c 1
 140.629103435 416.240253073 174.434411571 416.422784607 209.950500147 416.422784607 c 0
 319.852155542 416.422784607 457.348641468 415.505863367 457.348641468 405.735579915 c 0
 457.348641468 382.056219926 221.857348859 154.333355274 221.857348859 141.41791098 c 0
 221.857348859 138.78788774 234.014040871 138.1875 246.046875 138.1875 c 0xbc
 285.375 138.1875 362.25 145.5 402 150 c 1
 403 160 405 172 406 184 c 1
 457 180 l 1
 473 -58 l 1
 387 -61 l 1
 387 -39 387 -22 387 -7 c 1x7c
 313.389135736 -10.0928934565 191.948321807 -14.7163453022 106.940159893 -14.7163453022 c 0
 54.5233456305 -14.7163453022 15.9584770132 -12.9584770132 11 -8 c 0xbc
EndSplineSet
Validated: 1
EndChar

StartChar: ocircumflex
Encoding: 244 244 70
Width: 486
VWidth: 0
Flags: W
HStem: -18.9067 138.742<206.018 369.097> 278.182 135.996<112.524 287.669> 450 21G<366.403 418.268>
VStem: 14.9921 78.9115<188.345 269.771> 401.259 70.1549<137.485 220>
LayerCount: 2
Fore
SplineSet
222.104850428 414.178275416 m 0
 226.002212152 414.178275416 229.96693583 414.119321425 234 414 c 0
 365.287626258 410.138599228 471.413925644 354.09074272 471.413925644 213.470441473 c 0
 471.413925644 208.423085267 471.277198455 203.266770653 471 198 c 0
 462.6 41.2 387.995555556 -18.9066666667 262.63437037 -18.9066666667 c 0
 253.68 -18.9066666667 244.466666667 -18.6 235 -18 c 0
 108.669572994 -10.0421778264 14.9920962006 89.9375949486 14.9920962006 213.040659283 c 0
 14.9920962006 314.999583727 62.3204236046 414.178275416 222.104850428 414.178275416 c 0
50 548 m 1
 50 548 94 583 138 612 c 0
 211 660 262 675 262 675 c 1
 262 675 323 636 359 605 c 0
 395 574 447 532 447 532 c 1
 409 450 l 1
 409 450 328 501 245 527 c 1
 162 506 84 465 84 465 c 1
 50 548 l 1
96 246 m 0
 94.5797737298 240.413776671 93.9036120848 235.114421631 93.9036120848 230.07732005 c 0
 93.9036120848 181.91407933 155.722404345 157.727637968 220 136 c 0
 253.008876173 124.642107123 284.25405681 119.835083379 311.142130823 119.835083379 c 0
 360.009161896 119.835083379 394.484539067 135.712827029 399 157 c 0
 400.518229047 163.890424135 401.259025502 170.248920707 401.259025502 176.13761186 c 0
 401.259025502 220.67147399 358.89062572 238.335736995 290 256 c 0
 247.881598393 266.799590156 198.473750064 278.182336049 159.882753536 278.182336049 c 0
 127.00622959 278.182336049 101.980266399 269.921065595 96 246 c 0
EndSplineSet
Validated: 1
EndChar

StartChar: asciicircum
Encoding: 94 94 71
Width: 486
VWidth: 0
Flags: W
HStem: 450 225
LayerCount: 2
Fore
SplineSet
45 548 m 1
 45 548 89 583 133 612 c 0
 206 660 257 675 257 675 c 1
 257 675 318 636 354 605 c 0
 390 574 442 532 442 532 c 1
 404 450 l 1
 404 450 323 501 240 527 c 1
 157 506 79 465 79 465 c 1
 45 548 l 1
EndSplineSet
Validated: 1
EndChar

StartChar: tilde
Encoding: 732 732 75
Width: 553
VWidth: 0
Flags: W
HStem: 510.33 134.163<139.743 263.051> 553.05 157.968<305.08 467.366>
LayerCount: 2
Fore
SplineSet
45 599 m 1x80
 97 693 l 1
 139.998148129 663.724665104 169.604964488 644.492829035 203.431428788 644.492829035 c 0x80
 206.579669011 644.492829035 209.764460189 644.659416862 213 645 c 0
 251 649 316 710 375 711 c 0
 375.67816092 711.011494253 376.358435725 711.01717532 377.040686223 711.01717532 c 0
 435.714229092 711.01717532 509 669 509 669 c 1
 469 541 l 1
 469 541 421.47107438 553.049586777 381.184072126 553.049586777 c 0x40
 372.231404959 553.049586777 363.636363636 552.454545455 356 551 c 0
 310.729832961 541.7611904 242.413653159 510.329924066 181.806242943 510.329924066 c 0
 176.812766421 510.329924066 171.871618561 510.54328576 167 511 c 0
 103 517 45 599 45 599 c 1x80
EndSplineSet
Validated: 1
EndChar

StartChar: asciitilde
Encoding: 126 126 76
Width: 553
VWidth: 0
Flags: W
HStem: 220.33 134.163<139.743 263.051> 263.05 157.968<305.08 467.366>
LayerCount: 2
Fore
SplineSet
45 309 m 1x80
 97 403 l 1
 139.998148129 373.724665104 169.604964488 354.492829035 203.431428788 354.492829035 c 0x80
 206.579669011 354.492829035 209.764460189 354.659416862 213 355 c 0
 251 359 316 420 375 421 c 0
 375.67816092 421.011494253 376.358435725 421.01717532 377.040686223 421.01717532 c 0
 435.714229092 421.01717532 509 379 509 379 c 1
 469 251 l 1
 469 251 421.47107438 263.049586777 381.184072126 263.049586777 c 0x40
 372.231404959 263.049586777 363.636363636 262.454545455 356 261 c 0
 310.729832961 251.7611904 242.413653159 220.329924066 181.806242943 220.329924066 c 0
 176.812766421 220.329924066 171.871618561 220.54328576 167 221 c 0
 103 227 45 309 45 309 c 1x80
EndSplineSet
Validated: 1
EndChar

StartChar: atilde
Encoding: 227 227 77
Width: 473
VWidth: 0
HStem: -24.4648 128.227<114.497 250.045> -8.64 59.1156<379.024 455.916> 297.959 124.748<177.723 320.461> 484.946 146.479<114.463 209.601> 540.382 157.601<244.524 360.642>
VStem: 27 55<395 414> 27 68<218.353 253>
LayerCount: 2
Fore
SplineSet
385 506 m 1x28
 350.251687259 526.117444218 313.831012692 540.381622046 278.796489549 540.381622046 c 0x28
 275.518019213 540.381622046 272.251687259 540.256712152 269 540 c 0
 231.690560502 537.054517934 219.444729846 484.945803142 121.525892518 484.945803142 c 0
 119.713512531 484.945803142 117.871782414 484.96365471 116 485 c 0
 57 486 5 563 5 563 c 1
 65 688 l 1
 65 688 122 639 165 632 c 0
 167.514509833 631.60981744 169.953838219 631.424504323 172.327600351 631.424504323 c 0x30
 217.314501478 631.424504323 238.752095744 697.983065122 302.089634602 697.983065122 c 0
 312.498082604 697.983065122 324.03805269 696.185628819 337 692 c 0
 398 672 429 620 429 620 c 1
 385 506 l 1x28
EndSplineSet
Refer: 0 97 N 1 0 0 1 0 0 3
Validated: 1
EndChar

StartChar: ograve
Encoding: 242 242 80
Width: 486
VWidth: 0
HStem: -18.9067 138.742<116.903 279.982> 278.182 135.996<198.331 373.478>
VStem: 14.5861 70.1549<137.485 220> 393.071 77.9364<188.385 269.512>
LayerCount: 2
Fore
SplineSet
15 198 m 0
 14.7228015446 203.266770653 14.5860743562 208.423085267 14.5860743562 213.470441473 c 0
 14.5860743562 354.09074272 120.712373742 410.138599228 252 414 c 0
 256.03306417 414.119321425 259.997787848 414.178275416 263.895149572 414.178275416 c 0
 423.683539243 414.178275416 471.007903799 314.998560115 471.007903799 213.040659283 c 0
 471.007903799 89.9375949486 377.330427006 -10.0421778264 251 -18 c 0
 241.533333333 -18.6 232.32 -18.9066666667 223.36562963 -18.9066666667 c 0
 98.0044444444 -18.9066666667 23.4 41.2 15 198 c 0
43 609 m 1
 162 727 l 1
 162 727 234 669 288 601 c 0
 325 554 349 500 349 500 c 1
 272 464 l 1
 43 609 l 1
87 157 m 0
 91.5154609332 135.712827029 125.990838104 119.835083379 174.857869177 119.835083379 c 0
 201.74594319 119.835083379 232.991123827 124.642107123 266 136 c 0
 330.35737728 157.754606405 393.071480603 181.974123746 393.071480603 230.256772165 c 0
 393.071480603 235.240247734 392.403370997 240.480074078 391 246 c 0
 385.019733601 269.921065595 359.782151556 278.182336049 326.677087922 278.182336049 c 0
 287.817827805 278.182336049 238.118401607 266.799590156 196 256 c 0
 127.10937428 238.335736995 84.7409744983 220.67147399 84.7409744983 176.13761186 c 0
 84.7409744983 170.248920707 85.4817709534 163.890424135 87 157 c 0
EndSplineSet
Validated: 1
EndChar

StartChar: oacute
Encoding: 243 243 81
Width: 486
VWidth: 0
HStem: -18.1783 117.353<251.872 373.476> 291.17 123.736<116.903 247.452>
VStem: 14.5861 77.2369<195.442 281.888> 385.139 85.8687<114.964 190.165>
LayerCount: 2
Fore
SplineSet
15 198 m 0
 23.4 354.8 98.0044444444 414.906666667 223.36562963 414.906666667 c 0
 232.32 414.906666667 241.533333333 414.6 251 414 c 0
 377.330427006 406.042177826 471.007903799 306.062405051 471.007903799 182.959340717 c 0
 471.007903799 81.0004162735 423.679576395 -18.1782754157 263.895149572 -18.1782754157 c 0
 259.997787848 -18.1782754157 256.03306417 -18.1193214252 252 -18 c 0
 120.712373742 -14.1385992277 14.5860743562 41.9092572795 14.5860743562 182.529558527 c 0
 14.5860743562 187.576914733 14.7228015446 192.733229347 15 198 c 0
99 269 m 0
 94.1406009781 257.863877242 91.8229607218 247.834649429 91.8229607218 238.62179257 c 0
 91.8229607218 202.333433409 127.780672025 178.710901467 186 150 c 0
 235.225796686 125.724264648 295.364766092 99.174951646 336.367511581 99.174951646 c 0
 356.170291288 99.174951646 371.509497586 105.367647136 379 121 c 0
 383.210277194 129.744421865 385.139193793 138.121728231 385.139193793 146.182874858 c 0
 385.139193793 187.902253988 333.474307015 221.153482053 279 253 c 0
 233.807534004 279.900277379 189.193967946 291.17025642 155.437197312 291.17025642 c 0
 126.449688105 291.17025642 105.467922334 282.859833573 99 269 c 0
179 498 m 1
 179 498 212 562 245 606 c 0
 299 678 358 738 358 738 c 1
 469 625 l 1
 254 467 l 1
 179 498 l 1
EndSplineSet
Validated: 1
EndChar

StartChar: otilde
Encoding: 245 245 82
Width: 486
VWidth: 0
HStem: -18.1783 117.353<251.872 373.476> 291.17 123.736<116.903 247.452> 493.14 124.678<114.479 237.08> 527.05 142.966<255.448 386.946> 632 20G<87.3671 113.443>
VStem: 14.5861 77.2369<195.442 281.888> 385.139 85.8687<114.964 190.165>
LayerCount: 2
Fore
SplineSet
15 198 m 0xc6
 23.4 354.8 98.0044444444 414.906666667 223.36562963 414.906666667 c 0
 232.32 414.906666667 241.533333333 414.6 251 414 c 0
 377.330427006 406.042177826 471.007903799 306.062405051 471.007903799 182.959340717 c 0
 471.007903799 81.0004162735 423.679576395 -18.1782754157 263.895149572 -18.1782754157 c 0
 259.997787848 -18.1782754157 256.03306417 -18.1193214252 252 -18 c 0
 120.712373742 -14.1385992277 14.5860743562 41.9092572795 14.5860743562 182.529558527 c 0
 14.5860743562 187.576914733 14.7228015446 192.733229347 15 198 c 0xc6
56 573 m 1
 98 652 l 1
 128.886997704 625.98989667 150.524623677 617.817867394 173.652927672 617.817867394 c 0xee
 178.979171452 617.817867394 184.384471872 618.251262916 190 619 c 0
 221 623 273 669 320 670 c 0
 320.505376344 670.010752688 321.01156203 670.016071222 321.518481222 670.016071222 c 0
 368.155046826 670.016071222 421 625 421 625 c 1
 395 515 l 1
 395 515 356.842975207 527.049586777 324.345604808 527.049586777 c 0xd6
 317.123966942 527.049586777 310.181818182 526.454545455 304 525 c 0
 268.830467828 515.982171238 218.209900895 493.139732427 171.205164609 493.139732427 c 0xe6
 166.085672851 493.139732427 161.009073313 493.410697257 156 494 c 0
 105 500 56 573 56 573 c 1
99 269 m 0
 94.1406009781 257.863877242 91.8229607218 247.834649429 91.8229607218 238.62179257 c 0
 91.8229607218 202.333433409 127.780672025 178.710901467 186 150 c 0
 235.225796686 125.724264648 295.364766092 99.174951646 336.367511581 99.174951646 c 0
 356.170291288 99.174951646 371.509497586 105.367647136 379 121 c 0
 383.210277194 129.744421865 385.139193793 138.121728231 385.139193793 146.182874858 c 0
 385.139193793 187.902253988 333.474307015 221.153482053 279 253 c 0
 233.807534004 279.900277379 189.193967946 291.17025642 155.437197312 291.17025642 c 0
 126.449688105 291.17025642 105.467922334 282.859833573 99 269 c 0
EndSplineSet
Validated: 1
EndChar

StartChar: odieresis
Encoding: 246 246 83
Width: 486
VWidth: 0
Flags: W
HStem: -18.9067 138.742<206.018 369.097> 278.182 135.996<112.524 287.669> 483.944 143.16<-55.8157 50.6163 164.715 269.392>
VStem: -76 151<505.499 602.875> 14.9921 78.9115<188.345 269.771> 137 151<511.125 603.273> 401.259 70.1549<137.485 220>
LayerCount: 2
Fore
SplineSet
-2 484 m 0xf6
 -3.12618178658 483.962460607 -4.23615770396 483.943945495 -5.33013935508 483.943945495 c 0
 -62.5206192793 483.943945495 -76 534.544321197 -76 563 c 0
 -76 600.641298323 -50.8485087678 627.104156098 0.353557062865 627.104156098 c 0
 2.20174869889 627.104156098 4.08388224986 627.069677009 6 627 c 0
 41 626 75 588 75 554 c 0
 75 520 46 485 -2 484 c 0xf6
217 624 m 0
 218.268148085 624.042271603 219.514406788 624.063100545 220.739134897 624.063100545 c 0
 277.460073688 624.063100545 288 579.387061759 288 551 c 0
 288 513.358701677 262.848508768 486.895843902 211.646442937 486.895843902 c 0
 209.798251301 486.895843902 207.91611775 486.930322991 206 487 c 0
 171 488 137 526 137 560 c 0
 137 594 169 623 217 624 c 0
EndSplineSet
Refer: 26 111 N 1 0 0 1 0 0 3
Validated: 1
EndChar

StartChar: ugrave
Encoding: 249 249 84
Width: 576
VWidth: 0
HStem: -22.2189 214.207<177.979 338.374> 351.765 76.3333<27 72.4072> 372 43<328 371.968>
VStem: 369.962 89.0422<203.206 326.437> 378.79 81.6543<225.158 355.349>
LayerCount: 2
Fore
SplineSet
-2 639 m 1x80
 131 742 l 1
 131 742 195 675 240 600 c 0
 271 548 287 492 287 492 c 1
 206 466 l 1
 -2 639 l 1x80
19 350 m 1
 27 428 l 1
 27 428 28.9930795848 428.098423683 32.5083489759 428.098423683 c 0
 51.4029219531 428.098423683 114.274509804 425.254901961 148 389 c 0
 173 362 160 210 189 196 c 0
 194.743780031 193.128109984 207.333194439 191.988247944 223.736353641 191.988247944 c 0
 264.449445803 191.988247944 328.65696209 199.010323011 370 204 c 1
 369.974093986 205.813420988 369.961610403 207.622144125 369.961610403 209.42542181 c 0xd0
 369.961610403 257.380686867 378.790104275 301.484882406 378.790104275 327.677814485 c 0
 378.790104275 338.519741235 377.277479101 346.292851446 373 350 c 0
 351 370 328 372 328 372 c 1
 312 415 l 1
 334.978614918 419.595722984 360.226392702 421.747732113 382.8572792 421.747732113 c 0
 414.394094359 421.747732113 440.849101979 417.568691019 449 410 c 0
 458.333333333 401.333333333 460.444444444 373.111111111 460.444444444 336.851851852 c 0xa8
 460.444444444 306.898550725 459.003780718 271.460617517 459.003780718 237.03147859 c 0
 459.003780718 188.105860113 461.913043478 141.217391304 476 115 c 0
 494 81 565 -10 565 -10 c 1
 537 -59 l 1
 537 -59 488 -19 446 27 c 1
 392.676731626 11.9793610214 266.027094772 -22.2189435597 180.428168402 -22.2189435597 c 0
 152.052014894 -22.2189435597 128.187051115 -18.4607859407 113 -9 c 0
 81.669717549 10.5814265318 72.7318793754 59.1503322994 72.7318793754 112.680634975 c 0
 72.7318793754 183.800544248 88.5085542981 263.678090956 88.5085542981 295.968007518 c 0
 88.5085542981 301.432697054 88.0566852248 305.534401142 87 308 c 0
 80.8500334673 322.935633008 63.8937559767 351.76509439 32.7404302458 351.76509439 c 0xd0
 28.4344930754 351.76509439 23.8573340991 351.214333525 19 350 c 1
EndSplineSet
Validated: 1
EndChar

StartChar: uacute
Encoding: 250 250 85
Width: 569
VWidth: 0
Flags: W
HStem: -56.012 82.9942<493.722 559> -32.2263 187.634<129.247 286.07> 354.556 60.6303<324.147 381.776> 368.191 59.8856<38 69.6894>
VStem: 72.2361 86.9537<251.392 365.049>
LayerCount: 2
Fore
SplineSet
20 368 m 1x58
 38 428 l 1
 38 428 39.6551724138 428.076099881 42.5876419697 428.076099881 c 0
 60.9155766944 428.076099881 129.137931034 425.103448276 155 382 c 0
 157.981210508 376.979013882 159.189821684 369.323748201 159.189821684 359.887911056 c 0
 159.189821684 319.446429677 136.98844816 246.297049399 136.98844816 207.652147604 c 0
 136.98844816 197.848292308 138.417306627 190.265111158 142 186 c 0
 162.043723638 162.74928058 198.80028294 155.407895108 237.388504234 155.407895108 c 0x58
 295.060394062 155.407895108 356.823610765 171.806121309 373 176 c 1
 371 248 374 326 359 339 c 0
 344.333333333 352.333333333 332.777777778 354.555555556 326.703703704 354.555555556 c 0
 323.666666667 354.555555556 322 354 322 354 c 1
 324 410 l 1
 342.120557047 413.624111409 356.984704959 415.185830367 369.271929194 415.185830367 c 0
 394.279216996 415.185830367 408.61250543 408.716959244 418 400 c 0
 446 374 453 171 466 96 c 0
 477.076923077 29.5384615385 546.946745562 26.9822485207 557.630405098 26.9822485207 c 0
 558.520710059 26.9822485207 559 27 559 27 c 1
 559 -56 l 1
 559 -56 558.581163435 -56.011966759 557.783295524 -56.011966759 c 0xa8
 545.948254848 -56.011966759 450.715789474 -53.3789473684 402 30 c 1
 340.960348194 4.51091463062 238.077557202 -32.2263264342 150.692667176 -32.2263264342 c 0
 107.801175258 -32.2263264342 68.6434098122 -23.3756562835 40 0 c 0
 21.8128561348 14.9483374234 15.0466327356 41.5658761924 15.0466327356 73.5741877055 c 0
 15.0466327356 166.630892891 72.236112488 305.251492513 72.236112488 335.15739003 c 0
 72.236112488 354.357568213 60.7205785785 368.190537793 27.4665063399 368.190537793 c 0
 25.111672264 368.190537793 22.6255504433 368.128075631 20 368 c 1x58
188 502 m 1
 188 502 233 558 273 596 c 0
 339 657 407 705 407 705 c 1
 496 574 l 1
 256 458 l 1
 188 502 l 1
EndSplineSet
Validated: 1
EndChar

StartChar: ucircumflex
Encoding: 251 251 86
Width: 576
VWidth: 0
HStem: -17.844 209.407<143.149 246.711> 351.608 57.0354<16.0513 103.048> 372.844 53.5323<299.912 398.676>
VStem: 93.4068 66.1967<193.487 332.892>
LayerCount: 2
Fore
SplineSet
63 475 m 2x90
 21 553 l 1
 21 553 61 592 102 626 c 0
 169 681 218 702 218 702 c 1
 218 702 283 670 322 643 c 0
 361 616 417 580 417 580 c 1
 388 494 l 1
 388 494 303 536 217 553 c 1
 137 523 63 475 63 475 c 2x90
EndSplineSet
Refer: 1 117 N 1 0 0 1 0 0 3
Validated: 1
EndChar

StartChar: udieresis
Encoding: 252 252 87
Width: 576
VWidth: 0
HStem: -17.844 209.407<143.149 246.711> 351.608 57.0354<16.0513 103.048> 372.844 53.5323<299.912 398.676> 486.944 143.16<59.6878 166.614 276.366 374.282>
VStem: 40 151<508.499 605.316> 93.4068 66.1967<193.487 332.892> 245 151<517.125 610.375>
LayerCount: 2
Fore
SplineSet
114 487 m 0x9a
 112.873818213 486.962460607 111.763842296 486.943945495 110.669860645 486.943945495 c 0
 53.4793807207 486.943945495 40 537.544321197 40 566 c 0
 40 603.641298323 64.2199545199 630.104156098 115.357113659 630.104156098 c 0
 117.20296242 630.104156098 119.08388225 630.069677009 121 630 c 0
 156 629 191 591 191 557 c 0
 191 523 162 488 114 487 c 0x9a
324 630 m 0
 325.268148085 630.042271603 326.51485351 630.063100545 327.740456179 630.063100545 c 0
 384.501898569 630.063100545 396 585.387061759 396 557 c 0
 396 519.358701677 370.848508768 492.895843902 319.646442937 492.895843902 c 0
 317.798251301 492.895843902 315.91611775 492.930322991 314 493 c 0
 279 494 245 532 245 566 c 0
 245 600 276 629 324 630 c 0
EndSplineSet
Refer: 1 117 N 1 0 0 1 0 0 3
Validated: 1
EndChar

StartChar: one
Encoding: 49 49 89
Width: 600
VWidth: 0
Flags: W
HStem: -19 111<439.683 556> -18 102<72 228> 612 20G<272 434>
VStem: 240 190.625<208.667 379>
LayerCount: 2
Fore
SplineSet
36 340 m 1x70
 40 432 l 1
 166 458 266 586 278 632 c 1
 434 627 l 1
 434 627 430.625 480.75 430.625 361.21875 c 0
 430.625 321.375 431 284.5 432 257 c 0
 434 199 438 138 441 92 c 1
 556 94 l 1
 562 -19 l 1xb0
 60 -18 l 1
 72 84 l 1
 228 87 l 1
 240 379 l 1
 191.370738786 356.818231727 132.551489685 338.275744843 69.1309547578 338.275744843 c 0
 58.2141380445 338.275744843 47.1609850486 338.825159469 36 340 c 1x70
EndSplineSet
Validated: 1
EndChar

StartChar: two
Encoding: 50 50 90
Width: 600
VWidth: 0
Flags: W
HStem: -32.2231 191.183<329.137 527.917> 445.55 215.613<301.927 416.063>
VStem: 434.416 107.155<367.884 509.335> 474.414 90.5858<168.629 215>
LayerCount: 2
Fore
SplineSet
28 505 m 1xe0
 28 505 185.12661157 661.162644628 329.020586026 661.162644628 c 0
 331.685289256 661.162644628 334.345454545 661.109090909 337 661 c 0
 448.640701732 656.412025956 541.570731618 562.948360645 541.570731618 455.722571241 c 0xe0
 541.570731618 422.722036284 532.768363387 388.41794763 513 355 c 0
 472.931958474 286.591148614 328.762889739 175.204808931 328.762889739 163.64295343 c 0
 328.762889739 159.824867417 343.46808823 158.959511923 356.073886644 158.959511923 c 0
 385.761386371 158.959511923 433.734670079 163.938069319 473 168 c 1
 473.707106781 181.435028843 474.414213562 193.370057685 474.414213562 203.805086528 c 0
 474.414213562 208.127416998 474.292893219 212.192388155 474 216 c 1
 565 215 l 1xd0
 572 -32 l 1
 572 -32 536.223140496 -32.2231404959 483.859504132 -32.2231404959 c 0
 344.223140496 -32.2231404959 86.6363636364 -30.6363636364 75 -19 c 0
 73.567454664 -17.567454664 72.7793975371 -14.7780920455 72.7793975371 -10.7798985673 c 0
 72.7793975371 15.9225965499 107.930081244 96.5440649951 221 187 c 0
 333.722763268 277.178210615 434.415778505 336.530191897 434.415778505 387.873696437 c 0
 434.415778505 395.74321504 432.050269198 403.424596202 427 411 c 0
 410.692872321 435.815194294 389.861544796 445.549722437 367.179086431 445.549722437 c 0
 325.877678027 445.549722437 278.438839013 413.274861218 241 381 c 1
 268 344 l 1
 172 275 l 1
 121 332 83 419 28 505 c 1xe0
EndSplineSet
Validated: 1
EndChar

StartChar: zero
Encoding: 48 48 91
Width: 600
VWidth: 0
Flags: W
HStem: -34 200.881<197.092 382.352> 435.326 194.674<199.305 404.043>
VStem: 30.9185 82.0815<234.286 361.076> 482.251 80.5059<244.638 373.164>
LayerCount: 2
Fore
SplineSet
31 282 m 0
 30.9455401419 285.64881049 30.9185146382 289.262771934 30.9185146382 292.842156902 c 0
 30.9185146382 552.163564941 172.769945387 630 301 630 c 0
 431 630 539 550 561 306 c 0
 562.186809038 292.83720885 562.756664922 280.105120845 562.756664922 267.795572459 c 0
 562.756664922 51.9217688623 387.497521732 -34 291 -34 c 0
 189 -34 35 14 31 282 c 0
113 291 m 0
 113 219.938206255 206.812736817 166.880877151 284.667398057 166.880877151 c 0
 286.790879375 166.880877151 288.902489122 166.920347688 291 167 c 0
 436.703927279 172.751470814 482.250732316 248.337265392 482.250732316 307.43785009 c 0
 482.250732316 309.991669922 482.165686124 312.514708137 482 315 c 0
 477.218734387 383.850224825 422.144366881 435.326468996 310.655978389 435.326468996 c 0
 305.555583158 435.326468996 300.337119047 435.218734387 295 435 c 0
 183 430 113 376 113 291 c 0
EndSplineSet
Validated: 1
EndChar

StartChar: three
Encoding: 51 51 92
Width: 600
VWidth: 0
Flags: W
HStem: -25 210<139.193 392.076> 301 73<130.864 373.012> 440 21G<68.8206 69> 461 171<163.618 382.407>
VStem: 402 117<398.21 550.5> 436 123<80.5 255.148>
LayerCount: 2
Fore
SplineSet
41 -63 m 1xd4
 62 193 l 1
 62 193 188 187 270 185 c 0
 272 185 275 185 277 185 c 0
 358 185 436 216 436 247 c 0xd4
 436 272 409 301 289 301 c 0
 282 301 274 301 266 301 c 0
 225 300 196 299 176 299 c 0
 134.333333333 299 130.861111111 301.083333333 130.861111111 301.777777778 c 0
 130.861111111 301.916666667 131 302 131 302 c 1
 130 375 l 1
 130 375 149 374 176 374 c 0
 213 374 265 376 300 382 c 0
 327 387 402 393 402 415 c 0
 402 416 402 417 401 419 c 0
 386 452 330 461 267 461 c 0xd8
 175 461 69 440 69 440 c 1xe8
 67 663 l 1
 165 658 l 1
 162 628 l 1
 190 630 221 632 253 632 c 0
 343 632 519 625 519 476 c 0xd8
 519 410 484 372 443 350 c 1
 504 317 559 257 559 159 c 0
 559 2 412 -25 265 -25 c 0
 221 -25 176 -22 136 -20 c 1
 138 -70 l 1
 41 -63 l 1xd4
EndSplineSet
Validated: 1
EndChar

StartChar: four
Encoding: 52 52 93
Width: 600
VWidth: 0
Flags: W
HStem: -28.2605 96.2605<457 554.156> -22.3269 84.2227<206.631 312> 167.688 199.063<211.397 316 458 540.884>
VStem: 316 142.28<68 168>
LayerCount: 2
Fore
SplineSet
28.7650525886 178.979491018 m 0x70
 28.7650525886 203.891082079 101.357309947 369.525227809 143 447 c 0
 186 527 268 665 279 669 c 0
 281.87585599 670.150342396 305.593492128 671.962328607 325.6068874 671.962328607 c 0
 340.38903707 671.962328607 353.150342396 670.973801613 354 668 c 0
 354.029290128 667.897484552 354.043781281 667.772234446 354.043781281 667.62472084 c 0
 354.043781281 657.69965256 288.443487567 546.989490583 251 479 c 0
 217.683326226 417.769356306 208.690993241 382.484676122 208.690993241 373.145959448 c 0
 208.690993241 372.113517246 208.800901285 371.39819743 209 371 c 0
 210.83772234 367.937129434 235.940761424 366.750494089 267.988586848 366.750494089 c 0
 288.257411328 366.750494089 311.304150344 367.225148227 333 368 c 1
 340 433 349 496 367 509 c 0
 373.042023448 513.531517586 403.041140462 523.767105068 420.810020777 523.767105068 c 0
 426.568199527 523.767105068 431.042023448 522.69221776 433 520 c 0
 438 513 443 443 447 372 c 1
 468.466252584 372.447213595 489.732505168 372.894427191 506.952720831 372.894427191 c 0
 528.238077977 372.894427191 543.341640786 372.211145618 545 370 c 0
 547.015621187 367.178130338 548.056187469 336.404686737 548.056187469 300.150071679 c 0
 548.056187469 246.470587787 545.775006101 180.775006101 541 176 c 0
 539 174 506 173 458 171 c 1
 458.2 164.2 458.28 157.24 458.28 150.208 c 0
 458.28 122.08 457 92.8 457 68 c 1
 509 70 555 72 555 72 c 2
 555 72 555.551020408 55.4693877551 555.551020408 36.0262390671 c 0
 555.551020408 10.1020408163 554.571428571 -21 550 -25 c 0
 547.274917218 -27.3844474346 530.045779414 -28.260473147 506.494209967 -28.260473147 c 0xb0
 460.90565758 -28.260473147 391.627597262 -24.9780939566 358 -23 c 0
 349.947368421 -22.5263157895 340.698060942 -22.3268698061 330.830733343 -22.3268698061 c 0
 278.20498615 -22.3268698061 208 -28 208 -28 c 1
 208 -28 205.777777778 7.55555555556 205.777777778 33.037037037 c 0
 205.777777778 45.7777777778 206.333333333 56 208 58 c 0
 210.795365074 61.3544380888 233.90730148 61.8958124547 258.812803692 61.8958124547 c 0
 270.683441221 61.8958124547 282.961529194 61.7728265985 293.641452111 61.7728265985 c 0
 300.633603395 61.7728265985 306.940728725 61.8255423698 312 62 c 1
 313 93 314 132 316 168 c 1
 289.655039703 167.806287057 262.859782953 167.687623522 236.755466037 167.687623522 c 0
 127.568901008 167.687623522 28.7650525886 168.321841926 28.7650525886 178.979491018 c 0x70
EndSplineSet
Validated: 1
EndChar

StartChar: five
Encoding: 53 53 94
Width: 600
VWidth: 0
Flags: W
HStem: -63.5982 228.925<136.356 397.333> 290.175 86.5722<227.341 420.532> 471.518 150.982<166.547 441>
VStem: 50 76<-88.0263 -57.4444> 91.6195 68.6958<341.405 468.59> 441 74<625 660> 443.522 106.415<134.514 267.41>
LayerCount: 2
Fore
SplineSet
50 -86 m 1xf2
 104 171 l 1
 104 171 218.880886427 165.326869806 295.766729844 165.326869806 c 0
 310.182825485 165.326869806 323.263157895 165.526315789 334 166 c 0
 410.838916452 169.940457254 443.52234832 199.112619985 443.52234832 228.182371777 c 0xf2
 443.52234832 258.130647424 408.833598444 287.970228627 352 290 c 0
 348.695540981 290.118016394 345.372801635 290.17509836 342.035506006 290.17509836 c 0
 243.138009834 290.17509836 131.457545722 240.047123863 103.908197698 240.047123863 c 0
 100.877926961 240.047123863 98.8655368854 240.653609289 98 242 c 0
 93.632011236 248.794649189 91.6194947982 333.319885144 91.6194947982 420.125412395 c 0
 91.6194947982 512.17788764 93.8826566792 606.794649189 98 614 c 0
 102 621 135 622.5 176 622.5 c 0
 206.75 622.5 242 621.65625 272.890625 621.65625 c 0
 283.1875 621.65625 293 621.75 302 622 c 0
 341 623 397 624 441 625 c 1
 441 660 l 1
 515 665 l 1
 511 466 l 1
 510.228664797 465.485776531 504.251447137 465.26903206 494.394092929 465.26903206 c 0
 441.466872981 465.26903206 276.67717134 471.517671541 205.243463566 471.517671541 c 0
 186.492625908 471.517671541 174.174249353 471.087124677 172 470 c 0
 166.157626053 467.078813027 160.315252107 403.357626053 160.315252107 366.472048281 c 0xec
 160.315252107 352.849968572 161.112077203 342.887922797 163 341 c 0
 163.324912995 340.675087005 164.033319557 340.522530671 165.099019257 340.522530671 c 0
 181.520895428 340.522530671 282.782747057 376.747339751 373.016897589 376.747339751 c 0
 403.084749092 376.747339751 431.928131266 372.72509003 456 362 c 0
 515.376807565 335.515380798 549.936974293 261.952134125 549.936974293 183.402291827 c 0
 549.936974293 78.0684171117 487.789810419 -36.232508543 340 -58 c 0
 313.141234341 -61.9581338866 288.280788052 -63.5982173035 265.531655643 -63.5982173035 c 0
 207.816644378 -63.5982173035 163.691046038 -53.0418661134 135 -43 c 1
 126 -108 l 1
 50 -86 l 1xf2
EndSplineSet
Validated: 1
EndChar

StartChar: six
Encoding: 54 54 95
Width: 600
VWidth: 0
Flags: W
HStem: -47.9903 232.966<230.554 428.73> 333.559 96.0375<242.994 431.801>
VStem: 34.4784 152.211<142.937 298.877> 462.074 117.977<213.224 304.98>
LayerCount: 2
Fore
SplineSet
84 400 m 0
 210.712513689 647.621400797 469.34651323 693.150312631 488.855370743 693.150312631 c 0
 489.515478865 693.150312631 489.901813291 693.098186709 490 693 c 0
 493 690 508 649 508 645 c 0
 508 639.999050432 241.827016402 544.714476418 241.827016402 418.466532043 c 0
 241.827016402 418.045257065 242.290541646 417.858227705 243.195121745 417.858227705 c 0
 250.361426078 417.858227705 285.20919375 429.596555282 336.565799717 429.596555282 c 0
 375.018682667 429.596555282 422.726677995 423.015865659 475 400 c 0
 547.937348489 367.739249707 580.051091691 299.204512788 580.051091691 225.225251574 c 0
 580.051091691 96.8187824193 483.302476248 -47.9903273122 335.350383212 -47.9903273122 c 0
 325.457959675 -47.9903273122 315.33662726 -47.3429476361 305 -46 c 0
 154.499619322 -26.8185789332 34.478391295 67.4721825944 34.478391295 218.401721949 c 0
 34.478391295 272.053897868 49.644852298 332.863222811 84 400 c 0
188 267 m 0
 187.110874701 263.634025654 186.689622262 260.360819202 186.689622262 257.182429894 c 0
 186.689622262 211.123383665 275.151902094 184.975772779 310.203468179 184.975772779 c 0
 310.819041273 184.975772779 311.418141364 184.98383726 312 185 c 0
 423.181360765 188.901100378 462.074446784 213.727753971 462.074446784 255.769384256 c 0
 462.074446784 319.957037557 402.234979858 326.980947579 328 333 c 0
 323.021094572 333.368807809 317.889167543 333.559090419 312.663789785 333.559090419 c 0
 261.215988459 333.559090419 200.709172667 315.113296524 188 267 c 0
EndSplineSet
Validated: 1
EndChar

StartChar: seven
Encoding: 55 55 96
Width: 600
VWidth: 0
Flags: W
HStem: 440.615 196.385<138 349.269>
VStem: 47 90<354 435>
LayerCount: 2
Fore
SplineSet
47 350 m 1
 47 350 46.5555555556 386.444444444 46.5555555556 424.962962963 c 0
 46.5555555556 444.222222222 46.6666666667 464 47 480 c 0
 48 528 60 631 60 631 c 1
 60 631 211 636 311 637 c 0
 342.294632104 637 555.435864083 636.144194493 555.435864083 625.392497797 c 0
 555.435864083 599.734899916 398.856900389 316.248288456 361 192 c 0
 353 165 346 123 341 84 c 1
 389 81 445 75 445 75 c 1
 449 -16 l 1
 449 -16 219 -23 190 -23 c 0
 161 -23 101 -25 101 -25 c 1
 109 70 l 1
 109 70 152 74 198 78 c 1
 209 132 229 209 263 288 c 0
 285.355125768 338.542023476 351.16691659 430.651291786 351.16691659 439.449569643 c 0
 351.16691659 440.783923577 347.4548512 440.615195651 341.532071111 440.615195651 c 0
 309.982612629 440.615195651 207.504990676 434.921994432 148.998357138 434.921994432 c 0
 145.128815157 434.921994432 141.451615622 434.946898221 138 435 c 1
 137 354 l 1
 47 350 l 1
EndSplineSet
Validated: 1
EndChar

StartChar: eight
Encoding: 56 56 97
Width: 600
VWidth: 0
Flags: W
HStem: -29.3377 200.226<202.655 401.437> 490.317 145.683<197.407 371.248>
VStem: 45.9701 131.439<194.579 250.142> 78.9489 112.459<420.573 531.367> 381.082 127.573<412.364 535.452> 434.863 119.137<200.023 246.773>
LayerCount: 2
Fore
SplineSet
46 182 m 0xe4
 47 246 108 322 199 358 c 1
 135.109885811 383.556045676 78.9489014517 418.773503638 78.9489014517 478.84668119 c 0
 78.9489014517 579.522787559 170.079090165 633.001960913 291 636 c 0
 294.405539399 636.084434861 297.799196721 636.126886386 301.178720203 636.126886386 c 0
 412.598221506 636.126886386 508.654876628 589.983997715 508.654876628 480.920299703 c 0xd8
 508.654876628 475.755245547 508.439441371 470.449073 508 465 c 0
 503 404 450 376 396 359 c 1
 490 321 551 254 554 170 c 0
 554.065349572 167.756331372 554.098432641 165.512662745 554.098432641 163.270131108 c 0
 554.098432641 65.8943096596 491.720510554 -29.3377216503 300.110384085 -29.3377216503 c 0
 293.558895869 -29.3377216503 286.856325292 -29.2263880993 280 -29 c 0
 72.1389019252 -22.136661856 45.9701014107 90.4735161379 45.9701014107 176.871203155 c 0
 45.9701014107 178.591542153 45.9804768777 180.301488361 46 182 c 0xe4
178 241 m 0
 177.603814653 238.339898385 177.409438658 235.750269877 177.409438658 233.232020982 c 0
 177.409438658 192.910198672 227.243425016 170.888633547 296.396672618 170.888633547 c 0
 299.232658197 170.888633547 302.101135547 170.925670142 305 171 c 0
 387.580850501 172.855749449 434.862689306 202.261947052 434.862689306 236.850648874 c 0xe4
 434.862689306 239.539287301 434.577002202 242.25923954 434 245 c 0
 429 270 392 297 313 321 c 0
 306 323 298 326 290 328 c 1
 222 302 183 275 178 241 c 0
192 447 m 0
 197 415 243 403 298 389 c 1
 346.637612378 403.591283713 381.081520729 415.343826621 381.081520729 442.666905382 c 0
 381.081520729 479.952147553 351.231799556 486.991084632 299 489 c 0
 288.558730807 489.52206346 275.732646875 490.316677175 262.620504014 490.316677175 c 0
 228.01062901 490.316677175 191.407749757 484.780515381 191.407749757 454.083166283 c 0xd8
 191.407749757 451.856939057 191.600259397 449.498378769 192 447 c 0
EndSplineSet
Validated: 1
EndChar

StartChar: nine
Encoding: 57 57 98
Width: 600
VWidth: 0
Flags: W
HStem: 159.523 209.22<195.978 364.733> 178.852 189.891<259.339 364.471> 547 96.0859<200.043 388.708>
VStem: 27.912 122.784<353.039 487.284> 438.642 133.979<351.709 486.035>
LayerCount: 2
Fore
SplineSet
92 -28 m 0xb8
 92 -23.0074188463 366.143067265 52.2077292483 366.143067265 178.434887324 c 0
 366.143067265 178.720318711 365.866693644 178.852147298 365.328594509 178.852147298 c 0x78
 358.812918776 178.852147298 313.922948992 159.523389892 256.664649669 159.523389892 c 0
 218.381209553 159.523389892 174.568648729 168.164090521 133 197 c 0
 60.1354141744 246.984401871 27.9119938498 317.785010462 27.9119938498 388.292039941 c 0
 27.9119938498 516.171825179 133.913148762 643.085861762 295.692277656 643.085861762 c 0
 298.115724822 643.085861762 300.551688546 643.0573823 303 643 c 0
 449.924031006 639.289797197 572.620597492 536.467239541 572.620597492 379.068144934 c 0
 572.620597492 324.350674818 557.792686557 263.037616478 524 197 c 0
 397.203776308 -50.7849867578 138.311706783 -97.1472298716 119.106278079 -97.1472298716 c 0
 118.469545187 -97.1472298716 118.096269686 -97.0962696864 118 -97 c 0
 115 -94 92 -32 92 -28 c 0xb8
151 458 m 0
 156.948740406 397.521139202 219.910695271 368.743591615 285.552553389 368.743591615 c 0xb8
 352.325667787 368.743591615 421.871851016 398.521577126 437 455 c 0
 438.110193216 459.202874317 438.641852422 463.330287676 438.641852422 467.366781366 c 0
 438.641852422 513.038300726 370.578129212 547.070162331 302.349623498 547.070162331 c 0
 300.566123999 547.070162331 298.782511905 547.046908208 297 547 c 0
 206.821647629 545.081311652 150.695921304 506.348973524 150.695921304 463.471174028 c 0
 150.695921304 461.654065637 150.796720871 459.829512163 151 458 c 0
EndSplineSet
Validated: 1
EndChar

StartChar: period
Encoding: 46 46 99
Width: 294
VWidth: 0
Flags: W
HStem: -14.0408 195.215<75.8137 204.526>
VStem: 45 204<28.8045 139.381>
LayerCount: 2
Fore
SplineSet
45 95 m 0
 45 145.938931773 78.2545004369 181.174349451 147.426942709 181.174349451 c 0
 150.225767065 181.174349451 153.083394019 181.116664239 156 181 c 0
 204 179 249 129 249 83 c 0
 249 37 204 -12 139 -14 c 0
 137.880848928 -14.0272963676 136.774736961 -14.040808539 135.681516646 -14.040808539 c 0
 56.6746788638 -14.040808539 45 56.5322791682 45 95 c 0
EndSplineSet
Validated: 1
EndChar

StartChar: colon
Encoding: 58 58 100
Width: 294
VWidth: 0
Flags: W
HStem: -14.054 188.19<79.2506 201.736> 241.782 186.26<90.4735 217.487>
VStem: 45 202<15.8415 125.672 278.004 384.227>
LayerCount: 2
Fore
SplineSet
45 77 m 0
 45 128.388438928 76.963772263 174.136212163 147.271992989 174.136212163 c 0
 149.476885644 174.136212163 151.71948905 174.091220438 154 174 c 0
 202 172 247 111 247 65 c 0
 247 19 204 -12 139 -14 c 0
 137.518752094 -14.0361279977 136.060345751 -14.0539827444 134.624439096 -14.0539827444 c 0
 56.5703797241 -14.0539827444 45 38.7044959554 45 77 c 0
46 331 m 0
 46 377 91 426 156 428 c 0
 157.134577595 428.027672624 158.254605481 428.041369871 159.360269079 428.041369871 c 0
 238.164887084 428.041369871 244 358.460383827 244 320 c 0
 244 269.576638587 216.846044399 241.781573509 149.621211337 241.781573509 c 0
 146.186015942 241.781573509 142.64618668 241.854152533 139 242 c 0
 91 244 46 285 46 331 c 0
EndSplineSet
Validated: 1
EndChar

StartChar: comma
Encoding: 44 44 101
Width: 294
VWidth: 0
Flags: W
VStem: 44.09 205.457<22.1979 145.034>
LayerCount: 2
Fore
SplineSet
45 95 m 0
 51.9234857795 138.519053471 80.3686535477 183.016365214 155.492201611 183.016365214 c 0
 156.322422096 183.016365214 157.158343574 183.010930603 158 183 c 0
 221 182 246 126 249 83 c 0
 249.347045693 78.141360295 249.54688607 72.9213984505 249.54688607 67.4035861577 c 0
 249.54688607 25.2232503328 237.86885942 -34.3625043756 191 -83 c 0
 136.610827382 -139.29756464 86.7741048992 -150.070627924 79.7164144307 -150.070627924 c 0
 79.3776262006 -150.070627924 79.1374119675 -150.045803989 79 -150 c 0
 76.0998281883 -149.033276063 48.9012219359 -100.404238415 48.9012219359 -94.4585724827 c 0
 48.9012219359 -91.0526226313 120.041592473 -70.8276883277 134 -13 c 1
 69.2 -9.4 44.09 45.23 44.09 83.093 c 0
 44.09 87.3 44.4 91.3 45 95 c 0
EndSplineSet
Validated: 1
EndChar

StartChar: semicolon
Encoding: 59 59 102
Width: 294
VWidth: 0
Flags: W
HStem: 241.782 186.26<90.4735 217.487>
VStem: 43.09 205.457<13.1979 130.076 281.409 381.379>
LayerCount: 2
Fore
SplineSet
44 86 m 0
 50.9048990706 129.40222273 75.3240300016 165.02034241 149.890377809 165.02034241 c 0
 150.917377466 165.02034241 151.953889777 165.013585847 153 165 c 0
 216 164 245 117 248 74 c 0
 248.347045693 69.141360295 248.54688607 63.9213984505 248.54688607 58.4035861577 c 0
 248.54688607 16.2232503328 236.86885942 -43.3625043756 190 -92 c 0
 135.610827382 -148.29756464 85.7741048992 -159.070627924 78.7164144307 -159.070627924 c 0
 78.3776262006 -159.070627924 78.1374119675 -159.045803989 78 -159 c 0
 75.0998281883 -158.033276063 47.9012219359 -109.404238415 47.9012219359 -103.458572483 c 0
 47.9012219359 -100.052622631 119.041592473 -79.8276883277 133 -22 c 1
 68.2 -18.4 43.09 36.23 43.09 74.093 c 0
 43.09 78.3 43.4 82.3 44 86 c 0
46 331 m 0
 46 377 91 426 156 428 c 0
 157.134577595 428.027672624 158.254605481 428.041369871 159.360269079 428.041369871 c 0
 238.164887084 428.041369871 244 358.460383827 244 320 c 0
 244 269.576638587 216.846044399 241.781573509 149.621211337 241.781573509 c 0
 146.186015942 241.781573509 142.64618668 241.854152533 139 242 c 0
 91 244 46 285 46 331 c 0
EndSplineSet
Validated: 1
EndChar

StartChar: slash
Encoding: 47 47 103
Width: 520
VWidth: 0
Flags: W
LayerCount: 2
Fore
SplineSet
15 -138 m 1
 15 -138 23 -88 113 88 c 0
 203 264 437 730 437 730 c 1
 505 706 l 1
 505 706 439 494 385 400 c 0
 331 306 101 -170 101 -170 c 1
 15 -138 l 1
EndSplineSet
Validated: 1
EndChar

StartChar: AE
Encoding: 198 198 104
Width: 988
VWidth: 0
Flags: W
HStem: -14 197.16<655.443 888> -10 71<198 262 464 520> -3 64<34 109.422 198 215.667> 129 196.266<278.109 443> 264 78<639 736.437> 449.612 168.388<589.739 870.815> 531 66<215 267.663> 633 20G<868.5 940>
VStem: 746 46<231 266.972> 870 82<383 442.802> 872 68<618.832 647> 885 56<-44.125 -14>
LayerCount: 2
Fore
SplineSet
15 -3 m 1x3190
 34 63 l 1
 102 61 l 1
 123 116 160 214 180 283 c 0
 201 354 246 469 272 533 c 1
 204 531 l 1
 215 597 l 1x3390
 297 608 711 616 872 618 c 1
 871 630 869 642 868 653 c 1
 940 647 l 1x05a0
 948 617 945 426 952 383 c 1
 870 377 l 1x05c0
 872 400 874 423 875 445 c 1
 845.211481218 448.413267777 816.000668068 449.611997297 786.770025999 449.611997297 c 0
 721.798547475 449.611997297 656.729104653 443.689702929 585 443 c 1
 596 410 607 377 617 342 c 1
 737 343 l 1
 736 365 734 383 734 383 c 1
 806 389 l 1
 792 231 l 1
 746 229 l 1
 746 229 741 246 739 268 c 1
 721 266 698 265 682 265 c 0
 671 265 655 265 639 264 c 1
 647 236 654 208 662 181 c 1
 716.6 182.8 775.16 183.16 823.64 183.16 c 0
 855.96 183.16 883.8 183 903 183 c 1
 908 251 l 1
 988 239 l 1
 941 -52 l 1
 885 -43 l 1
 888 -14 l 1x8d90
 802 -14 517 -11 464 -10 c 1x4190
 452 61 l 1x2190
 520 61 l 1x4190
 514 82 508 105 501 129 c 1
 416 129 285 123 217 118 c 1
 210 96 203 75 198 57 c 1
 262 55 l 1
 273 -12 l 1
 15 -3 l 1x3190
275 319 m 1
 299 321 328 323 360 325 c 0
 363.486564962 325.183503419 367.478232497 325.265986324 371.857597742 325.265986324 c 0
 391.343538478 325.265986324 418.505102572 323.632993162 443 322 c 1
 417 405 392 484 377 536 c 1
 345 535 l 1
 326 480 294 384 275 319 c 1
EndSplineSet
Validated: 1
EndChar

StartChar: ring
Encoding: 730 730 105
Width: 308
VWidth: 0
Flags: W
HStem: 365.983 81.7665<109.138 201.302> 509.924 79.318<111.444 198.116>
VStem: 44.9513 62.0226<453.405 503.271> 203.092 61.277<451.043 503.586>
LayerCount: 2
Fore
SplineSet
146.985864143 589.241822798 m 0
 149.920720225 589.241822798 152.925167277 589.161833301 156 589 c 0
 234.867596285 585.244400177 264.369337461 547.109008402 264.369337461 483.69821023 c 0
 264.369337461 479.571676248 264.244400177 475.33810314 264 471 c 0
 260.046644447 407.746311153 217.997552333 365.982524982 157.161184128 365.982524982 c 0
 156.44339421 365.982524982 155.72298893 365.988338888 155 366 c 0
 103.846488523 366.983721375 44.9513151043 394.095551804 44.9513151043 474.942180222 c 0
 44.9513151043 542.699485695 76.631771684 589.241822798 146.985864143 589.241822798 c 0
106.973950395 476.964212812 m 0
 106.973950395 457.688691383 134.366028881 448.982570053 155 448 c 0
 158.384427633 447.852850972 161.790508103 447.749007618 165.141772758 447.749007618 c 0
 184.565138087 447.749007618 202.147149028 451.237278606 203 470 c 0
 203.062095837 471.179820912 203.092380557 472.321082893 203.092380557 473.425132766 c 0
 203.092380557 507.880628191 173.596377057 506.093143756 161 509 c 0
 158.115478357 509.627069922 155.120856042 509.923837827 152.08714647 509.923837827 c 0
 130.83880285 509.923837827 106.973950395 495.350355277 106.973950395 476.964212812 c 0
EndSplineSet
Validated: 1
EndChar

StartChar: eth
Encoding: 240 240 108
Width: 600
VWidth: 0
Flags: W
HStem: -19.0859 96.0859<198.043 386.708> 255.256 209.22<193.978 362.733> 255.256 189.891<257.339 362.471> 701.142 20G<116.803 120.366>
VStem: 25.912 122.784<136.716 270.961> 436.642 133.979<137.965 272.291>
LayerCount: 2
Fore
SplineSet
90 652 m 0xbc
 90 656 113 718 116 721 c 0
 116.092327988 721.092327988 116.474487529 721.142033689 117.132311794 721.142033689 c 0
 123.599350501 721.142033689 156.708727404 716.33809621 203 700 c 1
 247 767 l 1
 321 707 l 1
 285 664 l 1
 367 621 460 548 522 427 c 0
 555.792686557 360.962383522 570.620597492 299.649325182 570.620597492 244.931855066 c 0
 570.620597492 87.5327604592 447.924031006 -15.2897971968 301 -19 c 0
 298.551688546 -19.0573822997 296.115724822 -19.0858617619 293.692277656 -19.0858617619 c 0
 131.913148762 -19.0858617619 25.9119938498 107.828174821 25.9119938498 235.707960059 c 0
 25.9119938498 306.214989538 58.1354141744 377.015598129 131 427 c 0
 172.568648729 455.835909479 216.381209553 464.476610108 254.664649669 464.476610108 c 0xdc
 311.922948992 464.476610108 356.812918776 445.147852702 363.328594509 445.147852702 c 0
 363.866693644 445.147852702 364.143067265 445.279681289 364.143067265 445.565112676 c 0
 364.143067265 494.999745089 253.602061154 562.777320014 217 585 c 1
 161 519 l 1
 99 543 l 1
 151 622 l 1
 115 640 90 650 90 652 c 0xbc
149 166 m 0
 148.796720871 164.170487837 148.695921304 162.345934363 148.695921304 160.528825972 c 0
 148.695921304 117.651026476 204.821647629 78.9186883483 295 77 c 0
 296.782511905 76.953091792 298.566123999 76.9298376687 300.349623498 76.9298376687 c 0
 368.578129212 76.9298376687 436.641852422 110.961699274 436.641852422 156.633218634 c 0
 436.641852422 160.669712324 436.110193216 164.797125683 435 169 c 0
 419.871851016 225.478422874 350.325667787 255.256408385 283.552553389 255.256408385 c 0
 217.910695271 255.256408385 154.948740406 226.478860798 149 166 c 0
EndSplineSet
Validated: 1
EndChar

StartChar: dollar
Encoding: 36 36 110
Width: 456
VWidth: 0
Flags: W
HStem: -4 186<298.656 339 392 460.912> 420 169<390.786 500> 425 185<169.948 245 294 339 387 500>
VStem: 247 51<-69 -10 194 269 371 425 610 687> 340 52<-79 -8 187 256 359 423 610 706> 463.113 157.065<101.368 244.465>
LayerCount: 2
Fore
SplineSet
52 210 m 2xdc
 52 210 148 202 245 194 c 1
 244 276 l 1
 188 285 133 296 96 313 c 0
 59.6485791123 329.444690402 41.8375712425 367.988054906 41.8375712425 412.015865133 c 0
 41.8375712425 469.726473069 72.4392761097 536.860095729 132 576 c 0
 160 594 200 604 246 608 c 1
 247 687 l 1
 295 694 l 1
 295 694 295 659 294 610 c 1
 309 610 325 610 340 610 c 1xbc
 340 708 l 1
 389 706 l 1
 389 706 388 664 387 607 c 1
 468 601 535 589 535 589 c 1
 500 420 l 2
 500 420 448 422 387 423 c 1
 387 397 387 373 388 353 c 1
 492 338 578 315 603 243 c 0
 614.749049778 209.458357891 620.177842001 180.405535069 620.177842001 155.222269355 c 0
 620.177842001 47.5128753469 520.869372343 10.5889855482 392 -4 c 1
 392 -49 392 -79 392 -79 c 1
 341 -79 l 1
 340 -8 l 1
 326 -9 312 -10 298 -10 c 1
 298 -46 298 -69 298 -69 c 1
 247 -69 l 1
 247 -9 l 1
 142 -5 59 14 59 14 c 1
 52 210 l 2xdc
196 379 m 0
 212 376 229 373 245 371 c 1
 245 426 l 1
 223 426 207 426 204 426 c 0
 180.027395086 424.436569245 168.819550077 413.639056856 168.819550077 402.665876777 c 0
 168.819550077 392.583093791 178.282312649 382.351994904 196 379 c 0
293 425 m 1
 293 404 293 383 293 365 c 1
 308 363 323 361 338 359 c 1
 339 424 l 1
 323 424 308 425 293 425 c 1
296 269 m 1
 296 245 297 218 297 190 c 1
 312 189 325 188 339 187 c 1
 338 263 l 1
 324 265 311 267 296 269 c 1
390 256 m 1
 390 233 391 208 391 183 c 1
 411 182 427 182 437 182 c 0
 451.182785842 182.567311434 463.112675845 199.54857827 463.112675845 216.328584116 c 0
 463.112675845 229.126698592 456.172919785 241.807737204 438 247 c 0
 427 250 410 253 390 256 c 1
EndSplineSet
Validated: 1
EndChar

StartChar: OE
Encoding: 338 338 111
Width: 1116
VWidth: 0
Flags: W
HStem: -13 184.685<419.861 543.188> -7.88757 191.888<714 998> 279 69<739.832 854.801> 439.224 199.776<724.931 973.657> 448.403 206.353<210.772 393.798>
VStem: 14.7037 90.9354<289.344 417.99> 859 67<238 277.926> 860 59<352.123 397> 969 82<640.492 672.854> 997 56<-41 -12> 999 90<388 427.88> 1011 90<209.667 252>
LayerCount: 2
Fore
SplineSet
15 376 m 0xa440
 18.7333333333 480.533333333 113.062222222 654.755555556 332.134222222 654.755555556 c 0xac40
 347.782222222 654.755555556 364.066666667 653.866666667 381 652 c 0
 434 646 503 620 527 618 c 0
 528.224628001 617.909286815 530.037621063 617.865889701 532.393071399 617.865889701 c 0
 581.969439562 617.865889701 871.853155411 637.090713185 974 639 c 1
 973 649 971 660 969 672 c 1
 1051 682 l 1x3480
 1069 578 1085 412 1089 388 c 1
 999 388 l 1x3420
 999 388 999 405 997 429 c 1
 959.091467961 435.017227308 900.907002216 439.224103392 840.529472167 439.224103392 c 0
 800.565886681 439.224103392 759.641508768 437.381049961 723 433 c 1
 732 407 739 378 741 348 c 1
 854 351 l 1
 857 375 860 397 860 397 c 1
 919 398 l 1x3540
 926 237 l 1
 859 238 l 1
 859 238 854 256 852 279 c 1
 822 278 777 276 738 273 c 1
 734 244 726 213 714 184 c 1
 812 188 943 190 1008 190 c 1
 1011 252 l 1
 1101 254 l 1x7610
 1053 -50 l 1
 997 -41 l 1
 998 -12 l 1
 964 -11 885 -10 832 -8 c 0
 828.615384615 -7.92307692308 824.00591716 -7.8875739645 818.370505234 -7.8875739645 c 0x7440
 750.74556213 -7.8875739645 535.384615385 -13 516 -13 c 0
 498 -13 426 -40 371 -40 c 0
 369.927711674 -40.0087177913 368.857874344 -40.0130655892 367.790487596 -40.0130655892 c 0
 130.89025406 -40.0130655892 14.7037413733 174.155986016 14.7037413733 359.835731709 c 0
 14.7037413733 365.250050286 14.802531664 370.640145166 15 376 c 0xa440
113 397 m 0
 108.046525433 380.938733979 105.639121446 366.004047862 105.639121446 352.077567725 c 0
 105.639121446 273.225970921 182.816004067 226.695577824 312 191 c 0
 356.230502093 178.937135793 401.797208895 171.68460854 442.936551304 171.68460854 c 0
 514.340820114 171.68460854 572.407450811 193.533179225 587 250 c 0
 590.294570138 263.028527364 591.884762958 275.115161999 591.884762958 286.343863096 c 0
 591.884762958 350.096544633 540.623693943 386.193089267 459 410 c 0
 390.603586965 429.926514034 302.774435126 448.402823679 232.376405407 448.402823679 c 0
 172.057788189 448.402823679 124.536139166 434.838536466 113 397 c 0
EndSplineSet
Validated: 1
EndChar

StartChar: oe
Encoding: 339 339 112
Width: 817
VWidth: 0
Flags: W
HStem: -18.8683 140.065<177.019 345.695> -16.1427 113.233<553.454 709.246> 284.595 129.583<112.524 298.179> 294.548 119.716<505.852 654.062>
VStem: 14.9921 75.1578<178.357 261.606> 373.118 87.3518<146.028 230.669>
LayerCount: 2
Fore
SplineSet
222.104850428 414.178275416 m 0xac
 226.002212152 414.178275416 229.96693583 414.119321425 234 414 c 0
 319 411 393 391 432 339 c 1
 477.433467132 388.403381736 541.934857131 414.263715851 603.876162725 414.263715851 c 0
 682.358973512 414.263715851 756.731776264 372.747045245 783 285 c 1
 553 101 l 1
 569.481481481 98.2222222222 587.0260631 97.0905349794 604.674795509 97.0905349794 c 0
 682.329218107 97.0905349794 762 119 762 119 c 1
 802 55 l 1
 730.032201444 5.03509526985 659.32515116 -16.1427238999 596.717556918 -16.1427238999 c 0x5c
 522.744729177 -16.1427238999 460.078872018 13.4218514385 420 60 c 1
 386.564033563 6.68318865504 334.345621118 -18.8682677207 259.654931675 -18.8682677207 c 0
 251.693441328 -18.8682677207 243.476620367 -18.5779513886 235 -18 c 0
 108.669572994 -10.0421778264 14.9920962006 89.9375949486 14.9920962006 213.040659283 c 0
 14.9920962006 314.999583727 62.3204236046 414.178275416 222.104850428 414.178275416 c 0xac
92 233 m 0
 90.7469567925 228.071363384 90.149873693 223.366032336 90.149873693 218.868267459 c 0
 90.149873693 169.523935948 162.014607396 145.162203296 228 125 c 0
 236.723532022 122.382940393 246.938624258 121.196560992 257.838021876 121.196560992 c 0
 308.178936239 121.196560992 373.117642291 146.504734548 373.117642291 173.050825764 c 0
 373.117642291 230.014097903 334.702239162 255.845579702 260 275 c 0
 235.53474079 281.273143387 211.1678624 284.594862178 188.843409348 284.594862178 c 0xac
 139.993168392 284.594862178 100.922456798 268.689827194 92 233 c 0
461 201 m 0
 460.642367883 197.304468125 460.469481267 193.736836982 460.469481267 190.292024191 c 0
 460.469481267 164.839996106 469.90737129 146.09262871 484 132 c 1
 655 277 l 1
 629.287653525 288.631775786 602.076157932 294.548045558 576.405650129 294.548045558 c 0x1c
 518.212841233 294.548045558 467.939006372 264.144957986 461 201 c 0
EndSplineSet
Validated: 1
EndChar

StartChar: percent
Encoding: 37 37 114
Width: 921
VWidth: 0
Flags: W
HStem: -33 135.899<618.655 752.495> 220 135.902<156.576 292.182> 239.22 123.78<619.549 758.858> 493.22 122.78<158.443 300.51>
VStem: 59.971 72.029<382.035 467.514> 319.123 69.9433<382.901 474.277> 526.965 67.0346<126.686 213.578> 781.123 80.7718<65.5365 219.841>
LayerCount: 2
Fore
SplineSet
59.9710381274 412.583396381 m 0xdf
 59.9710381274 567.943409898 160.744853273 616 237 616 c 0
 314 616 375 593 388 448 c 0
 388.720440022 439.96432283 389.066192904 432.119060435 389.066192904 424.467787049 c 0
 389.066192904 294.055445205 288.619473742 220 231 220 c 0
 168.652393022 220 59.9710381274 251.093730229 59.9710381274 412.583396381 c 0xdf
132 420 m 0
 132 384.208183643 178.787951721 355.902439562 218.051667843 355.902439562 c 0
 219.377048458 355.902439562 220.693855521 355.934692776 222 356 c 0
 295.873646296 358.878194012 319.122843454 398.574169215 319.122843454 428.285075449 c 0
 319.122843454 465.668606632 289.998246525 493.220420375 232.941935394 493.220420375 c 0
 230.036440051 493.220420375 227.055874745 493.147864907 224 493 c 0
 167 490 132 463 132 420 c 0
222 -63 m 1
 276 35 583 647 594 668 c 1
 664 632 l 1
 664 632 599 450 553 370 c 0
 507 290 298 -108 298 -108 c 1
 222 -63 l 1
527 155 m 0
 526.976865388 156.839201654 526.965371599 158.663685025 526.965371599 160.473544526 c 0
 526.965371599 315.127039662 610.890682562 363 687 363 c 0xbf
 764 363 848 296 861 151 c 0
 861.603635312 144.267144593 861.89464068 137.762832456 861.89464068 131.480355965 c 0
 861.89464068 2.46227480067 739.167557381 -33 681 -33 c 0
 620 -33 529 -4 527 155 c 0
594 166 m 0
 594 130.248068087 640.683733949 102.899208285 679.920379871 102.899208285 c 0
 681.290096219 102.899208285 682.650737203 102.93253686 684 103 c 0
 757.873646296 105.878194012 781.122843454 144.653724685 781.122843454 174.289887149 c 0
 781.122843454 211.669178687 751.995040803 239.220420375 694.941935394 239.220420375 c 0
 692.036440051 239.220420375 689.055874745 239.147864907 686 239 c 0
 629 236 594 209 594 166 c 0
EndSplineSet
Validated: 1
EndChar

StartChar: ampersand
Encoding: 38 38 115
Width: 890
VWidth: 0
Flags: W
HStem: -22.626 234.564<261.963 356> 401 20G<497.715 537.5> 510.216 105.364<288.024 335.631>
VStem: 190.37 87.7277<430.772 500.919> 341.425 124.363<482.96 560.686>
LayerCount: 2
Fore
SplineSet
40 115 m 0
 59 247 166 327 246 384 c 1
 211.483687475 428.871206283 190.370353041 460.339434474 190.370353041 484.829981526 c 0
 190.370353041 488.720852141 190.903262505 492.435603141 192 496 c 0
 202 528 263 604 288 613 c 0
 292.823202479 614.736352893 301.405751355 615.57939575 312.275536442 615.57939575 c 0
 357.74687084 615.57939575 443.244418182 600.826300827 461 575 c 0
 464.291273063 570.316265256 465.787815981 564.25443415 465.787815981 557.116750879 c 0
 465.787815981 507.869029029 394.544041299 407.404754469 350 355 c 1
 378 332 414 304 453 276 c 1
 471 292 489 311 509 334 c 1
 485.795600666 348.124416986 466.984589223 359.853239088 466.984589223 363.260713311 c 0
 466.984589223 372.025613774 514 421 514 421 c 1
 561 391 617 356 634 347 c 0
 649.543843808 338.770906219 759.318480643 267.260249714 759.318480643 259.53643417 c 0
 759.318480643 249.161431702 728 208 728 208 c 1
 682 235 l 1
 665 219 640 195 608 168 c 1
 654 137 694 110 719 94 c 1
 748 116 779 139 779 139 c 1
 806 127 836 115 849 109 c 0
 849.852702688 108.606444913 850.253655691 107.924630504 850.253655691 106.990678857 c 0
 850.253655691 93.6859379477 768.884927255 29.2128898268 753 18 c 0
 736.108227254 6.07639570893 626.409510805 -71.0095307567 617.165264323 -71.0095307567 c 0
 609.119481024 -71.0095307567 594.874926312 -51.3746315613 593 -42 c 0
 591 -32 574 -3 574 -3 c 2
 574 -3 609 18 636 35 c 1
 613 53 579 81 540 112 c 1
 451.894736842 43.7894736842 344.941828255 -22.6260387812 264.205569325 -22.6260387812 c 0
 259.720221607 -22.6260387812 255.315789474 -22.4210526316 251 -22 c 0
 95.9900705451 -7.7352825655 39.5559447346 64.4088058162 39.5559447346 108.428840994 c 0
 39.5559447346 110.697877486 39.7058869738 112.892189979 40 115 c 0
290 417 m 1
 326.611798939 448.381541948 341.424613535 474.633911109 341.424613535 491.285958846 c 0
 341.424613535 500.104243086 337.270575398 506.230256991 330 509 c 0
 327.816111719 509.818958106 325.408659311 510.215628417 322.862783233 510.215628417 c 0
 304.199771209 510.215628417 278.098020354 488.898993435 278.098020354 456.357552225 c 0
 278.098020354 444.554546917 281.531870023 431.274847675 290 417 c 1
302 223 m 0
 310 215.888888889 320.765432099 211.938271605 334.032921811 211.938271605 c 0
 350.617283951 211.938271605 371.111111111 218.111111111 395 232 c 1
 361 261 330 288 308 310 c 1
 293.349730082 292.532370482 284.414471045 274.747240359 284.414471045 258.254733709 c 0
 284.414471045 245.47780196 289.777213758 233.476673921 302 223 c 0
EndSplineSet
Validated: 1
EndChar

StartChar: quotesingle
Encoding: 39 39 116
Width: 228
VWidth: 0
Flags: W
HStem: 384 291.156
VStem: 39.8124 148.712<472.468 669.581>
LayerCount: 2
Fore
SplineSet
43 666 m 0
 47.8275862069 672.896551724 66.4482758621 675.155766944 88.7755545533 675.155766944 c 0
 131.197384067 675.155766944 187 667 187 667 c 1
 187 667 188.524444444 652.626666667 188.524444444 628.554962963 c 0
 188.524444444 601.044444444 186.533333333 560.866666667 178 515 c 0
 167 456 132 384 132 384 c 1
 53 402 l 1
 53 402 39.8123887504 557.739409042 39.8123887504 630.348287513 c 0
 39.8123887504 649.36489854 40.7169811321 662.679245283 43 666 c 0
EndSplineSet
Validated: 1
EndChar

StartChar: plus
Encoding: 43 43 117
Width: 578
VWidth: 0
Flags: W
HStem: -19.1836 453.448<233.01 339.98> 109.554 176.446<72.6242 221> 109.554 166.446<70 219.934> 124 146<348.169 515>
VStem: 221 123<-13.812 110 289.095 423.343> 233 107<290.375 430.903>
LayerCount: 2
Fore
SplineSet
62 137 m 0x48
 60.4 145.6 59.76 156.32 59.76 167.968 c 0
 59.76 214.56 70 276 70 276 c 1x28
 126 278 181 282 224 286 c 1x48
 226 333 230 369 233 426 c 1
 233 426 246.223140496 434.26446281 286.193087904 434.26446281 c 0x84
 290.190082645 434.26446281 294.454545455 434.181818182 299 434 c 0
 312 434 340 425 340 425 c 2
 340 425 343 361 345 291 c 1
 412 285 518 270 518 270 c 1
 515 124 l 2x14
 515 124 405 118 344 115 c 1
 342 47 341 -12 341 -12 c 1
 341 -12 290 -17 269 -19 c 0
 267.6875 -19.125 266.33984375 -19.18359375 264.966552734 -19.18359375 c 0x88
 244.3671875 -19.18359375 218 -6 218 -6 c 2
 218 -6 220 48 221 110 c 1
 210.804615658 109.716794879 200.408718465 109.553897469 190.059328678 109.553897469 c 0
 127.321129061 109.553897469 66.2919871985 115.540064008 62 137 c 0x48
EndSplineSet
Validated: 1
EndChar

StartChar: parenright
Encoding: 41 41 118
Width: 386
VWidth: 0
Flags: W
VStem: 147.997 178.521<49.785 366.548>
LayerCount: 2
Fore
SplineSet
20 724 m 1
 100 766 l 1
 100 766 316 494 326 232 c 0
 326.34965035 222.979020979 326.518362756 214.129199472 326.518362756 205.449595053 c 0
 326.518362756 -34.1074869187 198 -144 198 -144 c 1
 112 -120 l 1
 112 -120 147.99704142 -15.1390532544 147.99704142 166.892808375 c 0
 147.99704142 190.636094675 147.384615385 215.692307692 146 242 c 0
 136 434 74 556 20 724 c 1
EndSplineSet
Validated: 1
EndChar

StartChar: parenleft
Encoding: 40 40 119
Width: 386
VWidth: 0
Flags: W
VStem: 65.4631 172.027<92.3075 410.935>
LayerCount: 2
Fore
SplineSet
66 285 m 0
 76 547 290 779 290 779 c 1
 367 724 l 1
 275.952355041 615.226264872 237.490156543 455.814692411 237.490156543 303.304440985 c 0
 237.490156543 266.532933185 239.726090169 230.162621791 244 195 c 0
 262 47 302 -115 302 -115 c 1
 189 -144 l 1
 189 -144 65.4630854862 14.8331758034 65.4630854862 257.303144663 c 0
 65.4630854862 266.418557026 65.6376811594 275.652173913 66 285 c 0
EndSplineSet
Validated: 1
EndChar

StartChar: numbersign
Encoding: 35 35 120
Width: 659
VWidth: 0
Flags: W
HStem: 89 168.266<67.0163 159 274 364.279> 99 150<473 570> 323 145<78.0408 181 496 594.783> 325.552 152.842<290 381>
VStem: 73 536.438<326.591 458.474> 205 90<478.522 575.862> 364 93<12.4383 93.4535>
LayerCount: 2
Fore
SplineSet
51 119 m 0x82
 50.5454545455 123.454545455 50.3388429752 128.190082645 50.3388429752 133.118707739 c 0
 50.3388429752 182.404958678 71 251 71 251 c 1
 106 252 142 254 175 255 c 1
 177 280 179 300 181 323 c 1
 122 324 73 327 73 327 c 1xa8
 78 457 l 2
 78 457 134 462 194 468 c 1
 197 498 201 529 205 563 c 1
 205 563 225 581 254 582 c 0
 254.652173913 582.043478261 255.325141777 582.064272212 256.015862579 582.064272212 c 0
 271.211720227 582.064272212 295 572 295 572 c 1xa4
 295 572 293 530 290 476 c 1
 310.368879517 477.651530772 324.676528168 478.393876913 342.432739778 478.393876913 c 0
 356.930625848 478.393876913 373.72755389 477.898979486 398 477 c 1
 404 531 408 571 408 571 c 1
 408 571 444 580 468 582 c 0
 469.714285714 582.142857143 471.382653061 582.209183673 473.002915452 582.209183673 c 0
 494.066326531 582.209183673 507 571 507 571 c 1
 507 571 502 528 496 471 c 1
 556 466 607 459 608 452 c 0
 609 446.625 609.4375 440.53125 609.4375 433.982421875 c 0
 609.4375 388.140625 588 320 588 320 c 1
 569 319.5 550.5 319.25 532.5 319.25 c 0
 514.5 319.25 497 319.5 480 320 c 1
 478 295 475 273 473 249 c 1
 532 246 586 244 586 244 c 1
 570 104 l 2
 570 104 518 102 462 99 c 1x58
 461 86 459 72 457 56 c 1
 457 56 457 7.21777777778 414.722074074 7.21777777778 c 0
 411.702222222 7.21777777778 408.466666667 7.46666666667 405 8 c 0
 391 10 364 18 364 18 c 2
 364 18 364 50 366 94 c 1
 329 92 311 91 257 89 c 1
 253 48 251 19 251 19 c 1
 251 19 215 10 191 8 c 0
 189.285714286 7.85714285714 187.617346939 7.79081632653 185.997084548 7.79081632653 c 0
 164.933673469 7.79081632653 152 19 152 19 c 2
 152 19 155 47 159 88 c 1
 102 90 53 98 51 119 c 0x82
274 257 m 1
 283.175170954 257.183503419 290.96972821 257.265986324 297.840932811 257.265986324 c 0
 328.414287202 257.265986324 340.707143601 255.632993162 375 254 c 1
 377 280 378 301 381 325 c 1
 372.408465581 325.390524292 364.846368414 325.55228475 357.941467523 325.55228475 c 0x90
 329.484159011 325.55228475 312.189514165 322.804737854 280 322 c 1
 278 298 276 279 274 257 c 1
EndSplineSet
Validated: 1
EndChar

StartChar: exclam
Encoding: 33 33 121
Width: 367
VWidth: 0
Flags: W
HStem: -136.148 168.148<113.559 252.132> 77.9586 623.041<110.929 255.171>
VStem: 60 247.146<358.971 691.473> 76.9792 212.111<-105.616 -3.71591> 111 141<75 163.375>
LayerCount: 2
Fore
SplineSet
60 688 m 1xe0
 60 688 131 701 180 701 c 0
 233 701 297 692 297 692 c 1
 297 692 307.146449704 611.362426036 307.146449704 495.746301775 c 0xe0
 307.146449704 453.150887574 305.769230769 405.807692308 302 356 c 0
 292 229 252 66 252 66 c 1
 252 66 208 74 178 77 c 0
 171.076923077 77.6923076923 163.781065089 77.9585798817 156.653163405 77.9585798817 c 0
 132.893491124 77.9585798817 111 75 111 75 c 1xc8
 111 75 86 332 75 415 c 0
 64 498 60 688 60 688 c 1xe0
182 32 m 0
 247 32 288 -16 289 -43 c 0
 289.060330322 -44.6289186977 289.090632725 -46.2414585305 289.090632725 -47.8372077724 c 0
 289.090632725 -99.1418636779 257.767778081 -133.090495483 186 -136 c 0
 183.52231876 -136.09910725 181.088291951 -136.148011904 178.697775357 -136.148011904 c 0
 109.731033121 -136.148011904 76.979177371 -95.4431682813 76.979177371 -45.2007576455 c 0xd0
 76.979177371 -17.1686412754 115.481851331 32 182 32 c 0
EndSplineSet
Validated: 1
EndChar

StartChar: exclamdown
Encoding: 161 161 122
Width: 344
VWidth: 0
Flags: W
HStem: 600 183.148<106.856 230.42>
VStem: 60.3125 223.922<85.9914 551> 62.941 212.1<644.885 745.493>
LayerCount: 2
Fore
SplineSet
61 264 m 0xc0
 60.5 303 60.3125 341 60.3125 376.0625 c 0
 60.3125 481.25 62 560 62 560 c 1
 62 560 134 558 164 555 c 0
 194 552 280 551 280 551 c 1
 280 551 284.234567901 479.012345679 284.234567901 367.972565158 c 0
 284.234567901 336.24691358 283.888888889 301.333333333 283 264 c 0
 281 180 243 -38 243 -38 c 1
 243 -38 208 -36 159 -36 c 0
 106 -36 77 -24 77 -24 c 1
 77 -24 63 79 61 264 c 0xc0
62.9409789832 693.171421339 m 0xa0
 62.9409789832 745.406076383 111.458305917 780.05912051 184 783 c 0
 186.47768124 783.09910725 188.892063555 783.148011904 191.244589103 783.148011904 c 0
 258.18302508 783.148011904 275.040846733 743.553716646 275.040846733 694.265639534 c 0
 275.040846733 692.851504081 275.026969601 691.429388838 275 690 c 0
 275 664 233 600 168 600 c 0
 101.767219328 600 62.9409789832 663.549943398 62.9409789832 693.171421339 c 0xa0
EndSplineSet
Validated: 1
EndChar

StartChar: questiondown
Encoding: 191 191 123
Width: 664
VWidth: 0
Flags: W
HStem: -61.1954 257.989<299.145 484.892> 616.742 168.258<323.932 457.695>
VStem: 294.969 200.189<644.266 749.585>
LayerCount: 2
Fore
SplineSet
61 95 m 0
 98 363 254 357 330 573 c 1
 421 555 l 1
 405.780974755 410.419260171 281.990670098 325.552724019 281.990670098 248.764483972 c 0
 281.990670098 244.824042585 282.31664709 240.904873774 283 237 c 0
 287.369316603 212.422594109 345.431867014 196.794060519 400.00323386 196.794060519 c 0
 445.349308218 196.794060519 488.284797781 207.58521622 496 233 c 0
 498.666666667 242 499.555555556 254.777777778 499.555555556 267.814814815 c 0
 499.555555556 293.888888889 496 321 496 321 c 1
 579 313 l 2
 579.016662611 312.825375838 604.00842484 92.1968926394 604.00842484 50.1385243852 c 0
 604.00842484 3.9501387619 531.710381343 -61.1953680597 378.338367946 -61.1953680597 c 0
 362.433985881 -61.1953680597 345.657791897 -60.4948395257 328 -59 c 0
 123.256825797 -41.2368935623 60.1079118473 19.3541064086 60.1079118473 81.9160487134 c 0
 60.1079118473 86.2724074367 60.4141030494 90.6383227013 61 95 c 0
388 785 m 0
 453 785 494 737 495 710 c 0
 495.10300606 707.218836374 495.158266002 704.466850931 495.158266002 701.748961811 c 0
 495.158266002 653.978843177 478.087241095 616.741836791 403.147575237 616.741836791 c 0
 399.565425205 616.741836791 395.851052077 616.826919008 392 617 c 0
 318.543959254 619.93824163 294.968998677 656.450287219 294.968998677 707.746051346 c 0
 294.968998677 736.566300231 320.943055854 785 388 785 c 0
EndSplineSet
Validated: 1
EndChar

StartChar: hyphen
Encoding: 45 45 124
Width: 578
VWidth: 0
Flags: W
HStem: 142.759 179.241<69.6211 382.446> 160 166.401<272.972 508>
LayerCount: 2
Fore
SplineSet
60 166 m 1x80
 63 312 l 1
 63 312 215 320 261 322 c 0x80
 281.608168574 322.896007329 333.325966098 326.401209345 384.862068275 326.401209345 c 0
 448.360967467 326.401209345 511.584029317 321.079853414 516 299 c 0
 517.6 290.4 518.24 279.68 518.24 268.032 c 0
 518.24 221.44 508 160 508 160 c 1x40
 410 156 316 146 280 143 c 0
 278.036363636 142.836363636 275.632396694 142.759008264 272.841977461 142.759008264 c 0
 224.474710744 142.759008264 60 166 60 166 c 1x80
EndSplineSet
Validated: 1
EndChar

StartChar: equal
Encoding: 61 61 125
Width: 579
VWidth: 0
Flags: W
HStem: 48.9244 134.963<68.9126 510> 67 111<302.158 510> 245.953 144.482<75.1074 507>
LayerCount: 2
Fore
SplineSet
62 71 m 0xa0
 60.2765957447 78.085106383 59.5799004074 86.5636034405 59.5799004074 95.6420542654 c 0
 59.5799004074 133.973291082 72 183 72 183 c 1
 87.0941577636 183.62892324 101.990543306 183.887023566 116.514242266 183.887023566 c 0xa0
 183.023918446 183.887023566 241.718055395 178.474450869 275.79901371 178.474450869 c 0
 281.609080942 178.474450869 286.7038182 178.631755846 291 179 c 0
 314.434782609 181.130434783 343.890359168 181.871455577 373.531190926 181.871455577 c 0
 441.281663516 181.871455577 510 178 510 178 c 1
 512 67 l 1x60
 512 67 355 50 310 49 c 0
 307.721149103 48.949358869 305.044796963 48.9243629795 302.016657961 48.9243629795 c 0
 245.248758843 48.9243629795 64.8480766069 57.7089758345 62 71 c 0xa0
69 257 m 1
 75 377 l 1
 75 377 223 385 268 386 c 0
 289.044192762 386.467648728 343.548771449 390.434422782 396.22969105 390.434422782 c 0
 456.1993924 390.434422782 513.805892368 385.294050878 517 364 c 0
 518.195121951 356.829268293 518.690660321 348.842355741 518.690660321 340.526980166 c 0
 518.690660321 300.138013087 507 252 507 252 c 1
 434.430821182 248.976284216 361.861642364 245.952568432 315.641986808 245.952568432 c 0
 300.718785222 245.952568432 288.542486889 246.267786838 280 247 c 0
 242 250 69 257 69 257 c 1
EndSplineSet
Validated: 1
EndChar

StartChar: question
Encoding: 63 63 126
Width: 600
VWidth: 0
Flags: W
HStem: -118.148 168.148<171.559 310.132> 459.478 266.667<140.129 349.955>
VStem: 19.6719 104.995<392.863 586.029> 54 80<344.25 401.959> 134.979 212.111<-87.6157 14.2841> 358.857 193.292<341.644 542.406>
LayerCount: 2
Fore
SplineSet
26 616 m 0xec
 49.4176366263 649.174985221 80.4517413798 726.144662173 286.314517053 726.144662173 c 0
 291.434031993 726.144662173 296.661669074 726.097060562 302 726 c 0
 522 722 540 655 548 600 c 0
 550.826755819 579.427499321 552.149118255 560.297736557 552.149118255 542.40641102 c 0
 552.149118255 332.443701512 370.032404383 293.039465089 300 94 c 1
 194 98 l 1
 209.338628027 243.716966261 358.856679593 341.644000851 358.856679593 419.974641668 c 0
 358.856679593 423.352107393 358.578700476 426.693140137 358 430 c 0
 354.242254203 451.137320106 312.093981778 459.477798003 264.926096879 459.477798003 c 0
 211.676577406 459.477798003 152.029580364 448.847889712 134 434 c 0xdc
 127 428 124.666666667 416.222222222 124.666666667 403.185185185 c 0xec
 124.666666667 377.111111111 134 346 134 346 c 1
 54 326 l 1xdc
 54 326 19.671875 495 19.671875 576.611816406 c 0
 19.671875 595.4453125 21.5 609.625 26 616 c 0xec
240 50 m 0
 305 50 346 2 347 -25 c 0
 347.060330322 -26.6289186977 347.090632725 -28.2414585305 347.090632725 -29.8372077724 c 0
 347.090632725 -81.1418636779 315.767778081 -115.090495483 244 -118 c 0
 241.52231876 -118.09910725 239.088291951 -118.148011904 236.697775357 -118.148011904 c 0
 167.731033121 -118.148011904 134.979177371 -77.4431682813 134.979177371 -27.2007576455 c 0
 134.979177371 0.831358724641 173.481851331 50 240 50 c 0
EndSplineSet
Validated: 1
EndChar

StartChar: greater
Encoding: 62 62 127
Width: 545
VWidth: 0
Flags: W
HStem: -14 21G<91.5455 142.979> 426 20G<71.7333 119>
LayerCount: 2
Fore
SplineSet
60 371 m 0
 66 406 76 446 76 446 c 1
 162 421 240 386 276 370 c 0
 341.592932883 340.185030508 486.006896061 249.886995713 486.006896061 226.664690423 c 0
 486.006896061 202.20947 378.728451978 116.843514699 320 83 c 0
 252 44 97 -14 97 -14 c 1
 73 74 l 1
 73 74 120 112 177 150 c 0
 208.85403921 171.23602614 261.20666052 206.448358258 261.20666052 223.258683726 c 0
 261.20666052 238.16205498 60.1271923159 370.491173974 60 371 c 0
EndSplineSet
Validated: 1
EndChar

StartChar: less
Encoding: 60 60 128
Width: 542
VWidth: 0
Flags: W
HStem: -15 21G<407.841 469.899> 414 20G<430.5 475.757>
LayerCount: 2
Fore
SplineSet
275 384 m 0
 311 400 388 425 473 434 c 1
 473 434 482.144640999 398.124869927 482.144640999 367.672988486 c 0
 482.144640999 361.81685744 481.806451613 356.161290323 481 351 c 1
 481 351 310 257 285 225 c 0
 284.267970418 224.048361543 283.921765298 222.952038913 283.921765298 221.728684292 c 0
 283.921765298 206.240219459 339.415697621 170.389534919 370 150 c 0
 427 112 473 74 473 74 c 1
 469 -15 l 1
 469 -15 326 15 258 54 c 0
 200.903429143 86.9031086294 59.5202577906 197.537193271 59.5202577906 224.580087705 c 0
 59.5202577906 260.303406696 219.044170229 358.565531922 275 384 c 0
EndSplineSet
Validated: 1
EndChar

StartChar: asterisk
Encoding: 42 42 129
Width: 591
VWidth: 0
Flags: W
HStem: 429 20G<440.688 492.724>
VStem: 264 87<26.0503 173 411 561.645> 269 75<19.3855 169.351>
LayerCount: 2
Fore
SplineSet
60 201 m 1xc0
 108 231 153 262 189 287 c 1
 150 316 104 352 63 384 c 1
 63 384 86 434 112 471 c 0
 112.312845762 471.469268643 113.08446873 471.693856109 114.273246218 471.693856109 c 0
 128.284003237 471.693856109 200.24016651 440.497233906 262 411 c 1
 264 487 266 560 266 560 c 1
 266 560 285 562 306 564 c 0
 307.615384615 564.153846154 309.24260355 564.224852071 310.870277651 564.224852071 c 0
 330.402366864 564.224852071 350 554 350 554 c 1
 350 554 351 465 352 385 c 1
 414 417 481 449 481 449 c 1
 532 362 l 1
 532 362 489 327 443 292 c 1
 485 256 524 222 524 222 c 1
 482 116 l 2
 482 116 413 151 351 184 c 1xc0
 349 123 346 65 344 20 c 1
 344 20 346.436644854 19.0862581797 346.436644854 18.0907996111 c 0
 346.436644854 16.8998045381 342.948730712 15.5918367347 327.626822157 15.5918367347 c 0
 322.93877551 15.5918367347 317.142857143 15.7142857143 310 16 c 0
 297 16 269 26 269 26 c 2xa0
 269 26 266 95 264 173 c 1
 210.852271571 144.010329948 147.329222529 114.372202358 115.727635553 114.372202358 c 0
 108.085687535 114.372202358 102.310433587 116.105372251 99 120 c 0
 71 153 60 201 60 201 c 1xc0
EndSplineSet
Validated: 1
EndChar

StartChar: sterling
Encoding: 163 163 130
Width: 621
VWidth: 0
Flags: W
HStem: -3.72238 164.306<335.427 475.808> 216 105<230.454 355> 224 89<45 98.1562> 430.793 200.367<266.355 446.912>
VStem: 79.924 134.88<317.275 452.175> 131.838 96.162<112.822 207.977> 474 64<337 401.735>
LayerCount: 2
Fore
SplineSet
42 313 m 1xb6
 99 314 l 1
 88.5614633109 348.16248371 79.923968741 389.529135896 79.923968741 447.500078679 c 0
 79.923968741 450.618193645 79.9489578808 453.784346492 80 457 c 0
 80 513 112 627 332 631 c 0
 337.899809253 631.107269259 343.627018096 631.159881722 349.186795223 631.159881722 c 0
 550.947444123 631.159881722 532.214538518 561.873672779 540 521 c 0
 541.96 510.08 542.6656 490.8496 542.6656 468.818752 c 0
 542.6656 412.168 538 337 538 337 c 1
 474 337 l 1
 474 337 460 401 440 419 c 0
 430.99739962 427.131380988 409.681755758 430.792958521 383.669985446 430.792958521 c 0
 320.111537642 430.792958521 228.515122434 408.931709126 220 377 c 0
 216.196152423 363.052558883 214.803847577 350.310889132 214.803847577 338.010562333 c 0
 214.803847577 330.908965344 215.267949192 323.954482672 216 317 c 1
 356 321 l 1
 355 216 l 2xda
 355 216 280 210 228 207 c 1
 228 181 225 150 218 111 c 1
 246 115 295 125 336 139 c 0
 381.864611136 154.983122063 418.553903507 160.583646576 448.08138155 160.583646576 c 0
 503.535047033 160.583646576 533.728856908 140.830489897 552 133 c 0
 558.458129484 130.093841732 561.788201236 116.865092946 561.788201236 97.8927380653 c 0
 561.788201236 58.1101394382 547.146302186 -6.92635966989 516 -55 c 1
 516 -55 416.649616118 -3.72238251259 339.867659164 -3.72238251259 c 0
 330.869773583 -3.72238251259 322.181818182 -4.42657342657 314 -6 c 0
 266.761904762 -15.1523809524 225.45106576 -18.3775056689 190.685113055 -18.3775056689 c 0
 107.695419501 -18.3775056689 62 -3.5527136788e-15 62 0 c 1
 115.296053241 88.2715881806 131.837987237 142.562952908 131.837987237 185.973734468 c 0
 131.837987237 194.692329304 131.170744177 202.972039931 130 211 c 1
 86 216 45 224 45 224 c 1
 42 313 l 1xb6
EndSplineSet
Validated: 1
EndChar

StartChar: currency
Encoding: 164 164 131
Width: 694
VWidth: 0
Flags: W
HStem: 63.4315 118.734<283.375 427.356> 398.119 129.134<261.662 436.617>
VStem: 122.425 91.2469<240.065 358.408> 482.055 93.5131<237.934 355.226>
LayerCount: 2
Fore
SplineSet
54 69 m 1
 151 155 l 1
 131.521184811 187.781420684 122.425186453 233.428505704 122.425186453 279.823714426 c 0
 122.425186453 331.083498531 133.528629083 383.256513738 154 420 c 1
 74 491 l 1
 145 568 l 1
 214 488 l 1
 251.005604005 514.366492853 298.70976057 527.25280948 347.016856509 527.25280948 c 0
 403.141718352 527.25280948 460.080463904 509.858086846 502 476 c 1
 585 558 l 1
 666 471 l 1
 559 398 l 1
 570.344613759 369.051675237 575.567930902 334.288118689 575.567930902 299.097207186 c 0
 575.567930902 244.330324154 562.917031196 188.528385327 541 152 c 1
 636 85 l 1
 571 -4 l 1
 476 88 l 1
 446.318566229 72.2862997683 410.540333076 63.4314988413 366.669398919 63.4314988413 c 0
 360.286299768 63.4314988413 353.731882651 63.6189500386 347 64 c 0
 301 66 262 75 231 88 c 1
 130 -10 l 1
 54 69 l 1
214 316 m 0
 213.779449323 312.628725359 213.672067146 309.346794271 213.672067146 306.151673264 c 0
 213.672067146 207.937688208 315.134260627 191.747942083 350 184 c 0
 355.782525207 182.754533032 361.565050414 182.165946684 367.303219549 182.165946684 c 0
 426.617632379 182.165946684 482.054843607 244.783656596 482.054843607 297.122399758 c 0
 482.054843607 352.635386053 429.918440873 396.036663021 372 398 c 0
 369.426491778 398.079184868 366.815362096 398.119180716 364.173375881 398.119180716 c 0
 300.085789388 398.119180716 217.841630263 374.584861515 214 316 c 0
EndSplineSet
Validated: 1
EndChar

StartChar: yen
Encoding: 165 165 132
Width: 840
VWidth: 0
Flags: W
HStem: -21 74<204.946 318 529.191 627> -19 87.3124<506 625.302> 207 53.7399<543 766> 214 57<86 278> 217 46<86 274.395> 306 52<615.902 774> 312 50<88 217 613 771.975> 600 77<467 501.364> 608 68<300.217 350.75>
LayerCount: 2
Fore
SplineSet
15 613 m 1x12
 137 647 243 667 349 676 c 1
 366 608 l 1x1280
 348 608 325 604 299 598 c 1
 391 356 l 1
 411 317 l 1
 433 357 l 1
 510 592 l 1
 483 597 461 600 447 600 c 1
 469 677 l 1
 825 600 l 1
 804 508 l 1
 788 515 759 524 725 535 c 1
 688 478 651 422 613 366 c 1
 675 364 731 362 774 358 c 1
 778 306 l 1
 573 308 l 1
 563 293 553 279 543 265 c 1
 612.94443072 262.531373033 679.503239718 260.739870411 736.547346467 260.739870411 c 0
 748.826115374 260.739870411 760.664041954 260.822875656 772 261 c 1
 766 207 l 1
 504 211 l 1
 500 205 497 199 493 194 c 1
 506 68 l 1
 513.167378904 68.1937129434 520.409807218 68.3123764779 527.756361023 68.3123764779 c 0
 558.334757809 68.3123764779 590.717082451 66.2565835097 627 59 c 1
 635 -19 l 1x65
 201 -21 l 1
 205 55 l 1
 226.5 53.5 246.5 53 265.25 53 c 0
 284 53 301.5 53.5 318 54 c 1
 330 200 l 1
 326 204 323 209 320 214 c 1x90
 86 217 l 1
 76 263 l 1x08
 130 270 201 271 278 271 c 1
 269 284 260 298 251 311 c 1
 80 312 l 1
 88 362 l 1
 121 363 166 364 217 365 c 1
 177 429 140 492 107 544 c 1
 70 533 41 524 29 521 c 1
 15 613 l 1x12
EndSplineSet
Validated: 1
EndChar

StartChar: cent
Encoding: 162 162 133
Width: 600
VWidth: 0
Flags: W
HStem: -184.568 133.177<112.488 399.315> -33 20G<44.7785 172.285> 18.3145 93.7539<199.843 335.092> 333 73<367 412.888> 335 81.3054<385.5 413.464 501 577> 361 63<23 70.0632>
VStem: 62.4204 183.423<114.33 338.976> 412 89<165.094 335> 420 92.9621<-31.8689 76 152.252 310.594>
LayerCount: 2
Fore
SplineSet
15 361 m 1xe680
 23 424 l 1xe680
 307 410 l 1
 300 335 l 1
 287 338 270 339 251 340 c 1
 248.643625772 305.596936273 245.843051584 257.867873741 245.843051584 215.234755956 c 0
 245.843051584 167.404488765 249.368046603 125.988327625 261 117 c 0
 265.18687655 113.574373732 271.510666694 112.068347811 279.392366236 112.068347811 c 0
 312.925164552 112.068347811 374.657503946 139.328751973 420 162 c 1xea80
 419 228 415 295 412 335 c 1xeb
 359 333 l 1
 367 406 l 1xf3
 400.288340514 414.119107442 427.31428999 416.305423375 453.296153695 416.305423375 c 0
 483.620420556 416.305423375 512.522436587 413.327229686 548.298598492 413.327229686 c 0
 557.377814239 413.327229686 566.899748742 413.519035654 577 414 c 1
 585 341 l 1
 501 338 l 1xeb
 505.290500937 281.610559108 512.962136255 160.603883388 512.962136255 52.8098928 c 0xea80
 512.962136255 -15.2632111821 509.902639777 -78.067013124 501 -116 c 0xeb
 488.462686567 -169.731343284 391.519046558 -184.567609713 288.270442175 -184.567609713 c 0
 160.93049677 -184.567609713 24 -162 24 -162 c 1
 48 -13 l 1
 48 -13 171.64164708 -51.3910137053 286.571391229 -51.3910137053 c 0
 324.599615396 -51.3910137053 361.674033149 -47.1878453039 393 -36 c 0
 410 -30 418 16 420 76 c 1
 370.290547565 50.4351387476 291.836464374 18.314484516 215.435662097 18.314484516 c 0
 184.250162425 18.314484516 153.406766591 23.6662116003 125 37 c 0
 75.3240904353 60.2659323278 62.4204492844 142.841975 62.4204492844 223.316139123 c 0
 62.4204492844 270.820687849 66.9168988001 317.592808365 71 351 c 1
 51 353 32 357 15 361 c 1xe680
EndSplineSet
Validated: 1
EndChar

StartChar: at
Encoding: 64 64 134
Width: 760
VWidth: 0
Flags: W
HStem: -70.8524 135.162<252.893 483.195> 153.479 48.4654<484.729 616.349> 163.083 58.8299<230.634 375.754> 284.152 107.848<308.728 414> 394.747 20G<442.676 462.807> 495.157 128.124<282.03 516.378>
VStem: 59.8137 63.1863<171.052 369.187> 187.615 112.345<223.448 270.976> 628.016 72.7393<217.141 394.205>
LayerCount: 2
Fore
SplineSet
60 256 m 0xdf80
 64 364 122 596 362 621 c 0
 376.786270551 622.542452683 390.981287239 623.281479065 404.604761254 623.281479065 c 0
 632.99604138 623.281479065 700.755359829 415.578252037 700.755359829 303.60302929 c 0
 700.755359829 296.678712058 700.496252873 290.120452105 700 284 c 0
 692 184 613 164 574 158 c 0
 558.729446521 155.62458057 534.591922735 153.479472057 509.324774028 153.479472057 c 0xdf80
 460.133476065 153.479472057 406.660654367 161.609899112 406 192 c 1
 367.649454912 182.625422312 282.089191277 163.082597552 234.738540611 163.082597552 c 0xbf80
 226.52859168 163.082597552 219.467329594 163.670109018 214 165 c 0
 196.605160858 169.0587958 187.615333626 219.513257348 187.615333626 264.50975954 c 0
 187.615333626 297.116450726 192.336043343 326.857075514 202 334 c 0
 269 383 375 392 430 392 c 1
 432 402 433 408 433 411 c 0
 433.206349206 413.682539683 438.522297808 414.747039557 446.830335897 414.747039557 c 0
 478.784328546 414.747039557 555 399 555 399 c 1
 555 399 526.153922902 281.603174603 526.153922902 232.523315409 c 0
 526.153922902 221.680090703 527.561904762 214.171428571 531 212 c 0
 541.231383144 205.285654811 554.222915145 201.944824891 567.261712135 201.944824891 c 0
 595.003472163 201.944824891 622.95919217 217.068151824 625 247 c 0
 625.478346107 253.218499395 628.0160272 271.049359957 628.0160272 294.486361274 c 0
 628.0160272 367.567286549 603.341943727 495.157182777 414.61970076 495.157182777 c 0
 410.81357376 495.157182777 406.940721275 495.105286446 403 495 c 0
 146.82740629 488.155694061 122.965410122 347.469891596 122.965410122 253.348781237 c 0
 122.965410122 251.207717111 122.977757991 249.090748821 123 247 c 0
 124.897153107 141.708002582 223.972433783 64.309726967 372.428341795 64.309726967 c 0
 380.476310558 64.309726967 388.669401637 64.5371889798 397 65 c 0
 559 74 640 121 640 121 c 1
 650 57 l 1
 650 57 551.371011893 -70.8523919906 353.240323106 -70.8523919906 c 0
 344.041398269 -70.8523919906 334.627986348 -70.5767918089 325 -70 c 0
 196.721799376 -62.1662167558 59.8137012639 82.7870488034 59.8137012639 245.612535766 c 0
 59.8137012639 249.067357448 59.8753374332 252.530225223 60 256 c 0xdf80
299.960781069 244.38068729 m 0
 299.960781069 227.597046544 313.047128963 221.91245082 330.845476505 221.91245082 c 0xbf80
 355.231137707 221.91245082 388.462147542 232.583553279 409 240 c 1
 410 254 412 269 414 284 c 1
 410.63809167 284.093386342 406.927342981 284.151888649 402.960598171 284.151888649 c 0
 364.280774966 284.151888649 299.960781069 278.889227502 299.960781069 244.38068729 c 0
EndSplineSet
Validated: 1
EndChar

StartChar: backslash
Encoding: 92 92 135
Width: 520
VWidth: 0
Flags: W
LayerCount: 2
Fore
SplineSet
15 706 m 1
 83 730 l 1
 83 730 317 264 407 88 c 0
 497 -88 505 -138 505 -138 c 1
 419 -170 l 1
 419 -170 189 306 135 400 c 0
 81 494 15 706 15 706 c 1
EndSplineSet
Validated: 1
EndChar

StartChar: quotedbl
Encoding: 34 34 136
Width: 410
VWidth: 0
Flags: W
HStem: 374 295.889
VStem: 41.5731 138.427<519.745 661> 53 75<402 475.757> 235 135.266<538.083 656.692>
LayerCount: 2
Fore
SplineSet
45 661 m 0xd0
 49.6666666667 667.666666667 66.2222222222 669.888888889 86.2222222222 669.888888889 c 0
 126.222222222 669.888888889 180 661 180 661 c 1xd0
 180 661 174 602 158 516 c 0
 147 457 128 394 128 394 c 1
 53 402 l 1xb0
 53 402 41.5730945439 548.144106622 41.5730945439 621.222296832 c 0
 41.5730945439 642.376509788 42.5306122449 657.408163265 45 661 c 0xd0
199 387 m 1
 199 387 204 452 218 521 c 0
 232 589 235 657 235 657 c 1
 235 657 268.564444444 660.413333333 301.863407407 660.413333333 c 0
 331 660.413333333 359.933333333 657.8 366 648 c 0
 368.951417004 643.408906883 370.265813241 636.547492993 370.265813241 627.966962995 c 0
 370.265813241 558.05153338 283 374 283 374 c 1
 199 387 l 1
EndSplineSet
Validated: 1
EndChar

StartChar: bar
Encoding: 124 124 137
Width: 180
VWidth: 0
Flags: W
VStem: 60 60.9444<-85 702>
LayerCount: 2
Fore
SplineSet
60 305 m 1
 62 702 l 1
 119 703 l 1
 119 703 117.92 642.88 117.92 571.024 c 0
 117.92 523.12 118.4 470 120 426 c 0
 120.666666667 407 120.944444444 380.138888889 120.944444444 348.564814815 c 0
 120.944444444 190.694444444 114 -85 114 -85 c 1
 63 -85 l 1
 60 305 l 1
EndSplineSet
Validated: 1
EndChar

StartChar: bracketleft
Encoding: 91 91 138
Width: 333
VWidth: 0
Flags: W
HStem: -168 147.84<164.167 311.329> -156 138<138 205.833>
VStem: 60 253.267<-156 -25.6907> 67.68 76.641<4.42236 589.885>
LayerCount: 2
Fore
SplineSet
60 -156 m 1x60
 60 -156 67.68 78.24 67.68 242.592 c 0
 67.68 283.68 67.2 320.4 66 348 c 0
 65.0526315789 369.789473684 64.6537396122 394.470914127 64.6537396122 420.587840793 c 0
 64.6537396122 559.878116343 76 740 76 740 c 1
 290 748 l 1
 292 590 l 1
 292 590 228 594 196 598 c 0
 191.428571429 598.571428571 187.306122449 598.816326531 183.597667638 598.816326531 c 0
 161.346938776 598.816326531 154 590 154 590 c 1
 154 590 143.775147929 431.514792899 143.775147929 348.929449249 c 0
 143.775147929 342.047337278 143.846153846 335.692307692 144 330 c 0
 144.222222222 321.777777778 144.320987654 311.086419753 144.320987654 298.576131687 c 0
 144.320987654 198.49382716 138 -18 138 -18 c 1x50
 138 -18 188.4 -20.16 233.472 -20.16 c 0
 263.52 -20.16 291.2 -19.2 300 -16 c 0
 300.536585366 -15.8048780488 301.052944676 -15.7096966092 301.549745361 -15.7096966092 c 0
 310.794558105 -15.7096966092 313.266540643 -48.6694637835 313.266540643 -83.9220843265 c 0
 313.266540643 -124.446124764 310 -168 310 -168 c 1xa0
 60 -156 l 1x60
EndSplineSet
Validated: 1
EndChar

StartChar: bracketright
Encoding: 93 93 139
Width: 329
VWidth: 0
Flags: W
HStem: -166 147.5<41.0465 173.423> 589.615 158.385<26.8742 192.974> 598 150<67.9942 195>
VStem: 21.898 247.102<598.593 747.982> 33 224<-166 -29.5> 189.354 78.9925<14.0172 598>
LayerCount: 2
Fore
SplineSet
23 748 m 1xb0
 269 748 l 1xb0
 269 748 264.768595041 544.892561983 264.768595041 381.021788129 c 0
 264.768595041 319.570247934 265.363636364 263.636363636 267 226 c 0
 267.947368421 204.210526316 268.346260388 179.529085873 268.346260388 153.412159207 c 0xa4
 268.346260388 14.1218836565 257 -166 257 -166 c 1
 33 -166 l 1xa8
 41 -10 l 1
 41 -10 105 -14 137 -18 c 0
 139.722088644 -18.3402610805 142.176441581 -18.4996196565 144.39937572 -18.4996196565 c 0
 168.308541503 -18.4996196565 165.446109592 -0.0642820285999 181 10 c 1
 183.634507343 96.0605732104 189.35373866 158.985716617 189.35373866 223.155614101 c 0
 189.35373866 232.058085518 189.243661771 240.984514465 189 250 c 0
 188.72075922 260.331908858 188.597469266 271.833448914 188.597469266 284.357646239 c 0
 188.597469266 361.535227632 193.27924078 477.546854596 195 598 c 1xa4
 151.910632807 597.316041791 100.400886633 589.615101098 66.3871044643 589.615101098 c 0
 50.6700965049 589.615101098 38.6887522305 591.259373141 33 596 c 0xc8
 23.8571428571 604 21.8979591837 652.489795918 21.8979591837 692.583090379 c 0
 21.8979591837 722.653061224 23 748 23 748 c 1xb0
EndSplineSet
Validated: 1
EndChar

StartChar: underscore
Encoding: 95 95 140
Width: 701
VWidth: 0
Flags: W
HStem: -155.047 144.482<46.2606 652.893> -144 120<46 325.825>
LayerCount: 2
Fore
SplineSet
40 -144 m 1x40
 46 -24 l 1x40
 46 -24 273 -16 318 -15 c 0
 339.044192762 -14.532351272 413.887437403 -10.5655772185 488.222986385 -10.5655772185 c 0
 572.843389862 -10.5655772185 656.805892368 -15.7059491218 660 -37 c 0
 661.195121951 -44.1707317073 661.690660321 -52.1576442594 661.690660321 -60.4730198343 c 0
 661.690660321 -100.861986913 650 -149 650 -149 c 1
 577.430821182 -152.023715784 451.718785222 -155.047431568 379.557863356 -155.047431568 c 0x80
 356.258858405 -155.047431568 338.542486889 -154.732213162 330 -154 c 0
 292 -151 40 -144 40 -144 c 1x40
EndSplineSet
Validated: 1
EndChar

StartChar: multiply
Encoding: 215 215 141
Width: 515
VWidth: 0
Flags: W
HStem: 422.382 20G<126.03 132.772 383.131 427.105>
LayerCount: 2
Fore
SplineSet
40 111 m 1
 89 155 134 200 166 233 c 1
 134 272 92 323 57 369 c 1
 57 369 91 412 125 442 c 0
 125.299403673 442.25663172 125.741503666 442.381543761 126.31824036 442.381543761 c 0
 139.225496066 442.381543761 219.5663172 379.81863038 277 331 c 1
 337 377 410 430 410 430 c 1
 475 354 l 2
 475 354 417 288 370 236 c 1
 412 181 466 102 466 102 c 1
 400 9 l 2
 400 9 318 81 261 132 c 1
 207.470508962 88.1233680014 135.459493102 35.7760371265 103.757714515 35.7760371265 c 0
 99.3334538604 35.7760371265 95.6942819206 36.7955875195 93 39 c 0
 59 67 40 111 40 111 c 1
EndSplineSet
Validated: 1
EndChar

StartChar: periodcentered
Encoding: 183 183 142
Width: 264
VWidth: 0
Flags: W
HStem: 177.826 195.215<74.4735 203.186>
VStem: 30 204<219.619 330.195>
LayerCount: 2
Fore
SplineSet
30 276 m 0
 30 322 75 371 140 373 c 0
 141.119151072 373.027296368 142.225263039 373.040808539 143.318483354 373.040808539 c 0
 222.325321136 373.040808539 234 302.467720832 234 264 c 0
 234 213.061068227 201.669235686 177.825650549 132.568638063 177.825650549 c 0
 129.772720652 177.825650549 126.916605981 177.883335761 124 178 c 0
 76 180 30 230 30 276 c 0
EndSplineSet
Validated: 1
EndChar

StartChar: divide
Encoding: 247 247 143
Width: 595
VWidth: 0
Flags: W
HStem: -0.100677 149.154<246.765 356.947> 187.195 110.01<64.7947 527> 195 92<64 271.259> 335 156<252.266 348.378>
VStem: 224.947 150.151<19.6157 127.324 362.509 472.453>
LayerCount: 2
Fore
SplineSet
60 195 m 1xb8
 64 287 l 1xb8
 64 287 238 293 273 294 c 0
 288.975126576 294.456432188 343.699696791 297.204498139 398.94806375 297.204498139 c 0
 464.743673145 297.204498139 531.282160939 293.307034363 534 277 c 0
 534.862068966 271.482758621 535.218787158 265.311533888 535.218787158 258.875845668 c 0
 535.218787158 227.984542212 527 191 527 191 c 1
 473.663817716 188.83772234 383.963065701 187.194938533 327.916151062 187.194938533 c 0xd8
 306.202125459 187.194938533 289.539501058 187.44151844 282 188 c 0
 253 190 60 195 60 195 c 1xb8
219 75 m 0
 219 110 255 148 304 149 c 0
 305.101803279 149.035542041 306.186868672 149.05308296 307.255443118 149.05308296 c 0
 366.317036089 149.05308296 375 95.466869381 375 66 c 0
 375 27.3469401924 349.787753827 -0.100676871457 296.656232427 -0.100676871457 c 0
 294.804762401 -0.100676871457 292.919389774 -0.0673470096224 291 0 c 0
 255 1 219 40 219 75 c 0
224.94691704 422.256379321 m 0
 224.94691704 481.352262321 278.533130619 491 308 491 c 0
 346.695963622 491 375.09745624 464.795891989 375.09745624 411.482324886 c 0
 375.09745624 409.685681918 375.065201819 407.858251839 375 406 c 0
 374 370 334 335 299 335 c 0
 262.874891213 335 224.94691704 371.348458489 224.94691704 422.256379321 c 0
EndSplineSet
Validated: 1
EndChar

StartChar: braceleft
Encoding: 123 123 144
Width: 426
VWidth: 0
Flags: W
VStem: 108.822 94.6051<3.67404 260.885>
LayerCount: 2
Fore
SplineSet
60 295 m 1
 60 295 117 328 119 358 c 0
 121 392 124 634 176 706 c 0
 202.64516129 743.430107527 284.02682391 750.272170193 339.970381311 750.272170193 c 0
 372.209041508 750.272170193 396 748 396 748 c 1
 396.596121855 740.479693521 396.88314249 733.312645579 396.88314249 726.480728882 c 0
 396.88314249 584.324789631 272.61551258 587.266311563 223 572 c 0
 186 561 237 334 157 291 c 1
 197.22720417 266.070465022 203.427000432 186.88968536 203.427000432 119.298153929 c 0
 203.427000432 89.1803177857 202.196050532 61.3634901514 202.196050532 41.6725581347 c 0
 202.196050532 27.5584155473 202.828486895 17.6191885077 205 14 c 0
 239 -40 392 40 394 -160 c 1
 394 -160 343.414899606 -168.75511353 287.339530149 -168.75511353 c 0
 229.706511541 -168.75511353 166.273972603 -159.506849315 146 -122 c 0
 123.431865074 -80.6250859698 108.821866305 166.77713078 108.821866305 221.0948935 c 0
 108.821866305 225.701979486 109.057322485 227.705502394 109.057322485 230.903611459 c 0
 109.057322485 263.257026627 60 295 60 295 c 1
EndSplineSet
Validated: 1
EndChar

StartChar: braceright
Encoding: 125 125 145
Width: 428
VWidth: 0
Flags: W
VStem: 222.225 95.0636<325.811 586.464>
LayerCount: 2
Fore
SplineSet
30 -160 m 1
 29.7756281699 -154.783354951 29.6661006656 -149.753135279 29.6661006656 -144.902082753 c 0
 29.6661006656 23.2116268238 161.205998587 -23.8500943708 203 16 c 0
 231 43 186 254 265 300 c 1
 228.360570895 326.79600039 222.224521617 400.24422875 222.224521617 464.577841341 c 0
 222.224521617 496.97812551 223.780883545 527.066557162 223.780883545 547.719385732 c 0
 223.780883545 561.047067418 223.132755608 570.445407319 221 574 c 0
 189.194421482 624.514742352 29.6268668139 561.268821009 29.6268668139 713.340502035 c 0
 29.6268668139 723.832666593 30.3864547926 735.349805574 32 748 c 1
 32 748 83.678031498 764.149384843 142.48406734 764.149384843 c 0
 192.201897644 764.149384843 247.014778325 752.60591133 280 710 c 0
 308.078912541 674.674916481 317.288124168 439.987340702 317.288124168 373.778980099 c 0
 317.288124168 365.553527128 316.94478738 361.604257382 316.94478738 357.167892344 c 0
 316.94478738 324.825788752 368 294 368 294 c 1
 368 294 309 260 307 230 c 0
 305 196 311 -69 259 -126 c 0
 230.85106383 -157.021276596 159.470348574 -163.621548212 103.817940148 -163.621548212 c 0
 62.5939339067 -163.621548212 30 -160 30 -160 c 1
EndSplineSet
Validated: 1
EndChar

StartChar: guillemotleft
Encoding: 171 171 146
Width: 617
VWidth: 0
Flags: W
HStem: 394 20G<266 316.444>
VStem: 295 158<197.739 255.302>
LayerCount: 2
Fore
SplineSet
288 414 m 1
 352 369 l 1
 352 369 211 246 211 229 c 0
 211 229 211 228 211 228 c 0
 227 202 305 110 305 110 c 1
 305.066666667 108.4 305.097777778 106.737777778 305.097777778 105.028740741 c 0
 305.097777778 81.1022222222 299 48 299 48 c 1
 201 89 60 205 60 239 c 0
 60 281 244 409 288 414 c 1
295 226 m 0
 295 259 428 368 530 404 c 1
 530 404 577.129795457 376.664718635 577.129795457 353.108972323 c 0
 577.129795457 352.402299934 577.087378641 351.699029126 577 351 c 1
 577 351 471 258 453 233 c 0
 453 233 453 232 453 232 c 0
 453 214 566 95 566 95 c 1
 518 41 l 1
 472 49 295 185 295 226 c 0
EndSplineSet
Validated: 1
EndChar

StartChar: guillemotright
Encoding: 187 187 147
Width: 617
VWidth: 0
Flags: W
HStem: 394 20G<81.8519 123>
VStem: 164 158<194.456 257.344>
LayerCount: 2
Fore
SplineSet
40 104 m 1
 40 104 164 198 164 223 c 0
 164 241 51 360 51 360 c 1
 100 414 l 1
 146 406 322 270 322 229 c 0
 322 196 189 86 87 50 c 1
 87 50 39.8702045433 78.277877274 39.8702045433 101.888532085 c 0
 39.8702045433 102.59685173 39.9126213592 103.300970874 40 104 c 1
265 85 m 1
 265 85 407 209 407 226 c 0
 407 252 312 345 312 345 c 1
 311.941176471 346.411764706 311.91349481 347.871972318 311.91349481 349.370038673 c 0
 311.91349481 373.339100346 319 407 319 407 c 1
 417 366 557 250 557 216 c 0
 557 174 373 46 329 41 c 1
 265 85 l 1
EndSplineSet
Validated: 1
EndChar

StartChar: uni00AD
Encoding: 173 173 148
Width: 578
VWidth: 0
Flags: W
HStem: 142.759 179.241<69.6211 382.446> 160 166.401<272.972 508>
LayerCount: 2
Fore
SplineSet
60 166 m 1x80
 63 312 l 1
 63 312 215 320 261 322 c 0x80
 281.608168574 322.896007329 333.325966098 326.401209345 384.862068275 326.401209345 c 0
 448.360967467 326.401209345 511.584029317 321.079853414 516 299 c 0
 517.6 290.4 518.24 279.68 518.24 268.032 c 0
 518.24 221.44 508 160 508 160 c 1x40
 410 156 316 146 280 143 c 0
 278.036363636 142.836363636 275.632396694 142.759008264 272.841977461 142.759008264 c 0
 224.474710744 142.759008264 60 166 60 166 c 1x80
EndSplineSet
Validated: 1
EndChar

StartChar: macron
Encoding: 175 175 149
Width: 486
VWidth: 0
Flags: W
HStem: 611 147<268.518 443> 614.472 152.046<54 442.854>
LayerCount: 2
Fore
SplineSet
46 622 m 0x40
 41.3714285714 632.285714286 39.652244898 646.53877551 39.652244898 662.038717201 c 0
 39.652244898 706.816326531 54 762 54 762 c 1
 152 766 212 763 248 766 c 0
 252.32 766.36 258.4544 766.5184 265.905536 766.5184 c 0x40
 320.5472 766.5184 446 758 446 758 c 1
 443 611 l 1x80
 443 611 357.583333333 614.472222222 302.490740741 614.472222222 c 0
 291.472222222 614.472222222 281.666666667 614.333333333 274 614 c 0
 249.210904017 612.922213218 187.8306411 608.940365568 134.930612453 608.940365568 c 0
 89.6664595802 608.940365568 50.6110660907 611.8556546 46 622 c 0x40
EndSplineSet
Validated: 1
EndChar

StartChar: ordmasculine
Encoding: 186 186 156
Width: 382
VWidth: 0
Flags: W
HStem: 189.74 154.397<76.3191 311> 395.986 97.8203<140.047 246.942> 569.117 95.1976<142.975 243.432>
VStem: 59.9105 75.0673<504.594 560.236> 249.168 73.3173<498.217 561.653>
LayerCount: 2
Fore
SplineSet
60 532 m 0
 61.9156892757 610.543260302 98.6950998596 664.314929148 181.762504663 664.314929148 c 0
 185.418354887 664.314929148 189.163862042 664.210776811 193 664 c 0
 287.51940383 659.320821593 322.485194914 613.479587316 322.485194914 537.950613947 c 0
 322.485194914 532.772071175 322.320821593 527.453967074 322 522 c 0
 317.048197541 446.732602616 266.978955502 395.98555283 194.133538711 395.98555283 c 0
 193.424510037 395.98555283 192.7133236 395.990360492 192 396 c 0
 131.237829293 396.980035011 59.9105037269 429.655534601 59.9105037269 526.030456635 c 0
 59.9105037269 527.993778555 59.9401050342 529.983536152 60 532 c 0
70 204 m 0
 68.9411764706 206.470588235 68.5051903114 212.397923875 68.5051903114 220.485039691 c 0
 68.5051903114 258.224913495 78 343 78 343 c 1
 87.4439782008 343.821215496 99.8805837277 344.136634824 114.28870444 344.136634824 c 0
 162.031904232 344.136634824 231.422641223 340.673282532 285.308590827 340.673282532 c 0
 294.369680557 340.673282532 302.992365189 340.771210434 311 341 c 1
 312 194 l 1
 293.485297751 191.531373033 250.424838014 189.739870411 205.663375483 189.739870411 c 0
 141.632064208 189.739870411 74.1199352056 193.4058809 70 204 c 0
134.977805749 529.939307273 m 0
 134.977805749 506.646216564 167.37104849 494.98515806 192 494 c 0
 195.302967433 493.882036877 198.592019569 493.80581965 201.827760596 493.80581965 c 0
 226.022126164 493.80581965 247.235926245 498.067041188 249 521 c 0
 249.113082995 522.696244932 249.167910622 524.327130182 249.167910622 525.895333674 c 0
 249.167910622 565.930294787 213.434585023 565.113082995 199 568 c 0
 195.587476823 568.758338484 192.031184332 569.117317762 188.419958368 569.117317762 c 0
 163.346649691 569.117317762 134.977805749 551.82131131 134.977805749 529.939307273 c 0
EndSplineSet
Validated: 1
EndChar

StartChar: ordfeminine
Encoding: 170 170 157
Width: 475
VWidth: 0
Flags: W
HStem: 188.355 154.782<72.4728 391> 398.501 80.9392<368.242 411.956> 411.44 72.3424<130.098 253.975 368.242 414.176> 547.538 116.558<166.228 256.545>
VStem: 60.8044 100.149<485.871 538.781> 261 101.669<489.031 544.765>
LayerCount: 2
Fore
SplineSet
66 202 m 0x9c
 64.9411764706 204.470588235 64.5051903114 210.429065744 64.5051903114 218.567474048 c 0
 64.5051903114 256.546712803 74 342 74 342 c 1
 83.4439782008 342.821215496 99.4211569024 343.136634824 119.456637186 343.136634824 c 0
 185.846831803 343.136634824 296.797796296 339.673282532 362.262371078 339.673282532 c 0
 373.270442581 339.673282532 382.992365189 339.771210434 391 340 c 1
 391 193 l 1
 371.458365434 190.394448725 308.920380357 188.354638903 243.841032183 188.354638903 c 0
 159.057242862 188.354638903 69.9601901786 191.816653826 66 202 c 0x9c
75 628 m 0
 108.010871878 655.686537704 147.541906666 664.09607202 183.178446504 664.09607202 c 0
 214.473355134 664.09607202 242.764903278 657.610798991 261 652 c 1
 261 662 261 670 261 672 c 0
 261 677.444444444 277.787037037 679.108024691 298.304526749 679.108024691 c 0
 330.546296296 679.108024691 372 675 372 675 c 1
 372 675 362.6688 586.872 362.6688 531.175104 c 0
 362.6688 509.5152 364.08 492.76 368 488 c 0
 373.141101056 481.487938662 378.987026648 479.439766047 384.893585813 479.439766047 c 0
 394.909375902 479.439766047 405.099512987 485.329122842 412.32300678 485.329122842 c 0
 413.26851349 485.329122842 414.163192559 485.228220211 415 485 c 0
 416.5 484.75 417.0625 480.1875 417.0625 473.484375 c 0
 417.0625 453.375 412 414 412 414 c 1
 412 414 352.041522491 398.500529624 306.886718701 398.500529624 c 0xdc
 281.338606031 398.500529624 260.529411765 403.462184874 258 419 c 0
 258 422 257 426 257 430 c 1
 222.6 423.6 153 411.44 109.64 411.44 c 0xbc
 98.8 411.44 89.6 412.2 83 414 c 0
 68.0906849244 417.865377983 60.804404006 477.226444629 60.804404006 532.646253299 c 0
 60.804404006 577.588857423 65.5961339477 619.939543384 75 628 c 0
160.953494259 511.078975379 m 0
 160.953494259 490.112217206 178.145243671 483.782388379 199.152902674 483.782388379 c 0xbc
 217.897983143 483.782388379 239.681270726 488.822164743 255 493 c 1
 255 510 256 529 257 547 c 1
 251.553586903 547.320377241 245.440003558 547.538112905 239.004532229 547.538112905 c 0
 204.850361371 547.538112905 160.953494259 541.67923961 160.953494259 511.078975379 c 0
EndSplineSet
Validated: 1
EndChar

